{
copyright = "Copyright 2014-2022 Indian Type Foundry. All rights reserved.";
designer = "Manushi Parikh";
designerURL = "https://www.indiantypefoundry.com/designers";
familyName = Sarpanch;
customParameters = (
{
name = glyphOrder;
value = (
.notdef,
NULL,
CR,
space,
ITF,
circledotted,
exclam,
quotedbl,
numbersign,
dollar,
percent,
ampersand,
quotesingle,
parenleft,
parenright,
asterisk,
plus,
comma,
hyphen,
period,
slash,
zero,
one,
two,
three,
four,
five,
six,
seven,
eight,
nine,
colon,
semicolon,
less,
equal,
greater,
question,
at,
A,
B,
C,
D,
E,
F,
G,
H,
I,
J,
K,
L,
M,
N,
O,
P,
Q,
R,
S,
T,
U,
V,
W,
X,
Y,
Z,
bracketleft,
backslash,
bracketright,
asciicircum,
underscore,
grave,
a,
b,
c,
d,
e,
f,
g,
h,
i,
j,
k,
l,
m,
n,
o,
p,
q,
r,
s,
t,
u,
v,
w,
x,
y,
z,
braceleft,
bar,
braceright,
asciitilde,
exclamdown,
cent,
sterling,
currency,
yen,
brokenbar,
section,
dieresis,
copyright,
ordfeminine,
guillemotleft,
logicalnot,
softhyphen,
registered,
macron,
degree,
plusminus,
twosuperior,
threesuperior,
acute,
micro,
paragraph,
periodcentered,
cedilla,
onesuperior,
ordmasculine,
guillemotright,
questiondown,
Agrave,
Aacute,
Acircumflex,
circumflex,
Atilde,
tilde,
Adieresis,
Aring,
ring,
AE,
Ccedilla,
Egrave,
Eacute,
Ecircumflex,
Edieresis,
Igrave,
Iacute,
Icircumflex,
Idieresis,
Eth,
Ntilde,
Ograve,
Oacute,
Ocircumflex,
Otilde,
Odieresis,
multiply,
Oslash,
Ugrave,
Uacute,
Ucircumflex,
Udieresis,
Yacute,
Thorn,
germandbls,
agrave,
aacute,
acircumflex,
atilde,
adieresis,
aring,
ae,
ccedilla,
egrave,
eacute,
ecircumflex,
edieresis,
igrave,
iacute,
icircumflex,
idieresis,
eth,
ntilde,
ograve,
oacute,
ocircumflex,
otilde,
odieresis,
divide,
oslash,
ugrave,
uacute,
ucircumflex,
udieresis,
yacute,
thorn,
ydieresis,
Amacron,
amacron,
Abreve,
breve,
abreve,
Aogonek,
ogonek,
aogonek,
Cacute,
cacute,
Ccaron,
caron,
ccaron,
Dcaron,
dcaron,
Dcroat,
dcroat,
Emacron,
emacron,
Edotaccent,
dotaccent,
edotaccent,
Eogonek,
eogonek,
Ecaron,
ecaron,
Gbreve,
gbreve,
Gcommaaccent,

glyphs = (
{
glyphname = .notdef;
layers = (
{
layerId = "D2A65651-33D6-4DD8-B320-C085CF253BF6";
paths = (
{
closed = 1;
nodes = (
"160 0 LINE",
"596 0 LINE",
"596 701 LINE",
"160 701 LINE"
);
},
{
closed = 1;
nodes = (
"241 625 LINE",
"516 625 LINE",
"516 76 LINE",
"241 76 LINE"
);
}
);
width = 756;
},
{
layerId = "B7AC66F4-B7F6-40D5-96E7-A23DEF3F6247";
paths = (
{
closed = 1;
nodes = (
"180 0 LINE",
"570 0 LINE",
"570 701 LINE",
"180 701 LINE"
);
},
{
closed = 1;
nodes = (
"234 651 LINE",
"516 651 LINE",
"516 50 LINE",
"234 50 LINE"
);
}
);
width = 750;
}
);
},
{
glyphname = ITF;
layers = (
{
layerId = "D2A65651-33D6-4DD8-B320-C085CF253BF6";
paths = (
{
closed = 1;
nodes = (
"147 0 LINE",
"343 0 LINE",
"343 634 LINE",
"147 634 LINE"
);
},
{
closed = 1;
nodes = (
"383 449 LINE",
"579 449 LINE",
"579 634 LINE",
"383 634 LINE"
);
},
{
closed = 1;
nodes = (
"619 0 LINE",
"815 0 LINE",
"815 634 LINE",
"619 634 LINE"
);
},
{
closed = 1;
nodes = (
"855 449 LINE",
"1051 449 LINE",
"1051 634 LINE",
"855 634 LINE"
);
},
{
closed = 1;
nodes = (
"1091 0 LINE",
"1287 0 LINE",
"1287 634 LINE",
"1091 634 LINE"
);
},
{
closed = 1;
nodes = (
"1327 449 LINE",
"1523 449 LINE",
"1523 634 LINE",
"1327 634 LINE"
);
},
{
closed = 1;
nodes = (
"1327 224 LINE",
"1523 224 LINE",
"1523 409 LINE",
"1327 409 LINE"
);
}
);
width = 1648;
},
{
layerId = "B7AC66F4-B7F6-40D5-96E7-A23DEF3F6247";
paths = (
{
closed = 1;
nodes = (
"147 0 LINE",
"343 0 LINE",
"343 634 LINE",
"147 634 LINE"
);
},
{
closed = 1;
nodes = (
"383 449 LINE",
"579 449 LINE",
"579 634 LINE",
"383 634 LINE"
);
},
{
closed = 1;
nodes = (
"619 0 LINE",
"815 0 LINE",
"815 634 LINE",
"619 634 LINE"
);
},
{
closed = 1;
nodes = (
"855 449 LINE",
"1051 449 LINE",
"1051 634 LINE",
"855 634 LINE"
);
},
{
closed = 1;
nodes = (
"1091 0 LINE",
"1287 0 LINE",
"1287 634 LINE",
"1091 634 LINE"
);
},
{
closed = 1;
nodes = (
"1327 449 LINE",
"1523 449 LINE",
"1523 634 LINE",
"1327 634 LINE"
);
},
{
closed = 1;
nodes = (
"1327 224 LINE",
"1523 224 LINE",
"1523 409 LINE",
"1327 409 LINE"
);
}
);
width = 1648;
}
);
},
{
glyphname = circledotted;
layers = (
{
layerId = "D2A65651-33D6-4DD8-B320-C085CF253BF6";
paths = (
{
closed = 1;
nodes = (
"139 491 OFFCURVE",
"157 472 OFFCURVE",
"183 472 CURVE SMOOTH",
"209 472 OFFCURVE",
"227 491 OFFCURVE",
"227 517 CURVE SMOOTH",
"227 542 OFFCURVE",
"209 561 OFFCURVE",
"183 561 CURVE SMOOTH",
"157 561 OFFCURVE",
"139 542 OFFCURVE",
"139 517 CURVE SMOOTH"
);
},
{
closed = 1;
nodes = (
"57 382 OFFCURVE",
"77 363 OFFCURVE",
"103 363 CURVE SMOOTH",
"127 363 OFFCURVE",
"147 382 OFFCURVE",
"147 407 CURVE SMOOTH",
"147 432 OFFCURVE",
"127 451 OFFCURVE",
"103 451 CURVE SMOOTH",
"77 451 OFFCURVE",
"57 432 OFFCURVE",
"57 407 CURVE SMOOTH"
);
},
{
closed = 1;
nodes = (
"44 256 OFFCURVE",
"63 238 OFFCURVE",
"88 238 CURVE SMOOTH",
"114 238 OFFCURVE",
"132 256 OFFCURVE",
"132 281 CURVE SMOOTH",
"132 307 OFFCURVE",
"114 326 OFFCURVE",
"88 326 CURVE SMOOTH",
"63 326 OFFCURVE",
"44 307 OFFCURVE",
"44 281 CURVE SMOOTH"
);
},
{
closed = 1;
nodes = (
"96 139 OFFCURVE",
"114 121 OFFCURVE",
"140 121 CURVE SMOOTH",
"165 121 OFFCURVE",
"184 139 OFFCURVE",
"184 165 CURVE SMOOTH",
"184 190 OFFCURVE",
"165 209 OFFCURVE",
"140 209 CURVE SMOOTH",
"114 209 OFFCURVE",
"96 190 OFFCURVE",
"96 165 CURVE SMOOTH"
);
},
{
closed = 1;
nodes = (
"197 64 OFFCURVE",
"216 44 OFFCURVE",
"242 44 CURVE SMOOTH",
"267 44 OFFCURVE",
"286 64 OFFCURVE",
"286 90 CURVE SMOOTH",
"286 114 OFFCURVE",
"267 134 OFFCURVE",
"242 134 CURVE SMOOTH",
"216 134 OFFCURVE",
"197 114 OFFCURVE",
"197 90 CURVE SMOOTH"
);
},
{
closed = 1;
nodes = (
"324 48 OFFCURVE",
"342 30 OFFCURVE",
"368 30 CURVE SMOOTH",
"394 30 OFFCURVE",
"413 48 OFFCURVE",
"413 74 CURVE SMOOTH",
"413 100 OFFCURVE",
"394 118 OFFCURVE",
"368 118 CURVE SMOOTH",
"342 118 OFFCURVE",
"324 100 OFFCURVE",
"324 74 CURVE SMOOTH"
);
},
{
closed = 1;
nodes = (
"445 101 OFFCURVE",
"464 83 OFFCURVE",
"489 83 CURVE SMOOTH",
"514 83 OFFCURVE",
"534 101 OFFCURVE",
"534 127 CURVE SMOOTH",
"534 152 OFFCURVE",
"514 171 OFFCURVE",
"489 171 CURVE SMOOTH",
"464 171 OFFCURVE",
"445 152 OFFCURVE",
"445 127 CURVE SMOOTH"
);
},
{
closed = 1;
nodes = (
"518 200 OFFCURVE",
"537 181 OFFCURVE",
"563 181 CURVE SMOOTH",
"587 181 OFFCURVE",
"606 200 OFFCURVE",
"606 225 CURVE SMOOTH",
"606 251 OFFCURVE",
"587 270 OFFCURVE",
"563 270 CURVE SMOOTH",
"537 270 OFFCURVE",
"518 251 OFFCURVE",
"518 225 CURVE SMOOTH"
);
},
{
closed = 1;
nodes = (
"528 333 OFFCURVE",
"546 315 OFFCURVE",
"572 315 CURVE SMOOTH",
"597 315 OFFCURVE",
"616 333 OFFCURVE",
"616 359 CURVE SMOOTH",
"616 385 OFFCURVE",
"597 403 OFFCURVE",
"572 403 CURVE SMOOTH",
"546 403 OFFCURVE",
"528 385 OFFCURVE",
"528 359 CURVE SMOOTH"
);
},
{
closed = 1;
nodes = (
"478 452 OFFCURVE",
"497 433 OFFCURVE",
"522 433 CURVE SMOOTH",
"548 433 OFFCURVE",
"566 452 OFFCURVE",
"566 477 CURVE SMOOTH",
"566 503 OFFCURVE",
"548 522 OFFCURVE",
"522 522 CURVE SMOOTH",
"497 522 OFFCURVE",
"478 503 OFFCURVE",
"478 477 CURVE SMOOTH"
);
},
{
closed = 1;
nodes = (
"383 521 OFFCURVE",
"402 501 OFFCURVE",
"428 501 CURVE SMOOTH",
"453 501 OFFCURVE",
"471 521 OFFCURVE",
"471 545 CURVE SMOOTH",
"471 571 OFFCURVE",
"453 590 OFFCURVE",
"428 590 CURVE SMOOTH",
"402 590 OFFCURVE",
"383 571 OFFCURVE",
"383 545 CURVE SMOOTH"
);
},
{
closed = 1;
nodes = (
"257 534 OFFCURVE",
"275 516 OFFCURVE",
"301 516 CURVE SMOOTH",
"327 516 OFFCURVE",
"345 534 OFFCURVE",
"345 560 CURVE SMOOTH",
"345 586 OFFCURVE",
"327 604 OFFCURVE",
"301 604 CURVE SMOOTH",
"275 604 OFFCURVE",
"257 586 OFFCURVE",
"257 560 CURVE SMOOTH"
);
}
);
width = 660;
},
{
layerId = "B7AC66F4-B7F6-40D5-96E7-A23DEF3F6247";
paths = (
{
closed = 1;
nodes = (
"139 491 OFFCURVE",
"157 472 OFFCURVE",
"183 472 CURVE SMOOTH",
"209 472 OFFCURVE",
"227 491 OFFCURVE",
"227 517 CURVE SMOOTH",
"227 542 OFFCURVE",
"209 561 OFFCURVE",
"183 561 CURVE SMOOTH",
"157 561 OFFCURVE",
"139 542 OFFCURVE",
"139 517 CURVE SMOOTH"
);
},
{
closed = 1;
nodes = (
"57 382 OFFCURVE",
"77 363 OFFCURVE",
"103 363 CURVE SMOOTH",
"127 363 OFFCURVE",
"147 382 OFFCURVE",
"147 407 CURVE SMOOTH",
"147 432 OFFCURVE",
"127 451 OFFCURVE",
"103 451 CURVE SMOOTH",
"77 451 OFFCURVE",
"57 432 OFFCURVE",
"57 407 CURVE SMOOTH"
);
},
{
closed = 1;
nodes = (
"44 256 OFFCURVE",
"63 238 OFFCURVE",
"88 238 CURVE SMOOTH",
"114 238 OFFCURVE",
"132 256 OFFCURVE",
"132 281 CURVE SMOOTH",
"132 307 OFFCURVE",
"114 326 OFFCURVE",
"88 326 CURVE SMOOTH",
"63 326 OFFCURVE",
"44 307 OFFCURVE",
"44 281 CURVE SMOOTH"
);
},
{
closed = 1;
nodes = (
"96 139 OFFCURVE",
"114 121 OFFCURVE",
"140 121 CURVE SMOOTH",
"165 121 OFFCURVE",
"184 139 OFFCURVE",
"184 165 CURVE SMOOTH",
"184 190 OFFCURVE",
"165 209 OFFCURVE",
"140 209 CURVE SMOOTH",
"114 209 OFFCURVE",
"96 190 OFFCURVE",
"96 165 CURVE SMOOTH"
);
},
{
closed = 1;
nodes = (
"197 64 OFFCURVE",
"216 44 OFFCURVE",
"242 44 CURVE SMOOTH",
"267 44 OFFCURVE",
"286 64 OFFCURVE",
"286 90 CURVE SMOOTH",
"286 114 OFFCURVE",
"267 134 OFFCURVE",
"242 134 CURVE SMOOTH",
"216 134 OFFCURVE",
"197 114 OFFCURVE",
"197 90 CURVE SMOOTH"
);
},
{
closed = 1;
nodes = (
"324 48 OFFCURVE",
"342 30 OFFCURVE",
"368 30 CURVE SMOOTH",
"394 30 OFFCURVE",
"413 48 OFFCURVE",
"413 74 CURVE SMOOTH",
"413 100 OFFCURVE",
"394 118 OFFCURVE",
"368 118 CURVE SMOOTH",
"342 118 OFFCURVE",
"324 100 OFFCURVE",
"324 74 CURVE SMOOTH"
);
},
{
closed = 1;
nodes = (
"445 101 OFFCURVE",
"464 83 OFFCURVE",
"489 83 CURVE SMOOTH",
"514 83 OFFCURVE",
"534 101 OFFCURVE",
"534 127 CURVE SMOOTH",
"534 152 OFFCURVE",
"514 171 OFFCURVE",
"489 171 CURVE SMOOTH",
"464 171 OFFCURVE",
"445 152 OFFCURVE",
"445 127 CURVE SMOOTH"
);
},
{
closed = 1;
nodes = (
"518 200 OFFCURVE",
"537 181 OFFCURVE",
"563 181 CURVE SMOOTH",
"587 181 OFFCURVE",
"606 200 OFFCURVE",
"606 225 CURVE SMOOTH",
"606 251 OFFCURVE",
"587 270 OFFCURVE",
"563 270 CURVE SMOOTH",
"537 270 OFFCURVE",
"518 251 OFFCURVE",
"518 225 CURVE SMOOTH"
);
},
{
closed = 1;
nodes = (
"528 333 OFFCURVE",
"546 315 OFFCURVE",
"572 315 CURVE SMOOTH",
"597 315 OFFCURVE",
"616 333 OFFCURVE",
"616 359 CURVE SMOOTH",
"616 385 OFFCURVE",
"597 403 OFFCURVE",
"572 403 CURVE SMOOTH",
"546 403 OFFCURVE",
"528 385 OFFCURVE",
"528 359 CURVE SMOOTH"
);
},
{
closed = 1;
nodes = (
"478 452 OFFCURVE",
"497 433 OFFCURVE",
"522 433 CURVE SMOOTH",
"548 433 OFFCURVE",
"566 452 OFFCURVE",
"566 477 CURVE SMOOTH",
"566 503 OFFCURVE",
"548 522 OFFCURVE",
"522 522 CURVE SMOOTH",
"497 522 OFFCURVE",
"478 503 OFFCURVE",
"478 477 CURVE SMOOTH"
);
},
{
closed = 1;
nodes = (
"383 521 OFFCURVE",
"402 501 OFFCURVE",
"428 501 CURVE SMOOTH",
"453 501 OFFCURVE",
"471 521 OFFCURVE",
"471 545 CURVE SMOOTH",
"471 571 OFFCURVE",
"453 590 OFFCURVE",
"428 590 CURVE SMOOTH",
"402 590 OFFCURVE",
"383 571 OFFCURVE",
"383 545 CURVE SMOOTH"
);
},
{
closed = 1;
nodes = (
"257 534 OFFCURVE",
"275 516 OFFCURVE",
"301 516 CURVE SMOOTH",
"327 516 OFFCURVE",
"345 534 OFFCURVE",
"345 560 CURVE SMOOTH",
"345 586 OFFCURVE",
"327 604 OFFCURVE",
"301 604 CURVE SMOOTH",
"275 604 OFFCURVE",
"257 586 OFFCURVE",
"257 560 CURVE SMOOTH"
);
}
);
width = 660;
}
);
unicode = 25CC;
},
{
glyphname = exclam;
layers = (
{
layerId = "D2A65651-33D6-4DD8-B320-C085CF253BF6";
paths = (
{
closed = 1;
nodes = (
"58 622 LINE",
"101 216 LINE",
"294 216 LINE",
"336 622 LINE"
);
},
{
closed = 1;
nodes = (
"70 0 LINE",
"324 0 LINE",
"324 149 LINE",
"70 149 LINE"
);
}
);
width = 394;
},
{
layerId = "B7AC66F4-B7F6-40D5-96E7-A23DEF3F6247";
paths = (
{
closed = 1;
nodes = (
"88 622 LINE",
"104 198 LINE",
"176 198 LINE",
"192 622 LINE"
);
},
{
closed = 1;
nodes = (
"90 0 LINE",
"189 0 LINE",
"189 116 LINE",
"90 116 LINE"
);
}
);
width = 279;
}
);
unicode = 0021;
},
{
glyphname = quotedbl;
layers = (
{
layerId = "D2A65651-33D6-4DD8-B320-C085CF253BF6";
paths = (
{
closed = 1;
nodes = (
"50 622 LINE",
"50 354 LINE",
"265 354 LINE",
"265 622 LINE"
);
},
{
closed = 1;
nodes = (
"335 622 LINE",
"335 354 LINE",
"550 354 LINE",
"550 622 LINE"
);
}
);
width = 600;
},
{
layerId = "B7AC66F4-B7F6-40D5-96E7-A23DEF3F6247";
paths = (
{
closed = 1;
nodes = (
"60 622 LINE",
"60 404 LINE",
"139 404 LINE",
"139 622 LINE"
);
},
{
closed = 1;
nodes = (
"197 622 LINE",
"197 404 LINE",
"276 404 LINE",
"276 622 LINE"
);
}
);
width = 336;
}
);
unicode = 0022;
},
{
glyphname = numbersign;
layers = (
{
layerId = "D2A65651-33D6-4DD8-B320-C085CF253BF6";
paths = (
{
closed = 1;
nodes = (
"303 622 LINE",
"98 0 LINE",
"304 0 LINE",
"507 622 LINE"
);
},
{
closed = 1;
nodes = (
"912 484 LINE",
"107 484 LINE",
"107 377 LINE",
"912 377 LINE"
);
},
{
closed = 1;
nodes = (
"649 0 LINE",
"854 622 LINE",
"648 622 LINE",
"445 0 LINE"
);
},
{
closed = 1;
nodes = (
"40 138 LINE",
"845 138 LINE",
"845 244 LINE",
"40 244 LINE"
);
}
);
width = 952;
},
{
layerId = "B7AC66F4-B7F6-40D5-96E7-A23DEF3F6247";
paths = (
{
closed = 1;
nodes = (
"373 622 LINE",
"168 0 LINE",
"245 0 LINE",
"450 622 LINE"
);
},
{
closed = 1;
nodes = (
"888 459 LINE",
"104 459 LINE",
"104 396 LINE",
"888 396 LINE"
);
},
{
closed = 1;
nodes = (
"593 0 LINE",
"798 622 LINE",
"721 622 LINE",
"516 0 LINE"
);
},
{
closed = 1;
nodes = (
"60 163 LINE",
"844 163 LINE",
"844 226 LINE",
"60 226 LINE"
);
}
);
width = 948;
}
);
unicode = 0023;
},
{
glyphname = dollar;
layers = (
{
layerId = "D2A65651-33D6-4DD8-B320-C085CF253BF6";
paths = (
{
closed = 1;
nodes = (
"469 601 LINE",
"469 714 LINE",
"222 714 LINE",
"222 601 LINE"
);
},
{
closed = 1;
nodes = (
"469 -90 LINE",
"469 23 LINE",
"222 23 LINE",
"222 -90 LINE"
);
},
{
closed = 1;
nodes = (
"403 90 LINE SMOOTH",
"403 64 OFFCURVE",
"398 59 OFFCURVE",
"372 59 CURVE SMOOTH",
"323 59 LINE SMOOTH",
"297 59 OFFCURVE",
"292 64 OFFCURVE",
"292 90 CURVE SMOOTH",
"292 195 LINE",
"45 195 LINE",
"45 79 LINE SMOOTH",
"45 26 OFFCURVE",
"71 0 OFFCURVE",
"124 0 CURVE SMOOTH",
"571 0 LINE SMOOTH",
"624 0 OFFCURVE",
"650 26 OFFCURVE",
"650 79 CURVE SMOOTH",
"650 264 LINE SMOOTH",
"650 317 OFFCURVE",
"624 343 OFFCURVE",
"571 343 CURVE SMOOTH",
"320 343 LINE SMOOTH",
"294 343 OFFCURVE",
"289 348 OFFCURVE",
"289 374 CURVE SMOOTH",
"289 532 LINE SMOOTH",
"289 558 OFFCURVE",
"294 563 OFFCURVE",
"320 563 CURVE SMOOTH",
"369 563 LINE SMOOTH",
"395 563 OFFCURVE",
"400 558 OFFCURVE",
"400 532 CURVE SMOOTH",
"400 427 LINE",
"647 427 LINE",
"647 543 LINE SMOOTH",
"647 596 OFFCURVE",
"621 622 OFFCURVE",
"568 622 CURVE SMOOTH",
"121 622 LINE SMOOTH",
"68 622 OFFCURVE",
"42 596 OFFCURVE",
"42 543 CURVE SMOOTH",
"42 363 LINE SMOOTH",
"42 310 OFFCURVE",
"68 284 OFFCURVE",
"121 284 CURVE SMOOTH",
"372 284 LINE SMOOTH",
"398 284 OFFCURVE",
"403 279 OFFCURVE",
"403 253 CURVE SMOOTH"
);
}
);
width = 695;
},
{
layerId = "B7AC66F4-B7F6-40D5-96E7-A23DEF3F6247";
paths = (
{
closed = 1;
nodes = (
"361 611 LINE",
"361 714 LINE",
"278 714 LINE",
"278 611 LINE"
);
},
{
closed = 1;
nodes = (
"361 -91 LINE",
"361 11 LINE",
"278 11 LINE",
"278 -91 LINE"
);
},
{
closed = 1;
nodes = (
"479 90 LINE",
"479 64 OFFCURVE",
"474 59 OFFCURVE",
"448 59 CURVE SMOOTH",
"199 59 LINE SMOOTH",
"173 59 OFFCURVE",
"168 64 OFFCURVE",
"168 90 CURVE SMOOTH",
"168 178 LINE",
"80 178 LINE",
"80 79 LINE SMOOTH",
"80 26 OFFCURVE",
"106 0 OFFCURVE",
"159 0 CURVE SMOOTH",
"487 0 LINE SMOOTH",
"540 0 OFFCURVE",
"566 26 OFFCURVE",
"566 79 CURVE SMOOTH",
"566 264 LINE SMOOTH",
"566 317 OFFCURVE",
"540 343 OFFCURVE",
"487 343 CURVE SMOOTH",
"197 343 LINE SMOOTH",
"171 343 OFFCURVE",
"166 348 OFFCURVE",
"166 374 CURVE SMOOTH",
"166 532 LINE SMOOTH",
"166 558 OFFCURVE",
"171 563 OFFCURVE",
"197 563 CURVE SMOOTH",
"444 563 LINE SMOOTH",
"470 563 OFFCURVE",
"475 558 OFFCURVE",
"475 532 CURVE SMOOTH",
"475 444 LINE",
"563 444 LINE",
"563 543 LINE SMOOTH",
"563 596 OFFCURVE",
"537 622 OFFCURVE",
"484 622 CURVE SMOOTH",
"157 622 LINE SMOOTH",
"104 622 OFFCURVE",
"78 596 OFFCURVE",
"78 543 CURVE SMOOTH",
"78 363 LINE SMOOTH",
"78 310 OFFCURVE",
"104 284 OFFCURVE",
"157 284 CURVE SMOOTH",
"448 284 LINE SMOOTH",
"474 284 OFFCURVE",
"479 279 OFFCURVE",
"479 253 CURVE SMOOTH"
);
}
);
width = 646;
}
);
unicode = 0024;
},
{
glyphname = percent;
layers = (
{
layerId = "D2A65651-33D6-4DD8-B320-C085CF253BF6";
paths = (
{
closed = 1;
nodes = (
"1234 325 LINE SMOOTH",
"1234 357 OFFCURVE",
"1218 373 OFFCURVE",
"1186 373 CURVE SMOOTH",
"830 373 LINE SMOOTH",
"798 373 OFFCURVE",
"782 357 OFFCURVE",
"782 325 CURVE SMOOTH",
"782 50 LINE SMOOTH",
"782 18 OFFCURVE",
"798 2 OFFCURVE",
"830 2 CURVE SMOOTH",
"1186 2 LINE SMOOTH",
"1218 2 OFFCURVE",
"1234 18 OFFCURVE",
"1234 50 CURVE SMOOTH"
);
},
{
closed = 1;
nodes = (
"1051 66 LINE SMOOTH",
"1051 51 OFFCURVE",
"1048 48 OFFCURVE",
"1032 48 CURVE SMOOTH",
"984 48 LINE SMOOTH",
"969 48 OFFCURVE",
"966 51 OFFCURVE",
"966 66 CURVE SMOOTH",
"966 309 LINE SMOOTH",
"966 324 OFFCURVE",
"969 327 OFFCURVE",
"984 327 CURVE SMOOTH",
"1032 327 LINE SMOOTH",
"1048 327 OFFCURVE",
"1051 324 OFFCURVE",
"1051 309 CURVE SMOOTH"
);
},
{
closed = 1;
nodes = (
"777 622 LINE",
"308 0 LINE",
"484 0 LINE",
"956 622 LINE"
);
},
{
closed = 1;
nodes = (
"482 574 LINE SMOOTH",
"482 606 OFFCURVE",
"466 622 OFFCURVE",
"434 622 CURVE SMOOTH",
"78 622 LINE SMOOTH",
"46 622 OFFCURVE",
"30 606 OFFCURVE",
"30 574 CURVE SMOOTH",
"30 299 LINE SMOOTH",
"30 267 OFFCURVE",
"46 251 OFFCURVE",
"78 251 CURVE SMOOTH",
"434 251 LINE SMOOTH",
"466 251 OFFCURVE",
"482 267 OFFCURVE",
"482 299 CURVE SMOOTH"
);
},
{
closed = 1;
nodes = (
"299 315 LINE SMOOTH",
"299 300 OFFCURVE",
"296 297 OFFCURVE",
"280 297 CURVE SMOOTH",
"232 297 LINE SMOOTH",
"217 297 OFFCURVE",
"214 300 OFFCURVE",
"214 315 CURVE SMOOTH",
"214 558 LINE SMOOTH",
"214 573 OFFCURVE",
"217 576 OFFCURVE",
"232 576 CURVE SMOOTH",
"280 576 LINE SMOOTH",
"296 576 OFFCURVE",
"299 573 OFFCURVE",
"299 558 CURVE SMOOTH"
);
}
);
width = 1264;
},
{
layerId = "B7AC66F4-B7F6-40D5-96E7-A23DEF3F6247";
paths = (
{
closed = 1;
nodes = (
"1015 262 LINE",
"1015 309 OFFCURVE",
"995 331 OFFCURVE",
"950 331 CURVE SMOOTH",
"728 331 LINE SMOOTH",
"684 331 OFFCURVE",
"663 309 OFFCURVE",
"663 262 CURVE SMOOTH",
"663 69 LINE SMOOTH",
"663 22 OFFCURVE",
"684 0 OFFCURVE",
"728 0 CURVE SMOOTH",
"950 0 LINE SMOOTH",
"995 0 OFFCURVE",
"1015 22 OFFCURVE",
"1015 69 CURVE SMOOTH"
);
},
{
closed = 1;
nodes = (
"945 81 LINE",
"945 57 OFFCURVE",
"942 52 OFFCURVE",
"918 52 CURVE SMOOTH",
"761 52 LINE SMOOTH",
"737 52 OFFCURVE",
"734 57 OFFCURVE",
"734 81 CURVE SMOOTH",
"734 250 LINE SMOOTH",
"734 274 OFFCURVE",
"737 279 OFFCURVE",
"761 279 CURVE SMOOTH",
"918 279 LINE SMOOTH",
"942 279 OFFCURVE",
"945 274 OFFCURVE",
"945 250 CURVE SMOOTH"
);
},
{
closed = 1;
nodes = (
"728 622 LINE",
"262 0 LINE",
"343 0 LINE",
"810 622 LINE"
);
},
{
closed = 1;
nodes = (
"412 552 LINE",
"412 599 OFFCURVE",
"392 621 OFFCURVE",
"347 621 CURVE SMOOTH",
"125 621 LINE SMOOTH",
"81 621 OFFCURVE",
"60 599 OFFCURVE",
"60 552 CURVE SMOOTH",
"60 359 LINE SMOOTH",
"60 312 OFFCURVE",
"81 290 OFFCURVE",
"125 290 CURVE SMOOTH",
"347 290 LINE SMOOTH",
"392 290 OFFCURVE",
"412 312 OFFCURVE",
"412 359 CURVE SMOOTH"
);
},
{
closed = 1;
nodes = (
"342 371 LINE",
"342 347 OFFCURVE",
"339 342 OFFCURVE",
"315 342 CURVE SMOOTH",
"158 342 LINE SMOOTH",
"134 342 OFFCURVE",
"131 347 OFFCURVE",
"131 371 CURVE SMOOTH",
"131 540 LINE SMOOTH",
"131 564 OFFCURVE",
"134 569 OFFCURVE",
"158 569 CURVE SMOOTH",
"315 569 LINE SMOOTH",
"339 569 OFFCURVE",
"342 564 OFFCURVE",
"342 540 CURVE SMOOTH"
);
}
);
width = 1075;
}
);
unicode = 0025;
},
{
glyphname = ampersand;
layers = (
{
layerId = "D2A65651-33D6-4DD8-B320-C085CF253BF6";
paths = (
{
closed = 1;
nodes = (
"878 -45 LINE",
"450 315 LINE SMOOTH",
"363 388 OFFCURVE",
"343 404 OFFCURVE",
"343 452 CURVE SMOOTH",
"343 532 LINE SMOOTH",
"343 558 OFFCURVE",
"348 563 OFFCURVE",
"374 563 CURVE SMOOTH",
"415 563 LINE SMOOTH",
"441 563 OFFCURVE",
"446 558 OFFCURVE",
"446 532 CURVE SMOOTH",
"446 413 LINE SMOOTH",
"446 388 OFFCURVE",
"423 377 OFFCURVE",
"374 360 CURVE SMOOTH",
"178 291 LINE SMOOTH",
"78 256 OFFCURVE",
"45 232 OFFCURVE",
"45 166 CURVE SMOOTH",
"45 79 LINE SMOOTH",
"45 26 OFFCURVE",
"71 0 OFFCURVE",
"124 0 CURVE SMOOTH",
"753 0 LINE SMOOTH",
"816 0 OFFCURVE",
"852 36 OFFCURVE",
"852 99 CURVE SMOOTH",
"852 243 LINE",
"657 243 LINE",
"657 90 LINE SMOOTH",
"657 64 OFFCURVE",
"652 59 OFFCURVE",
"626 59 CURVE SMOOTH",
"316 59 LINE SMOOTH",
"290 59 OFFCURVE",
"285 64 OFFCURVE",
"285 90 CURVE SMOOTH",
"285 183 LINE SMOOTH",
"285 203 OFFCURVE",
"296 212 OFFCURVE",
"317 220 CURVE SMOOTH",
"530 299 LINE SMOOTH",
"627 335 OFFCURVE",
"686 364 OFFCURVE",
"686 441 CURVE SMOOTH",
"686 543 LINE SMOOTH",
"686 596 OFFCURVE",
"660 622 OFFCURVE",
"607 622 CURVE SMOOTH",
"182 622 LINE SMOOTH",
"129 622 OFFCURVE",
"103 596 OFFCURVE",
"103 543 CURVE SMOOTH",
"103 449 LINE SMOOTH",
"103 380 OFFCURVE",
"134 355 OFFCURVE",
"222 280 CURVE SMOOTH",
"603 -45 LINE"
);
}
);
width = 892;
},
{
layerId = "B7AC66F4-B7F6-40D5-96E7-A23DEF3F6247";
paths = (
{
closed = 1;
nodes = (
"799 -45 LINE",
"339 339 LINE SMOOTH",
"281 387 OFFCURVE",
"249 406 OFFCURVE",
"249 453 CURVE SMOOTH",
"249 532 LINE SMOOTH",
"249 558 OFFCURVE",
"254 563 OFFCURVE",
"280 563 CURVE SMOOTH",
"501 563 LINE SMOOTH",
"527 563 OFFCURVE",
"532 558 OFFCURVE",
"532 532 CURVE SMOOTH",
"532 451 LINE SMOOTH",
"532 409 OFFCURVE",
"517 390 OFFCURVE",
"473 374 CURVE SMOOTH",
"147 254 LINE SMOOTH",
"98 236 OFFCURVE",
"80 214 OFFCURVE",
"80 162 CURVE SMOOTH",
"80 79 LINE SMOOTH",
"80 26 OFFCURVE",
"106 0 OFFCURVE",
"159 0 CURVE SMOOTH",
"695 0 LINE SMOOTH",
"749 0 OFFCURVE",
"776 27 OFFCURVE",
"776 81 CURVE SMOOTH",
"776 226 LINE",
"706 226 LINE",
"706 90 LINE SMOOTH",
"706 64 OFFCURVE",
"701 59 OFFCURVE",
"675 59 CURVE SMOOTH",
"196 59 LINE SMOOTH",
"170 59 OFFCURVE",
"165 64 OFFCURVE",
"165 90 CURVE SMOOTH",
"165 146 LINE SMOOTH",
"165 179 OFFCURVE",
"174 196 OFFCURVE",
"209 209 CURVE SMOOTH",
"539 330 LINE SMOOTH",
"594 350 OFFCURVE",
"617 383 OFFCURVE",
"617 454 CURVE SMOOTH",
"617 543 LINE SMOOTH",
"617 596 OFFCURVE",
"591 622 OFFCURVE",
"538 622 CURVE SMOOTH",
"243 622 LINE SMOOTH",
"190 622 OFFCURVE",
"164 596 OFFCURVE",
"164 543 CURVE SMOOTH",
"164 441 LINE SMOOTH",
"164 384 OFFCURVE",
"206 357 OFFCURVE",
"259 314 CURVE SMOOTH",
"694 -45 LINE"
);
}
);
width = 836;
}
);
unicode = 0026;
},
{
glyphname = quotesingle;
layers = (
{
layerId = "D2A65651-33D6-4DD8-B320-C085CF253BF6";
paths = (
{
closed = 1;
nodes = (
"50 622 LINE",
"50 354 LINE",
"265 354 LINE",
"265 622 LINE"
);
}
);
width = 315;
},
{
layerId = "B7AC66F4-B7F6-40D5-96E7-A23DEF3F6247";
paths = (
{
closed = 1;
nodes = (
"60 622 LINE",
"60 404 LINE",
"144 404 LINE",
"144 622 LINE"
);
}
);
width = 204;
}
);
unicode = 0027;
},
{
glyphname = parenleft;
layers = (
{
layerId = "D2A65651-33D6-4DD8-B320-C085CF253BF6";
paths = (
{
closed = 1;
nodes = (
"50 411 LINE SMOOTH",
"50 605 OFFCURVE",
"186 719 OFFCURVE",
"411 719 CURVE SMOOTH",
"455 719 LINE",
"455 660 LINE",
"442 660 LINE SMOOTH",
"338 660 OFFCURVE",
"304 574 OFFCURVE",
"304 459 CURVE SMOOTH",
"304 40 LINE SMOOTH",
"304 -75 OFFCURVE",
"338 -161 OFFCURVE",
"442 -161 CURVE SMOOTH",
"455 -161 LINE",
"455 -220 LINE",
"411 -220 LINE SMOOTH",
"186 -220 OFFCURVE",
"50 -106 OFFCURVE",
"50 88 CURVE SMOOTH"
);
}
);
width = 394;
},
{
layerId = "B7AC66F4-B7F6-40D5-96E7-A23DEF3F6247";
paths = (
{
closed = 1;
nodes = (
"100 342 LINE",
"100 618 OFFCURVE",
"200 717 OFFCURVE",
"352 717 CURVE SMOOTH",
"386 717 LINE",
"386 658 LINE",
"356 658 LINE",
"246 651 OFFCURVE",
"186 555 OFFCURVE",
"186 348 CURVE SMOOTH",
"186 150 LINE SMOOTH",
"186 -58 OFFCURVE",
"246 -153 OFFCURVE",
"356 -160 CURVE",
"386 -160 LINE",
"386 -219 LINE",
"352 -219 LINE SMOOTH",
"200 -219 OFFCURVE",
"100 -120 OFFCURVE",
"100 156 CURVE SMOOTH"
);
}
);
width = 336;
}
);
unicode = 0028;
},
{
glyphname = parenright;
layers = (
{
layerId = "D2A65651-33D6-4DD8-B320-C085CF253BF6";
paths = (
{
closed = 1;
nodes = (
"344 88 LINE SMOOTH",
"344 -106 OFFCURVE",
"208 -220 OFFCURVE",
"-17 -220 CURVE SMOOTH",
"-61 -220 LINE",
"-61 -161 LINE",
"-48 -161 LINE SMOOTH",
"56 -161 OFFCURVE",
"90 -75 OFFCURVE",
"90 40 CURVE SMOOTH",
"90 459 LINE SMOOTH",
"90 574 OFFCURVE",
"56 660 OFFCURVE",
"-48 660 CURVE SMOOTH",
"-61 660 LINE",
"-61 719 LINE",
"-17 719 LINE SMOOTH",
"208 719 OFFCURVE",
"344 605 OFFCURVE",
"344 411 CURVE SMOOTH"
);
}
);
width = 394;
},
{
layerId = "B7AC66F4-B7F6-40D5-96E7-A23DEF3F6247";
paths = (
{
closed = 1;
nodes = (
"236 156 LINE",
"236 -120 OFFCURVE",
"136 -219 OFFCURVE",
"-16 -219 CURVE SMOOTH",
"-50 -219 LINE",
"-50 -160 LINE",
"-20 -160 LINE",
"90 -153 OFFCURVE",
"150 -58 OFFCURVE",
"150 150 CURVE SMOOTH",
"150 348 LINE SMOOTH",
"150 555 OFFCURVE",
"90 651 OFFCURVE",
"-20 658 CURVE",
"-50 658 LINE",
"-50 717 LINE",
"-16 717 LINE SMOOTH",
"136 717 OFFCURVE",
"236 618 OFFCURVE",
"236 342 CURVE SMOOTH"
);
}
);
width = 336;
}
);
unicode = 0029;
},
{
glyphname = asterisk;
layers = (
{
layerId = "D2A65651-33D6-4DD8-B320-C085CF253BF6";
paths = (
{
closed = 1;
nodes = (
"229 669 LINE",
"229 610 LINE SMOOTH",
"229 576 OFFCURVE",
"237 542 OFFCURVE",
"248 512 CURVE",
"222 534 OFFCURVE",
"191 555 OFFCURVE",
"158 566 CURVE SMOOTH",
"102 584 LINE",
"48 418 LINE",
"104 400 LINE SMOOTH",
"136 389 OFFCURVE",
"172 387 OFFCURVE",
"204 387 CURVE",
"175 370 OFFCURVE",
"145 347 OFFCURVE",
"124 319 CURVE SMOOTH",
"89 271 LINE",
"231 169 LINE",
"265 216 LINE SMOOTH",
"285 244 OFFCURVE",
"299 277 OFFCURVE",
"308 307 CURVE",
"315 275 OFFCURVE",
"328 239 OFFCURVE",
"348 210 CURVE",
"383 162 LINE",
"524 266 LINE",
"490 313 LINE SMOOTH",
"470 340 OFFCURVE",
"443 363 OFFCURVE",
"417 381 CURVE",
"450 378 OFFCURVE",
"487 379 OFFCURVE",
"521 390 CURVE SMOOTH",
"578 408 LINE",
"522 574 LINE",
"467 556 LINE SMOOTH",
"435 545 OFFCURVE",
"405 527 OFFCURVE",
"380 508 CURVE",
"393 539 OFFCURVE",
"403 574 OFFCURVE",
"403 610 CURVE SMOOTH",
"403 669 LINE"
);
}
);
width = 622;
},
{
layerId = "B7AC66F4-B7F6-40D5-96E7-A23DEF3F6247";
paths = (
{
closed = 1;
nodes = (
"191 649 LINE",
"191 584 LINE SMOOTH",
"191 560 OFFCURVE",
"194 539 OFFCURVE",
"198 523 CURVE",
"183 532 OFFCURVE",
"164 541 OFFCURVE",
"141 549 CURVE SMOOTH",
"80 569 LINE",
"57 499 LINE",
"119 479 LINE SMOOTH",
"139 473 OFFCURVE",
"159 468 OFFCURVE",
"179 467 CURVE",
"166 456 OFFCURVE",
"151 441 OFFCURVE",
"137 421 CURVE SMOOTH",
"99 369 LINE",
"158 326 LINE",
"196 378 LINE SMOOTH",
"210 398 OFFCURVE",
"220 417 OFFCURVE",
"226 432 CURVE",
"233 417 OFFCURVE",
"243 398 OFFCURVE",
"257 378 CURVE SMOOTH",
"295 325 LINE",
"354 368 LINE",
"316 420 LINE SMOOTH",
"302 440 OFFCURVE",
"287 455 OFFCURVE",
"275 466 CURVE",
"291 467 OFFCURVE",
"312 470 OFFCURVE",
"335 478 CURVE SMOOTH",
"397 498 LINE",
"375 568 LINE",
"313 547 LINE SMOOTH",
"290 539 OFFCURVE",
"271 530 OFFCURVE",
"257 521 CURVE",
"261 538 OFFCURVE",
"264 559 OFFCURVE",
"264 584 CURVE SMOOTH",
"264 649 LINE"
);
}
);
width = 454;
}
);
unicode = 002A;
},
{
glyphname = plus;
layers = (
{
layerId = "D2A65651-33D6-4DD8-B320-C085CF253BF6";
paths = (
{
closed = 1;
nodes = (
"50 239 LINE",
"711 239 LINE",
"711 380 LINE",
"50 380 LINE"
);
},
{
closed = 1;
nodes = (
"266 520 LINE",
"266 99 LINE",
"496 99 LINE",
"496 520 LINE"
);
}
);
width = 761;
},
{
layerId = "B7AC66F4-B7F6-40D5-96E7-A23DEF3F6247";
paths = (
{
closed = 1;
nodes = (
"60 277 LINE",
"580 277 LINE",
"580 345 LINE",
"60 345 LINE"
);
},
{
closed = 1;
nodes = (
"277 504 LINE",
"277 118 LINE",
"363 118 LINE",
"363 504 LINE"
);
}
);
width = 640;
}
);
unicode = 002B;
},
{
glyphname = comma;
layers = (
{
layerId = "D2A65651-33D6-4DD8-B320-C085CF253BF6";
paths = (
{
closed = 1;
nodes = (
"55 169 LINE",
"309 169 LINE",
"309 72 LINE",
"139 -141 LINE",
"55 -141 LINE"
);
}
);
width = 359;
},
{
layerId = "B7AC66F4-B7F6-40D5-96E7-A23DEF3F6247";
paths = (
{
closed = 1;
nodes = (
"60 118 LINE",
"159 118 LINE",
"159 56 LINE",
"93 -137 LINE",
"60 -137 LINE"
);
}
);
width = 209;
}
);
unicode = 002C;
},
{
glyphname = hyphen;
layers = (
{
layerId = "D2A65651-33D6-4DD8-B320-C085CF253BF6";
paths = (
{
closed = 1;
nodes = (
"55 242 LINE",
"395 242 LINE",
"395 301 LINE",
"55 301 LINE"
);
}
);
width = 450;
},
{
layerId = "B7AC66F4-B7F6-40D5-96E7-A23DEF3F6247";
paths = (
{
closed = 1;
nodes = (
"60 242 LINE",
"340 242 LINE",
"340 301 LINE",
"60 301 LINE"
);
}
);
width = 400;
}
);
unicode = 002D;
},
{
glyphname = period;
layers = (
{
layerId = "D2A65651-33D6-4DD8-B320-C085CF253BF6";
paths = (
{
closed = 1;
nodes = (
"55 0 LINE",
"309 0 LINE",
"309 149 LINE",
"55 149 LINE"
);
}
);
width = 364;
},
{
layerId = "B7AC66F4-B7F6-40D5-96E7-A23DEF3F6247";
paths = (
{
closed = 1;
nodes = (
"60 0 LINE",
"159 0 LINE",
"159 116 LINE",
"60 116 LINE"
);
}
);
width = 219;
}
);
unicode = 002E;
},
{
glyphname = slash;
layers = (
{
layerId = "D2A65651-33D6-4DD8-B320-C085CF253BF6";
paths = (
{
closed = 1;
nodes = (
"401 699 LINE",
"-30 -136 LINE",
"173 -136 LINE",
"604 699 LINE"
);
}
);
width = 544;
},
{
layerId = "B7AC66F4-B7F6-40D5-96E7-A23DEF3F6247";
paths = (
{
closed = 1;
nodes = (
"390 699 LINE",
"-21 -136 LINE",
"66 -136 LINE",
"477 699 LINE"
);
}
);
width = 386;
}
);
unicode = 002F;
},
{
glyphname = zero;
layers = (
{
layerId = "D2A65651-33D6-4DD8-B320-C085CF253BF6";
paths = (
{
closed = 1;
nodes = (
"672 543 LINE SMOOTH",
"672 596 OFFCURVE",
"646 622 OFFCURVE",
"593 622 CURVE SMOOTH",
"134 622 LINE SMOOTH",
"81 622 OFFCURVE",
"55 596 OFFCURVE",
"55 543 CURVE SMOOTH",
"55 79 LINE SMOOTH",
"55 26 OFFCURVE",
"81 0 OFFCURVE",
"134 0 CURVE SMOOTH",
"593 0 LINE SMOOTH",
"646 0 OFFCURVE",
"672 26 OFFCURVE",
"672 79 CURVE SMOOTH"
);
},
{
closed = 1;
nodes = (
"418 90 LINE SMOOTH",
"418 64 OFFCURVE",
"413 59 OFFCURVE",
"387 59 CURVE SMOOTH",
"341 59 LINE SMOOTH",
"315 59 OFFCURVE",
"310 64 OFFCURVE",
"310 90 CURVE SMOOTH",
"310 532 LINE SMOOTH",
"310 558 OFFCURVE",
"315 563 OFFCURVE",
"341 563 CURVE SMOOTH",
"387 563 LINE SMOOTH",
"413 563 OFFCURVE",
"418 558 OFFCURVE",
"418 532 CURVE SMOOTH"
);
}
);
width = 727;
},
{
layerId = "B7AC66F4-B7F6-40D5-96E7-A23DEF3F6247";
paths = (
{
closed = 1;
nodes = (
"587 543 LINE",
"587 596 OFFCURVE",
"561 622 OFFCURVE",
"508 622 CURVE SMOOTH",
"169 622 LINE SMOOTH",
"116 622 OFFCURVE",
"90 596 OFFCURVE",
"90 543 CURVE SMOOTH",
"90 79 LINE SMOOTH",
"90 26 OFFCURVE",
"116 0 OFFCURVE",
"169 0 CURVE SMOOTH",
"508 0 LINE SMOOTH",
"561 0 OFFCURVE",
"587 26 OFFCURVE",
"587 79 CURVE SMOOTH"
);
},
{
closed = 1;
nodes = (
"500 90 LINE",
"500 64 OFFCURVE",
"495 59 OFFCURVE",
"469 59 CURVE SMOOTH",
"209 59 LINE SMOOTH",
"183 59 OFFCURVE",
"178 64 OFFCURVE",
"178 90 CURVE SMOOTH",
"178 532 LINE SMOOTH",
"178 558 OFFCURVE",
"183 563 OFFCURVE",
"209 563 CURVE SMOOTH",
"469 563 LINE SMOOTH",
"495 563 OFFCURVE",
"500 558 OFFCURVE",
"500 532 CURVE SMOOTH"
);
}
);
width = 677;
}
);
unicode = 0030;
},
{
glyphname = one;
layers = (
{
layerId = "D2A65651-33D6-4DD8-B320-C085CF253BF6";
paths = (
{
closed = 1;
nodes = (
"301 622 LINE",
"10 622 LINE",
"10 563 LINE",
"301 563 LINE"
);
},
{
closed = 1;
nodes = (
"137 622 LINE",
"137 0 LINE",
"401 0 LINE",
"401 622 LINE"
);
}
);
width = 456;
},
{
layerId = "B7AC66F4-B7F6-40D5-96E7-A23DEF3F6247";
paths = (
{
closed = 1;
nodes = (
"197 622 LINE",
"30 622 LINE",
"30 563 LINE",
"197 563 LINE"
);
},
{
closed = 1;
nodes = (
"156 622 LINE",
"156 0 LINE",
"244 0 LINE",
"244 622 LINE"
);
}
);
width = 334;
}
);
unicode = 0031;
},
{
glyphname = two;
layers = (
{
layerId = "D2A65651-33D6-4DD8-B320-C085CF253BF6";
paths = (
{
closed = 1;
nodes = (
"300 532 LINE SMOOTH",
"300 558 OFFCURVE",
"305 563 OFFCURVE",
"331 563 CURVE SMOOTH",
"370 563 LINE SMOOTH",
"396 563 OFFCURVE",
"401 558 OFFCURVE",
"401 532 CURVE SMOOTH",
"401 430 LINE SMOOTH",
"401 394 OFFCURVE",
"392 378 OFFCURVE",
"354 344 CURVE SMOOTH",
"40 60 LINE",
"40 0 LINE",
"656 0 LINE",
"656 59 LINE",
"365 59 LINE",
"587 257 LINE SMOOTH",
"637 301 OFFCURVE",
"653 333 OFFCURVE",
"653 431 CURVE SMOOTH",
"653 543 LINE SMOOTH",
"653 596 OFFCURVE",
"627 622 OFFCURVE",
"574 622 CURVE SMOOTH",
"122 622 LINE SMOOTH",
"69 622 OFFCURVE",
"43 596 OFFCURVE",
"43 543 CURVE SMOOTH",
"43 409 LINE",
"300 409 LINE"
);
}
);
width = 686;
},
{
layerId = "B7AC66F4-B7F6-40D5-96E7-A23DEF3F6247";
paths = (
{
closed = 1;
nodes = (
"147 532 LINE",
"147 558 OFFCURVE",
"152 563 OFFCURVE",
"178 563 CURVE SMOOTH",
"435 563 LINE SMOOTH",
"461 563 OFFCURVE",
"466 558 OFFCURVE",
"466 532 CURVE SMOOTH",
"466 502 LINE SMOOTH",
"466 441 OFFCURVE",
"444 409 OFFCURVE",
"402 370 CURVE SMOOTH",
"61 58 LINE",
"61 0 LINE",
"558 0 LINE",
"558 59 LINE",
"181 59 LINE",
"493 345 LINE SMOOTH",
"546 394 OFFCURVE",
"554 427 OFFCURVE",
"554 498 CURVE SMOOTH",
"554 543 LINE SMOOTH",
"554 596 OFFCURVE",
"528 622 OFFCURVE",
"475 622 CURVE SMOOTH",
"139 622 LINE SMOOTH",
"86 622 OFFCURVE",
"60 596 OFFCURVE",
"60 543 CURVE SMOOTH",
"60 410 LINE",
"147 410 LINE"
);
}
);
width = 618;
}
);
unicode = 0032;
},
{
glyphname = three;
layers = (
{
layerId = "D2A65651-33D6-4DD8-B320-C085CF253BF6";
paths = (
{
closed = 1;
nodes = (
"295 532 LINE SMOOTH",
"295 558 OFFCURVE",
"300 563 OFFCURVE",
"326 563 CURVE SMOOTH",
"372 563 LINE SMOOTH",
"398 563 OFFCURVE",
"403 558 OFFCURVE",
"403 532 CURVE SMOOTH",
"403 376 LINE SMOOTH",
"403 350 OFFCURVE",
"398 345 OFFCURVE",
"372 345 CURVE SMOOTH",
"283 345 LINE",
"283 285 LINE",
"372 285 LINE SMOOTH",
"398 285 OFFCURVE",
"403 280 OFFCURVE",
"403 254 CURVE SMOOTH",
"403 90 LINE SMOOTH",
"403 64 OFFCURVE",
"398 59 OFFCURVE",
"372 59 CURVE SMOOTH",
"326 59 LINE SMOOTH",
"300 59 OFFCURVE",
"295 64 OFFCURVE",
"295 90 CURVE SMOOTH",
"295 202 LINE",
"40 202 LINE",
"40 79 LINE SMOOTH",
"40 26 OFFCURVE",
"66 0 OFFCURVE",
"119 0 CURVE SMOOTH",
"578 0 LINE SMOOTH",
"631 0 OFFCURVE",
"657 26 OFFCURVE",
"657 79 CURVE SMOOTH",
"657 240 LINE SMOOTH",
"657 290 OFFCURVE",
"633 316 OFFCURVE",
"585 319 CURVE",
"633 321 OFFCURVE",
"657 347 OFFCURVE",
"657 398 CURVE SMOOTH",
"657 543 LINE SMOOTH",
"657 596 OFFCURVE",
"631 622 OFFCURVE",
"578 622 CURVE SMOOTH",
"119 622 LINE SMOOTH",
"66 622 OFFCURVE",
"40 596 OFFCURVE",
"40 543 CURVE SMOOTH",
"40 419 LINE",
"295 419 LINE"
);
}
);
width = 707;
},
{
layerId = "B7AC66F4-B7F6-40D5-96E7-A23DEF3F6247";
paths = (
{
closed = 1;
nodes = (
"167 532 LINE",
"167 558 OFFCURVE",
"172 563 OFFCURVE",
"198 563 CURVE SMOOTH",
"458 563 LINE SMOOTH",
"484 563 OFFCURVE",
"489 558 OFFCURVE",
"489 532 CURVE SMOOTH",
"489 376 LINE SMOOTH",
"489 350 OFFCURVE",
"484 345 OFFCURVE",
"458 345 CURVE SMOOTH",
"272 345 LINE",
"272 285 LINE",
"458 285 LINE SMOOTH",
"484 285 OFFCURVE",
"489 280 OFFCURVE",
"489 254 CURVE SMOOTH",
"489 90 LINE SMOOTH",
"489 64 OFFCURVE",
"484 59 OFFCURVE",
"458 59 CURVE SMOOTH",
"198 59 LINE SMOOTH",
"172 59 OFFCURVE",
"167 64 OFFCURVE",
"167 90 CURVE SMOOTH",
"167 192 LINE",
"80 192 LINE",
"80 79 LINE SMOOTH",
"80 26 OFFCURVE",
"106 0 OFFCURVE",
"159 0 CURVE SMOOTH",
"497 0 LINE SMOOTH",
"550 0 OFFCURVE",
"576 26 OFFCURVE",
"576 79 CURVE SMOOTH",
"576 266 LINE SMOOTH",
"576 297 OFFCURVE",
"561 312 OFFCURVE",
"535 316 CURVE",
"561 318 OFFCURVE",
"576 336 OFFCURVE",
"576 367 CURVE SMOOTH",
"576 543 LINE SMOOTH",
"576 596 OFFCURVE",
"550 622 OFFCURVE",
"497 622 CURVE SMOOTH",
"159 622 LINE SMOOTH",
"106 622 OFFCURVE",
"80 596 OFFCURVE",
"80 543 CURVE SMOOTH",
"80 429 LINE",
"167 429 LINE"
);
}
);
width = 656;
}
);
unicode = 0033;
},
{
glyphname = four;
layers = (
{
layerId = "D2A65651-33D6-4DD8-B320-C085CF253BF6";
paths = (
{
closed = 1;
nodes = (
"86 101 LINE",
"721 101 LINE",
"721 160 LINE",
"86 160 LINE"
);
},
{
closed = 1;
nodes = (
"20 101 LINE",
"229 101 LINE",
"538 622 LINE",
"280 622 LINE",
"20 202 LINE"
);
},
{
closed = 1;
nodes = (
"394 328 LINE",
"394 0 LINE",
"634 0 LINE",
"634 328 LINE"
);
}
);
width = 731;
},
{
layerId = "B7AC66F4-B7F6-40D5-96E7-A23DEF3F6247";
paths = (
{
closed = 1;
nodes = (
"77 101 LINE",
"631 101 LINE",
"631 160 LINE",
"77 160 LINE"
);
},
{
closed = 1;
nodes = (
"40 101 LINE",
"100 101 LINE",
"428 622 LINE",
"335 622 LINE",
"40 159 LINE"
);
},
{
closed = 1;
nodes = (
"431 328 LINE",
"431 0 LINE",
"514 0 LINE",
"514 328 LINE"
);
}
);
width = 651;
}
);
unicode = 0034;
},
{
glyphname = five;
layers = (
{
layerId = "D2A65651-33D6-4DD8-B320-C085CF253BF6";
paths = (
{
closed = 1;
nodes = (
"304 218 LINE",
"50 218 LINE",
"50 79 LINE SMOOTH",
"50 26 OFFCURVE",
"76 0 OFFCURVE",
"129 0 CURVE SMOOTH",
"575 0 LINE SMOOTH",
"628 0 OFFCURVE",
"654 26 OFFCURVE",
"654 79 CURVE SMOOTH",
"654 300 LINE SMOOTH",
"654 353 OFFCURVE",
"628 379 OFFCURVE",
"575 379 CURVE SMOOTH",
"261 379 LINE",
"261 320 LINE",
"369 320 LINE SMOOTH",
"395 320 OFFCURVE",
"400 315 OFFCURVE",
"400 289 CURVE SMOOTH",
"400 90 LINE SMOOTH",
"400 64 OFFCURVE",
"395 59 OFFCURVE",
"369 59 CURVE SMOOTH",
"335 59 LINE SMOOTH",
"309 59 OFFCURVE",
"304 64 OFFCURVE",
"304 90 CURVE SMOOTH"
);
},
{
closed = 1;
nodes = (
"326 320 LINE",
"326 563 LINE",
"640 563 LINE",
"640 622 LINE",
"62 622 LINE",
"62 320 LINE"
);
}
);
width = 694;
},
{
layerId = "B7AC66F4-B7F6-40D5-96E7-A23DEF3F6247";
paths = (
{
closed = 1;
nodes = (
"178 195 LINE",
"90 195 LINE",
"90 79 LINE SMOOTH",
"90 26 OFFCURVE",
"116 0 OFFCURVE",
"169 0 CURVE SMOOTH",
"495 0 LINE SMOOTH",
"548 0 OFFCURVE",
"574 26 OFFCURVE",
"574 79 CURVE SMOOTH",
"574 300 LINE SMOOTH",
"574 353 OFFCURVE",
"548 379 OFFCURVE",
"495 379 CURVE SMOOTH",
"150 379 LINE",
"150 320 LINE",
"456 320 LINE SMOOTH",
"482 320 OFFCURVE",
"487 315 OFFCURVE",
"487 289 CURVE SMOOTH",
"487 90 LINE SMOOTH",
"487 64 OFFCURVE",
"482 59 OFFCURVE",
"456 59 CURVE SMOOTH",
"209 59 LINE SMOOTH",
"183 59 OFFCURVE",
"178 64 OFFCURVE",
"178 90 CURVE SMOOTH"
);
},
{
closed = 1;
nodes = (
"180 320 LINE",
"180 563 LINE",
"565 563 LINE",
"565 622 LINE",
"91 622 LINE",
"91 320 LINE"
);
}
);
width = 634;
}
);
unicode = 0035;
},
{
glyphname = six;
layers = (
{
layerId = "D2A65651-33D6-4DD8-B320-C085CF253BF6";
paths = (
{
closed = 1;
nodes = (
"403 222 LINE",
"403 90 LINE SMOOTH",
"403 64 OFFCURVE",
"398 59 OFFCURVE",
"372 59 CURVE SMOOTH",
"341 59 LINE SMOOTH",
"315 59 OFFCURVE",
"310 64 OFFCURVE",
"310 90 CURVE SMOOTH",
"310 532 LINE SMOOTH",
"310 558 OFFCURVE",
"315 563 OFFCURVE",
"341 563 CURVE SMOOTH",
"358 563 LINE SMOOTH",
"384 563 OFFCURVE",
"389 558 OFFCURVE",
"389 532 CURVE SMOOTH",
"389 432 LINE",
"643 432 LINE",
"643 543 LINE SMOOTH",
"643 596 OFFCURVE",
"617 622 OFFCURVE",
"564 622 CURVE SMOOTH",
"134 622 LINE SMOOTH",
"81 622 OFFCURVE",
"55 596 OFFCURVE",
"55 543 CURVE SMOOTH",
"55 79 LINE SMOOTH",
"55 26 OFFCURVE",
"81 0 OFFCURVE",
"134 0 CURVE SMOOTH",
"578 0 LINE SMOOTH",
"631 0 OFFCURVE",
"657 26 OFFCURVE",
"657 79 CURVE SMOOTH",
"657 222 LINE"
);
},
{
closed = 1;
nodes = (
"657 183 LINE",
"657 284 LINE SMOOTH",
"657 337 OFFCURVE",
"631 363 OFFCURVE",
"578 363 CURVE SMOOTH",
"293 363 LINE",
"293 304 LINE",
"372 304 LINE SMOOTH",
"398 304 OFFCURVE",
"403 299 OFFCURVE",
"403 273 CURVE SMOOTH",
"403 183 LINE"
);
}
);
width = 707;
},
{
layerId = "B7AC66F4-B7F6-40D5-96E7-A23DEF3F6247";
paths = (
{
closed = 1;
nodes = (
"485 194 LINE",
"485 90 LINE SMOOTH",
"485 64 OFFCURVE",
"480 59 OFFCURVE",
"454 59 CURVE SMOOTH",
"209 59 LINE SMOOTH",
"183 59 OFFCURVE",
"178 64 OFFCURVE",
"178 90 CURVE SMOOTH",
"178 532 LINE SMOOTH",
"178 558 OFFCURVE",
"183 563 OFFCURVE",
"209 563 CURVE SMOOTH",
"452 563 LINE SMOOTH",
"478 563 OFFCURVE",
"483 558 OFFCURVE",
"483 532 CURVE SMOOTH",
"483 427 LINE",
"569 427 LINE",
"569 543 LINE SMOOTH",
"569 596 OFFCURVE",
"543 622 OFFCURVE",
"490 622 CURVE SMOOTH",
"169 622 LINE SMOOTH",
"116 622 OFFCURVE",
"90 596 OFFCURVE",
"90 543 CURVE SMOOTH",
"90 79 LINE SMOOTH",
"90 26 OFFCURVE",
"116 0 OFFCURVE",
"169 0 CURVE SMOOTH",
"493 0 LINE SMOOTH",
"546 0 OFFCURVE",
"572 26 OFFCURVE",
"572 79 CURVE SMOOTH",
"572 194 LINE"
);
},
{
closed = 1;
nodes = (
"572 158 LINE",
"572 275 LINE SMOOTH",
"572 328 OFFCURVE",
"546 354 OFFCURVE",
"493 354 CURVE SMOOTH",
"154 354 LINE",
"154 295 LINE",
"454 295 LINE SMOOTH",
"480 295 OFFCURVE",
"485 290 OFFCURVE",
"485 264 CURVE SMOOTH",
"485 158 LINE"
);
}
);
width = 652;
}
);
unicode = 0036;
},
{
glyphname = seven;
layers = (
{
layerId = "D2A65651-33D6-4DD8-B320-C085CF253BF6";
paths = (
{
closed = 1;
nodes = (
"535 622 LINE",
"15 622 LINE",
"15 563 LINE",
"535 563 LINE"
);
},
{
closed = 1;
nodes = (
"589 622 LINE",
"376 622 LINE",
"59 0 LINE",
"328 0 LINE",
"589 530 LINE"
);
}
);
width = 599;
},
{
layerId = "B7AC66F4-B7F6-40D5-96E7-A23DEF3F6247";
paths = (
{
closed = 1;
nodes = (
"464 622 LINE",
"40 622 LINE",
"40 563 LINE",
"464 563 LINE"
);
},
{
closed = 1;
nodes = (
"494 622 LINE",
"424 622 LINE",
"128 0 LINE",
"221 0 LINE",
"494 571 LINE"
);
}
);
width = 514;
}
);
unicode = 0037;
},
{
glyphname = eight;
layers = (
{
layerId = "D2A65651-33D6-4DD8-B320-C085CF253BF6";
paths = (
{
closed = 1;
nodes = (
"129 622 LINE SMOOTH",
"76 622 OFFCURVE",
"50 596 OFFCURVE",
"50 543 CURVE SMOOTH",
"50 394 LINE SMOOTH",
"50 343 OFFCURVE",
"74 317 OFFCURVE",
"122 315 CURVE",
"74 312 OFFCURVE",
"50 286 OFFCURVE",
"50 236 CURVE SMOOTH",
"50 79 LINE SMOOTH",
"50 26 OFFCURVE",
"76 0 OFFCURVE",
"129 0 CURVE SMOOTH",
"574 0 LINE SMOOTH",
"627 0 OFFCURVE",
"653 26 OFFCURVE",
"653 79 CURVE SMOOTH",
"653 236 LINE SMOOTH",
"653 286 OFFCURVE",
"629 312 OFFCURVE",
"581 315 CURVE",
"629 317 OFFCURVE",
"653 343 OFFCURVE",
"653 394 CURVE SMOOTH",
"653 543 LINE SMOOTH",
"653 596 OFFCURVE",
"627 622 OFFCURVE",
"574 622 CURVE SMOOTH"
);
},
{
closed = 1;
nodes = (
"305 252 LINE SMOOTH",
"305 278 OFFCURVE",
"310 283 OFFCURVE",
"336 283 CURVE SMOOTH",
"368 283 LINE SMOOTH",
"394 283 OFFCURVE",
"399 278 OFFCURVE",
"399 252 CURVE SMOOTH",
"399 90 LINE SMOOTH",
"399 64 OFFCURVE",
"394 59 OFFCURVE",
"368 59 CURVE SMOOTH",
"336 59 LINE SMOOTH",
"310 59 OFFCURVE",
"305 64 OFFCURVE",
"305 90 CURVE SMOOTH"
);
},
{
closed = 1;
nodes = (
"399 373 LINE SMOOTH",
"399 347 OFFCURVE",
"394 342 OFFCURVE",
"368 342 CURVE SMOOTH",
"336 342 LINE SMOOTH",
"310 342 OFFCURVE",
"305 347 OFFCURVE",
"305 373 CURVE SMOOTH",
"305 532 LINE SMOOTH",
"305 558 OFFCURVE",
"310 563 OFFCURVE",
"336 563 CURVE SMOOTH",
"368 563 LINE SMOOTH",
"394 563 OFFCURVE",
"399 558 OFFCURVE",
"399 532 CURVE SMOOTH"
);
}
);
width = 703;
},
{
layerId = "B7AC66F4-B7F6-40D5-96E7-A23DEF3F6247";
paths = (
{
closed = 1;
nodes = (
"169 622 LINE",
"116 622 OFFCURVE",
"90 596 OFFCURVE",
"90 543 CURVE SMOOTH",
"90 363 LINE SMOOTH",
"90 332 OFFCURVE",
"105 314 OFFCURVE",
"131 312 CURVE",
"105 308 OFFCURVE",
"90 293 OFFCURVE",
"90 262 CURVE SMOOTH",
"90 79 LINE SMOOTH",
"90 26 OFFCURVE",
"116 0 OFFCURVE",
"169 0 CURVE SMOOTH",
"494 0 LINE SMOOTH",
"547 0 OFFCURVE",
"573 26 OFFCURVE",
"573 79 CURVE SMOOTH",
"573 262 LINE SMOOTH",
"573 293 OFFCURVE",
"558 308 OFFCURVE",
"533 312 CURVE",
"558 314 OFFCURVE",
"573 332 OFFCURVE",
"573 363 CURVE SMOOTH",
"573 543 LINE SMOOTH",
"573 596 OFFCURVE",
"547 622 OFFCURVE",
"494 622 CURVE SMOOTH"
);
},
{
closed = 1;
nodes = (
"177 252 LINE",
"177 278 OFFCURVE",
"182 283 OFFCURVE",
"208 283 CURVE SMOOTH",
"456 283 LINE SMOOTH",
"482 283 OFFCURVE",
"487 278 OFFCURVE",
"487 252 CURVE SMOOTH",
"487 90 LINE SMOOTH",
"487 64 OFFCURVE",
"482 59 OFFCURVE",
"456 59 CURVE SMOOTH",
"208 59 LINE SMOOTH",
"182 59 OFFCURVE",
"177 64 OFFCURVE",
"177 90 CURVE SMOOTH"
);
},
{
closed = 1;
nodes = (
"487 374 LINE",
"487 348 OFFCURVE",
"482 343 OFFCURVE",
"456 343 CURVE SMOOTH",
"208 343 LINE SMOOTH",
"182 343 OFFCURVE",
"177 348 OFFCURVE",
"177 374 CURVE SMOOTH",
"177 532 LINE SMOOTH",
"177 558 OFFCURVE",
"182 563 OFFCURVE",
"208 563 CURVE SMOOTH",
"456 563 LINE SMOOTH",
"482 563 OFFCURVE",
"487 558 OFFCURVE",
"487 532 CURVE SMOOTH"
);
}
);
width = 663;
}
);
unicode = 0038;
},
{
glyphname = nine;
layers = (
{
layerId = "D2A65651-33D6-4DD8-B320-C085CF253BF6";
paths = (
{
closed = 1;
nodes = (
"316 190 LINE",
"62 190 LINE",
"62 79 LINE SMOOTH",
"62 26 OFFCURVE",
"88 0 OFFCURVE",
"141 0 CURVE SMOOTH",
"573 0 LINE SMOOTH",
"626 0 OFFCURVE",
"652 26 OFFCURVE",
"652 79 CURVE SMOOTH",
"652 543 LINE SMOOTH",
"652 596 OFFCURVE",
"626 622 OFFCURVE",
"573 622 CURVE SMOOTH",
"344 622 LINE",
"344 563 LINE",
"366 563 LINE SMOOTH",
"392 563 OFFCURVE",
"397 558 OFFCURVE",
"397 532 CURVE SMOOTH",
"397 90 LINE SMOOTH",
"397 64 OFFCURVE",
"392 59 OFFCURVE",
"366 59 CURVE SMOOTH",
"347 59 LINE SMOOTH",
"321 59 OFFCURVE",
"316 64 OFFCURVE",
"316 90 CURVE SMOOTH"
);
},
{
closed = 1;
nodes = (
"304 532 LINE SMOOTH",
"304 558 OFFCURVE",
"309 563 OFFCURVE",
"335 563 CURVE SMOOTH",
"355 563 LINE",
"355 622 LINE",
"129 622 LINE SMOOTH",
"76 622 OFFCURVE",
"50 596 OFFCURVE",
"50 543 CURVE SMOOTH",
"50 338 LINE SMOOTH",
"50 285 OFFCURVE",
"76 259 OFFCURVE",
"129 259 CURVE SMOOTH",
"414 259 LINE",
"414 318 LINE",
"335 318 LINE SMOOTH",
"309 318 OFFCURVE",
"304 323 OFFCURVE",
"304 349 CURVE SMOOTH"
);
}
);
width = 707;
},
{
layerId = "B7AC66F4-B7F6-40D5-96E7-A23DEF3F6247";
paths = (
{
closed = 1;
nodes = (
"177 185 LINE",
"90 185 LINE",
"90 79 LINE SMOOTH",
"90 26 OFFCURVE",
"116 0 OFFCURVE",
"169 0 CURVE SMOOTH",
"488 0 LINE SMOOTH",
"541 0 OFFCURVE",
"567 26 OFFCURVE",
"567 79 CURVE SMOOTH",
"567 543 LINE SMOOTH",
"567 596 OFFCURVE",
"541 622 OFFCURVE",
"488 622 CURVE SMOOTH",
"226 622 LINE",
"226 563 LINE",
"448 563 LINE SMOOTH",
"474 563 OFFCURVE",
"479 558 OFFCURVE",
"479 532 CURVE SMOOTH",
"479 90 LINE SMOOTH",
"479 64 OFFCURVE",
"474 59 OFFCURVE",
"448 59 CURVE SMOOTH",
"208 59 LINE SMOOTH",
"182 59 OFFCURVE",
"177 64 OFFCURVE",
"177 90 CURVE SMOOTH"
);
},
{
closed = 1;
nodes = (
"173 532 LINE",
"173 558 OFFCURVE",
"178 563 OFFCURVE",
"204 563 CURVE SMOOTH",
"235 563 LINE",
"235 622 LINE",
"164 622 LINE SMOOTH",
"111 622 OFFCURVE",
"85 596 OFFCURVE",
"85 543 CURVE SMOOTH",
"85 338 LINE SMOOTH",
"85 285 OFFCURVE",
"111 259 OFFCURVE",
"164 259 CURVE SMOOTH",
"503 259 LINE",
"503 318 LINE",
"204 318 LINE SMOOTH",
"178 318 OFFCURVE",
"173 323 OFFCURVE",
"173 349 CURVE SMOOTH"
);
}
);
width = 657;
}
);
unicode = 0039;
},
{
glyphname = colon;
layers = (
{
layerId = "D2A65651-33D6-4DD8-B320-C085CF253BF6";
paths = (
{
closed = 1;
nodes = (
"55 0 LINE",
"309 0 LINE",
"309 149 LINE",
"55 149 LINE"
);
},
{
closed = 1;
nodes = (
"55 336 LINE",
"309 336 LINE",
"309 485 LINE",
"55 485 LINE"
);
}
);
width = 364;
},
{
layerId = "B7AC66F4-B7F6-40D5-96E7-A23DEF3F6247";
paths = (
{
closed = 1;
nodes = (
"60 34 LINE",
"159 34 LINE",
"159 149 LINE",
"60 149 LINE"
);
},
{
closed = 1;
nodes = (
"60 336 LINE",
"159 336 LINE",
"159 451 LINE",
"60 451 LINE"
);
}
);
width = 219;
}
);
unicode = 003A;
},
{
glyphname = semicolon;
layers = (
{
layerId = "D2A65651-33D6-4DD8-B320-C085CF253BF6";
paths = (
{
closed = 1;
nodes = (
"55 169 LINE",
"309 169 LINE",
"309 72 LINE",
"139 -141 LINE",
"55 -141 LINE"
);
},
{
closed = 1;
nodes = (
"55 336 LINE",
"309 336 LINE",
"309 485 LINE",
"55 485 LINE"
);
}
);
width = 359;
},
{
layerId = "B7AC66F4-B7F6-40D5-96E7-A23DEF3F6247";
paths = (
{
closed = 1;
nodes = (
"60 118 LINE",
"159 118 LINE",
"159 56 LINE",
"93 -137 LINE",
"60 -137 LINE"
);
},
{
closed = 1;
nodes = (
"60 369 LINE",
"159 369 LINE",
"159 485 LINE",
"60 485 LINE"
);
}
);
width = 209;
}
);
unicode = 003B;
},
{
glyphname = less;
layers = (
{
layerId = "D2A65651-33D6-4DD8-B320-C085CF253BF6";
paths = (
{
closed = 1;
nodes = (
"711 381 LINE",
"711 530 LINE",
"30 386 LINE",
"30 244 LINE",
"711 89 LINE",
"711 240 LINE",
"227 313 LINE"
);
}
);
width = 741;
},
{
layerId = "B7AC66F4-B7F6-40D5-96E7-A23DEF3F6247";
paths = (
{
closed = 1;
nodes = (
"601 407 LINE",
"601 482 LINE",
"40 354 LINE",
"40 269 LINE",
"601 140 LINE",
"601 215 LINE",
"116 311 LINE"
);
}
);
width = 661;
}
);
unicode = 003C;
},
{
glyphname = equal;
layers = (
{
layerId = "D2A65651-33D6-4DD8-B320-C085CF253BF6";
paths = (
{
closed = 1;
nodes = (
"50 350 LINE",
"711 350 LINE",
"711 491 LINE",
"50 491 LINE"
);
},
{
closed = 1;
nodes = (
"50 128 LINE",
"711 128 LINE",
"711 269 LINE",
"50 269 LINE"
);
}
);
width = 761;
},
{
layerId = "B7AC66F4-B7F6-40D5-96E7-A23DEF3F6247";
paths = (
{
closed = 1;
nodes = (
"80 364 LINE",
"600 364 LINE",
"600 434 LINE",
"80 434 LINE"
);
},
{
closed = 1;
nodes = (
"80 187 LINE",
"600 187 LINE",
"600 257 LINE",
"80 257 LINE"
);
}
);
width = 680;
}
);
unicode = 003D;
},
{
glyphname = greater;
layers = (
{
layerId = "D2A65651-33D6-4DD8-B320-C085CF253BF6";
paths = (
{
closed = 1;
nodes = (
"514 313 LINE",
"30 240 LINE",
"30 89 LINE",
"711 244 LINE",
"711 386 LINE",
"30 530 LINE",
"30 381 LINE"
);
}
);
width = 741;
},
{
layerId = "B7AC66F4-B7F6-40D5-96E7-A23DEF3F6247";
paths = (
{
closed = 1;
nodes = (
"545 311 LINE",
"60 215 LINE",
"60 140 LINE",
"621 269 LINE",
"621 354 LINE",
"60 482 LINE",
"60 407 LINE"
);
}
);
width = 661;
}
);
unicode = 003E;
},
{
glyphname = question;
layers = (
{
layerId = "D2A65651-33D6-4DD8-B320-C085CF253BF6";
paths = (
{
closed = 1;
nodes = (
"381 385 LINE SMOOTH",
"381 359 OFFCURVE",
"376 354 OFFCURVE",
"350 354 CURVE SMOOTH",
"266 354 LINE",
"266 285 LINE",
"546 285 LINE SMOOTH",
"599 285 OFFCURVE",
"625 311 OFFCURVE",
"625 364 CURVE SMOOTH",
"625 543 LINE SMOOTH",
"625 596 OFFCURVE",
"599 622 OFFCURVE",
"546 622 CURVE SMOOTH",
"312 622 LINE",
"312 563 LINE",
"350 563 LINE SMOOTH",
"376 563 OFFCURVE",
"381 558 OFFCURVE",
"381 532 CURVE SMOOTH"
);
},
{
closed = 1;
nodes = (
"191 354 LINE",
"210 216 LINE",
"414 216 LINE",
"435 354 LINE"
);
},
{
closed = 1;
nodes = (
"182 0 LINE",
"436 0 LINE",
"436 149 LINE",
"182 149 LINE"
);
},
{
closed = 1;
nodes = (
"264 532 LINE SMOOTH",
"264 558 OFFCURVE",
"269 563 OFFCURVE",
"295 563 CURVE SMOOTH",
"316 563 LINE",
"316 622 LINE",
"99 622 LINE SMOOTH",
"46 622 OFFCURVE",
"20 596 OFFCURVE",
"20 543 CURVE SMOOTH",
"20 423 LINE",
"264 423 LINE"
);
}
);
width = 645;
},
{
layerId = "B7AC66F4-B7F6-40D5-96E7-A23DEF3F6247";
paths = (
{
closed = 1;
nodes = (
"428 357 LINE",
"428 333 OFFCURVE",
"425 325 OFFCURVE",
"400 325 CURVE SMOOTH",
"263 325 LINE",
"263 265 LINE",
"436 265 LINE SMOOTH",
"491 265 OFFCURVE",
"515 296 OFFCURVE",
"515 343 CURVE SMOOTH",
"515 545 LINE SMOOTH",
"515 592 OFFCURVE",
"491 622 OFFCURVE",
"436 622 CURVE SMOOTH",
"155 622 LINE",
"155 564 LINE",
"400 564 LINE SMOOTH",
"425 564 OFFCURVE",
"428 555 OFFCURVE",
"428 531 CURVE SMOOTH"
);
},
{
closed = 1;
nodes = (
"224 325 LINE",
"231 198 LINE",
"303 198 LINE",
"311 325 LINE"
);
},
{
closed = 1;
nodes = (
"217 0 LINE",
"316 0 LINE",
"316 116 LINE",
"217 116 LINE"
);
},
{
closed = 1;
nodes = (
"117 531 LINE",
"117 555 OFFCURVE",
"120 564 OFFCURVE",
"146 564 CURVE SMOOTH",
"388 564 LINE",
"388 622 LINE",
"109 622 LINE SMOOTH",
"53 622 OFFCURVE",
"30 592 OFFCURVE",
"30 545 CURVE SMOOTH",
"30 435 LINE",
"117 435 LINE"
);
}
);
width = 575;
}
);
unicode = 003F;
},
{
glyphname = at;
layers = (
{
layerId = "D2A65651-33D6-4DD8-B320-C085CF253BF6";
paths = (
{
closed = 1;
nodes = (
"411 426 LINE SMOOTH",
"371 426 OFFCURVE",
"351 406 OFFCURVE",
"351 366 CURVE SMOOTH",
"351 138 LINE SMOOTH",
"351 98 OFFCURVE",
"371 78 OFFCURVE",
"411 78 CURVE SMOOTH",
"596 78 LINE SMOOTH",
"623 78 OFFCURVE",
"636 86 OFFCURVE",
"642 101 CURVE",
"642 59 LINE",
"1072 59 LINE SMOOTH",
"1112 59 OFFCURVE",
"1132 79 OFFCURVE",
"1132 119 CURVE SMOOTH",
"1132 503 LINE SMOOTH",
"1132 543 OFFCURVE",
"1112 563 OFFCURVE",
"1072 563 CURVE SMOOTH",
"120 563 LINE SMOOTH",
"80 563 OFFCURVE",
"60 543 OFFCURVE",
"60 503 CURVE SMOOTH",
"60 -10 LINE SMOOTH",
"60 -50 OFFCURVE",
"80 -70 OFFCURVE",
"120 -70 CURVE SMOOTH",
"839 -70 LINE",
"839 -11 LINE",
"275 -11 LINE SMOOTH",
"255 -11 OFFCURVE",
"252 -8 OFFCURVE",
"252 12 CURVE SMOOTH",
"252 481 LINE SMOOTH",
"252 501 OFFCURVE",
"255 504 OFFCURVE",
"275 504 CURVE SMOOTH",
"917 504 LINE SMOOTH",
"937 504 OFFCURVE",
"940 501 OFFCURVE",
"940 481 CURVE SMOOTH",
"940 141 LINE SMOOTH",
"940 121 OFFCURVE",
"937 118 OFFCURVE",
"917 118 CURVE SMOOTH",
"832 118 LINE",
"832 426 LINE",
"640 426 LINE",
"640 406 LINE",
"633 419 OFFCURVE",
"620 426 OFFCURVE",
"596 426 CURVE SMOOTH"
);
},
{
closed = 1;
nodes = (
"543 344 LINE SMOOTH",
"543 363 OFFCURVE",
"546 367 OFFCURVE",
"566 367 CURVE SMOOTH",
"611 367 LINE SMOOTH",
"629 367 OFFCURVE",
"638 362 OFFCURVE",
"640 348 CURVE",
"640 155 LINE",
"638 142 OFFCURVE",
"629 137 OFFCURVE",
"611 137 CURVE SMOOTH",
"566 137 LINE SMOOTH",
"546 137 OFFCURVE",
"543 140 OFFCURVE",
"543 160 CURVE SMOOTH"
);
}
);
width = 1187;
},
{
layerId = "B7AC66F4-B7F6-40D5-96E7-A23DEF3F6247";
paths = (
{
closed = 1;
nodes = (
"408 426 LINE",
"356 426 OFFCURVE",
"331 401 OFFCURVE",
"331 349 CURVE SMOOTH",
"331 155 LINE SMOOTH",
"331 103 OFFCURVE",
"356 78 OFFCURVE",
"408 78 CURVE SMOOTH",
"598 78 LINE SMOOTH",
"629 78 OFFCURVE",
"655 90 OFFCURVE",
"659 124 CURVE",
"659 59 LINE",
"945 59 LINE SMOOTH",
"997 59 OFFCURVE",
"1022 84 OFFCURVE",
"1022 136 CURVE SMOOTH",
"1022 486 LINE SMOOTH",
"1022 538 OFFCURVE",
"997 563 OFFCURVE",
"945 563 CURVE SMOOTH",
"167 563 LINE SMOOTH",
"115 563 OFFCURVE",
"90 538 OFFCURVE",
"90 486 CURVE SMOOTH",
"90 5 LINE SMOOTH",
"90 -47 OFFCURVE",
"115 -72 OFFCURVE",
"167 -72 CURVE SMOOTH",
"884 -72 LINE",
"884 -11 LINE",
"202 -11 LINE SMOOTH",
"176 -11 OFFCURVE",
"171 -6 OFFCURVE",
"171 19 CURVE SMOOTH",
"171 471 LINE SMOOTH",
"171 496 OFFCURVE",
"176 502 OFFCURVE",
"202 502 CURVE SMOOTH",
"912 502 LINE SMOOTH",
"937 502 OFFCURVE",
"942 496 OFFCURVE",
"942 471 CURVE SMOOTH",
"942 148 LINE SMOOTH",
"942 123 OFFCURVE",
"937 118 OFFCURVE",
"912 118 CURVE SMOOTH",
"733 118 LINE",
"733 426 LINE",
"652 426 LINE",
"652 393 LINE",
"644 416 OFFCURVE",
"624 426 OFFCURVE",
"598 426 CURVE SMOOTH"
);
},
{
closed = 1;
nodes = (
"412 337 LINE",
"412 362 OFFCURVE",
"417 367 OFFCURVE",
"442 367 CURVE SMOOTH",
"619 367 LINE SMOOTH",
"642 367 OFFCURVE",
"652 358 OFFCURVE",
"652 333 CURVE SMOOTH",
"652 171 LINE SMOOTH",
"652 145 OFFCURVE",
"642 137 OFFCURVE",
"619 137 CURVE SMOOTH",
"442 137 LINE SMOOTH",
"417 137 OFFCURVE",
"412 142 OFFCURVE",
"412 167 CURVE SMOOTH"
);
}
);
width = 1102;
}
);
unicode = 0040;
},
{
glyphname = A;
layers = (
{
layerId = "D2A65651-33D6-4DD8-B320-C085CF253BF6";
paths = (
{
closed = 1;
nodes = (
"613 182 LINE",
"160 182 LINE",
"160 123 LINE",
"613 123 LINE"
);
},
{
closed = 1;
nodes = (
"768 0 LINE",
"535 622 LINE",
"235 622 LINE",
"2 0 LINE",
"245 0 LINE",
"384 477 LINE",
"519 0 LINE"
);
}
);
width = 770;
},
{
layerId = "B7AC66F4-B7F6-40D5-96E7-A23DEF3F6247";
paths = (
{
closed = 1;
nodes = (
"545 182 LINE",
"137 182 LINE",
"137 123 LINE",
"545 123 LINE"
);
},
{
closed = 1;
nodes = (
"647 0 LINE",
"404 622 LINE",
"277 622 LINE",
"35 0 LINE",
"123 0 LINE",
"340 562 LINE",
"560 0 LINE"
);
}
);
width = 682;
}
);
unicode = 0041;
},
{
glyphname = B;
layers = (
{
layerId = "D2A65651-33D6-4DD8-B320-C085CF253BF6";
paths = (
{
closed = 1;
nodes = (
"60 622 LINE",
"60 0 LINE",
"603 0 LINE SMOOTH",
"656 0 OFFCURVE",
"682 26 OFFCURVE",
"682 79 CURVE SMOOTH",
"682 234 LINE SMOOTH",
"682 284 OFFCURVE",
"658 310 OFFCURVE",
"610 313 CURVE",
"658 315 OFFCURVE",
"682 341 OFFCURVE",
"682 392 CURVE SMOOTH",
"682 543 LINE SMOOTH",
"682 596 OFFCURVE",
"656 622 OFFCURVE",
"603 622 CURVE SMOOTH"
);
},
{
closed = 1;
nodes = (
"440 81 LINE SMOOTH",
"440 66 OFFCURVE",
"428 59 OFFCURVE",
"404 59 CURVE SMOOTH",
"314 59 LINE",
"314 282 LINE",
"409 282 LINE SMOOTH",
"435 282 OFFCURVE",
"440 277 OFFCURVE",
"440 251 CURVE SMOOTH"
);
},
{
closed = 1;
nodes = (
"440 372 LINE SMOOTH",
"440 346 OFFCURVE",
"435 341 OFFCURVE",
"409 341 CURVE SMOOTH",
"314 341 LINE",
"314 563 LINE",
"409 563 LINE SMOOTH",
"435 563 OFFCURVE",
"440 558 OFFCURVE",
"440 532 CURVE SMOOTH"
);
}
);
width = 737;
},
{
layerId = "B7AC66F4-B7F6-40D5-96E7-A23DEF3F6247";
paths = (
{
closed = 1;
nodes = (
"100 622 LINE",
"100 0 LINE",
"524 0 LINE SMOOTH",
"577 0 OFFCURVE",
"603 26 OFFCURVE",
"603 79 CURVE SMOOTH",
"603 261 LINE SMOOTH",
"603 292 OFFCURVE",
"588 306 OFFCURVE",
"562 310 CURVE",
"588 312 OFFCURVE",
"603 331 OFFCURVE",
"603 362 CURVE SMOOTH",
"603 543 LINE SMOOTH",
"603 596 OFFCURVE",
"577 622 OFFCURVE",
"524 622 CURVE SMOOTH"
);
},
{
closed = 1;
nodes = (
"517 89 LINE",
"517 64 OFFCURVE",
"511 59 OFFCURVE",
"485 59 CURVE SMOOTH",
"188 59 LINE",
"188 282 LINE",
"486 282 LINE SMOOTH",
"512 282 OFFCURVE",
"517 277 OFFCURVE",
"517 251 CURVE SMOOTH"
);
},
{
closed = 1;
nodes = (
"517 372 LINE",
"517 346 OFFCURVE",
"512 341 OFFCURVE",
"486 341 CURVE SMOOTH",
"188 341 LINE",
"188 563 LINE",
"486 563 LINE SMOOTH",
"512 563 OFFCURVE",
"517 558 OFFCURVE",
"517 532 CURVE SMOOTH"
);
}
);
width = 693;
}
);
unicode = 0042;
},
{
glyphname = C;
layers = (
{
layerId = "D2A65651-33D6-4DD8-B320-C085CF253BF6";
paths = (
{
closed = 1;
nodes = (
"309 532 LINE SMOOTH",
"309 558 OFFCURVE",
"314 563 OFFCURVE",
"340 563 CURVE SMOOTH",
"374 563 LINE",
"374 622 LINE",
"134 622 LINE SMOOTH",
"81 622 OFFCURVE",
"55 596 OFFCURVE",
"55 543 CURVE SMOOTH",
"55 79 LINE SMOOTH",
"55 26 OFFCURVE",
"81 0 OFFCURVE",
"134 0 CURVE SMOOTH",
"374 0 LINE",
"374 59 LINE",
"340 59 LINE SMOOTH",
"314 59 OFFCURVE",
"309 64 OFFCURVE",
"309 90 CURVE SMOOTH"
);
},
{
closed = 1;
nodes = (
"415 390 LINE",
"669 390 LINE",
"669 543 LINE SMOOTH",
"669 596 OFFCURVE",
"643 622 OFFCURVE",
"590 622 CURVE SMOOTH",
"350 622 LINE",
"350 563 LINE",
"384 563 LINE SMOOTH",
"410 563 OFFCURVE",
"415 558 OFFCURVE",
"415 532 CURVE SMOOTH"
);
},
{
closed = 1;
nodes = (
"415 90 LINE SMOOTH",
"415 64 OFFCURVE",
"410 59 OFFCURVE",
"384 59 CURVE SMOOTH",
"350 59 LINE",
"350 0 LINE",
"590 0 LINE SMOOTH",
"643 0 OFFCURVE",
"669 26 OFFCURVE",
"669 79 CURVE SMOOTH",
"669 229 LINE",
"415 229 LINE"
);
}
);
width = 714;
},
{
layerId = "B7AC66F4-B7F6-40D5-96E7-A23DEF3F6247";
paths = (
{
closed = 1;
nodes = (
"178 532 LINE",
"178 558 OFFCURVE",
"183 563 OFFCURVE",
"209 563 CURVE SMOOTH",
"244 563 LINE",
"244 622 LINE",
"169 622 LINE SMOOTH",
"116 622 OFFCURVE",
"90 596 OFFCURVE",
"90 543 CURVE SMOOTH",
"90 79 LINE SMOOTH",
"90 26 OFFCURVE",
"116 0 OFFCURVE",
"169 0 CURVE SMOOTH",
"238 0 LINE",
"238 59 LINE",
"209 59 LINE SMOOTH",
"183 59 OFFCURVE",
"178 64 OFFCURVE",
"178 90 CURVE SMOOTH"
);
},
{
closed = 1;
nodes = (
"496 413 LINE",
"584 413 LINE",
"584 543 LINE SMOOTH",
"584 596 OFFCURVE",
"558 622 OFFCURVE",
"505 622 CURVE SMOOTH",
"229 622 LINE",
"229 563 LINE",
"465 563 LINE SMOOTH",
"491 563 OFFCURVE",
"496 558 OFFCURVE",
"496 532 CURVE SMOOTH"
);
},
{
closed = 1;
nodes = (
"496 90 LINE",
"496 64 OFFCURVE",
"491 59 OFFCURVE",
"465 59 CURVE SMOOTH",
"229 59 LINE",
"229 0 LINE",
"505 0 LINE SMOOTH",
"558 0 OFFCURVE",
"584 26 OFFCURVE",
"584 79 CURVE SMOOTH",
"584 209 LINE",
"496 209 LINE"
);
}
);
width = 644;
}
);
unicode = 0043;
},
{
glyphname = D;
layers = (
{
layerId = "D2A65651-33D6-4DD8-B320-C085CF253BF6";
paths = (
{
closed = 1;
nodes = (
"430 362 LINE",
"684 362 LINE",
"684 543 LINE SMOOTH",
"684 596 OFFCURVE",
"658 622 OFFCURVE",
"605 622 CURVE SMOOTH",
"142 622 LINE",
"142 563 LINE",
"399 563 LINE SMOOTH",
"425 563 OFFCURVE",
"430 558 OFFCURVE",
"430 532 CURVE SMOOTH"
);
},
{
closed = 1;
nodes = (
"430 90 LINE SMOOTH",
"430 64 OFFCURVE",
"425 59 OFFCURVE",
"399 59 CURVE SMOOTH",
"142 59 LINE",
"142 0 LINE",
"605 0 LINE SMOOTH",
"658 0 OFFCURVE",
"684 26 OFFCURVE",
"684 79 CURVE SMOOTH",
"684 375 LINE",
"430 375 LINE"
);
},
{
closed = 1;
nodes = (
"60 622 LINE",
"60 0 LINE",
"314 0 LINE",
"314 622 LINE"
);
}
);
width = 739;
},
{
layerId = "B7AC66F4-B7F6-40D5-96E7-A23DEF3F6247";
paths = (
{
closed = 1;
nodes = (
"517 394 LINE",
"605 394 LINE",
"605 543 LINE SMOOTH",
"605 596 OFFCURVE",
"579 622 OFFCURVE",
"526 622 CURVE SMOOTH",
"144 622 LINE",
"144 563 LINE",
"486 563 LINE SMOOTH",
"512 563 OFFCURVE",
"517 558 OFFCURVE",
"517 532 CURVE SMOOTH"
);
},
{
closed = 1;
nodes = (
"517 90 LINE",
"517 64 OFFCURVE",
"512 59 OFFCURVE",
"486 59 CURVE SMOOTH",
"144 59 LINE",
"144 0 LINE",
"526 0 LINE SMOOTH",
"579 0 OFFCURVE",
"605 26 OFFCURVE",
"605 79 CURVE SMOOTH",
"605 417 LINE",
"517 417 LINE"
);
},
{
closed = 1;
nodes = (
"100 622 LINE",
"100 0 LINE",
"188 0 LINE",
"188 622 LINE"
);
}
);
width = 695;
}
);
unicode = 0044;
},
{
glyphname = E;
layers = (
{
layerId = "D2A65651-33D6-4DD8-B320-C085CF253BF6";
paths = (
{
closed = 1;
nodes = (
"60 622 LINE",
"60 0 LINE",
"324 0 LINE",
"324 622 LINE"
);
},
{
closed = 1;
nodes = (
"562 348 LINE",
"166 348 LINE",
"166 289 LINE",
"562 289 LINE"
);
},
{
closed = 1;
nodes = (
"603 622 LINE",
"148 622 LINE",
"148 563 LINE",
"603 563 LINE"
);
},
{
closed = 1;
nodes = (
"616 59 LINE",
"148 59 LINE",
"148 0 LINE",
"616 0 LINE"
);
}
);
width = 641;
},
{
layerId = "B7AC66F4-B7F6-40D5-96E7-A23DEF3F6247";
paths = (
{
closed = 1;
nodes = (
"100 622 LINE",
"100 0 LINE",
"189 0 LINE",
"189 622 LINE"
);
},
{
closed = 1;
nodes = (
"482 348 LINE",
"151 348 LINE",
"151 289 LINE",
"482 289 LINE"
);
},
{
closed = 1;
nodes = (
"523 622 LINE",
"149 622 LINE",
"149 563 LINE",
"523 563 LINE"
);
},
{
closed = 1;
nodes = (
"537 59 LINE",
"149 59 LINE",
"149 0 LINE",
"537 0 LINE"
);
}
);
width = 587;
}
);
unicode = 0045;
},
{
glyphname = F;
layers = (
{
layerId = "D2A65651-33D6-4DD8-B320-C085CF253BF6";
paths = (
{
closed = 1;
nodes = (
"60 622 LINE",
"60 0 LINE",
"324 0 LINE",
"324 622 LINE"
);
},
{
closed = 1;
nodes = (
"564 324 LINE",
"168 324 LINE",
"168 265 LINE",
"564 265 LINE"
);
},
{
closed = 1;
nodes = (
"603 622 LINE",
"148 622 LINE",
"148 563 LINE",
"603 563 LINE"
);
}
);
width = 628;
},
{
layerId = "B7AC66F4-B7F6-40D5-96E7-A23DEF3F6247";
paths = (
{
closed = 1;
nodes = (
"100 622 LINE",
"100 0 LINE",
"189 0 LINE",
"189 622 LINE"
);
},
{
closed = 1;
nodes = (
"485 324 LINE",
"151 324 LINE",
"151 265 LINE",
"485 265 LINE"
);
},
{
closed = 1;
nodes = (
"524 622 LINE",
"149 622 LINE",
"149 563 LINE",
"524 563 LINE"
);
}
);
width = 554;
}
);
unicode = 0046;
},
{
glyphname = G;
layers = (
{
layerId = "D2A65651-33D6-4DD8-B320-C085CF253BF6";
paths = (
{
closed = 1;
nodes = (
"309 532 LINE SMOOTH",
"309 558 OFFCURVE",
"314 563 OFFCURVE",
"340 563 CURVE SMOOTH",
"375 563 LINE",
"375 622 LINE",
"134 622 LINE SMOOTH",
"81 622 OFFCURVE",
"55 596 OFFCURVE",
"55 543 CURVE SMOOTH",
"55 79 LINE SMOOTH",
"55 26 OFFCURVE",
"81 0 OFFCURVE",
"134 0 CURVE SMOOTH",
"370 0 LINE",
"370 59 LINE",
"340 59 LINE SMOOTH",
"314 59 OFFCURVE",
"309 64 OFFCURVE",
"309 90 CURVE SMOOTH"
);
},
{
closed = 1;
nodes = (
"670 320 LINE",
"353 320 LINE",
"353 261 LINE",
"670 261 LINE"
);
},
{
closed = 1;
nodes = (
"416 409 LINE",
"670 409 LINE",
"670 543 LINE SMOOTH",
"670 596 OFFCURVE",
"644 622 OFFCURVE",
"591 622 CURVE SMOOTH",
"350 622 LINE",
"350 563 LINE",
"385 563 LINE SMOOTH",
"411 563 OFFCURVE",
"416 558 OFFCURVE",
"416 532 CURVE SMOOTH"
);
},
{
closed = 1;
nodes = (
"416 90 LINE SMOOTH",
"416 64 OFFCURVE",
"411 59 OFFCURVE",
"385 59 CURVE SMOOTH",
"356 59 LINE",
"356 0 LINE",
"591 0 LINE SMOOTH",
"644 0 OFFCURVE",
"670 26 OFFCURVE",
"670 79 CURVE SMOOTH",
"670 269 LINE",
"416 269 LINE"
);
}
);
width = 720;
},
{
layerId = "B7AC66F4-B7F6-40D5-96E7-A23DEF3F6247";
paths = (
{
closed = 1;
nodes = (
"178 532 LINE",
"178 558 OFFCURVE",
"183 563 OFFCURVE",
"209 563 CURVE SMOOTH",
"244 563 LINE",
"244 622 LINE",
"169 622 LINE SMOOTH",
"116 622 OFFCURVE",
"90 596 OFFCURVE",
"90 543 CURVE SMOOTH",
"90 79 LINE SMOOTH",
"90 26 OFFCURVE",
"116 0 OFFCURVE",
"169 0 CURVE SMOOTH",
"238 0 LINE",
"238 59 LINE",
"209 59 LINE SMOOTH",
"183 59 OFFCURVE",
"178 64 OFFCURVE",
"178 90 CURVE SMOOTH"
);
},
{
closed = 1;
nodes = (
"585 320 LINE",
"329 320 LINE",
"329 261 LINE",
"585 261 LINE"
);
},
{
closed = 1;
nodes = (
"497 434 LINE",
"585 434 LINE",
"585 543 LINE SMOOTH",
"585 596 OFFCURVE",
"559 622 OFFCURVE",
"506 622 CURVE SMOOTH",
"229 622 LINE",
"229 563 LINE",
"466 563 LINE SMOOTH",
"492 563 OFFCURVE",
"497 558 OFFCURVE",
"497 532 CURVE SMOOTH"
);
},
{
closed = 1;
nodes = (
"498 90 LINE",
"498 64 OFFCURVE",
"493 59 OFFCURVE",
"467 59 CURVE SMOOTH",
"229 59 LINE",
"229 0 LINE",
"506 0 LINE SMOOTH",
"559 0 OFFCURVE",
"585 26 OFFCURVE",
"585 79 CURVE SMOOTH",
"585 279 LINE",
"498 279 LINE"
);
}
);
width = 665;
}
);
unicode = 0047;
},
{
glyphname = H;
layers = (
{
layerId = "D2A65651-33D6-4DD8-B320-C085CF253BF6";
paths = (
{
closed = 1;
nodes = (
"512 341 LINE",
"258 341 LINE",
"258 282 LINE",
"512 282 LINE"
);
},
{
closed = 1;
nodes = (
"60 622 LINE",
"60 0 LINE",
"314 0 LINE",
"314 622 LINE"
);
},
{
closed = 1;
nodes = (
"469 622 LINE",
"469 0 LINE",
"723 0 LINE",
"723 622 LINE"
);
}
);
width = 783;
},
{
layerId = "B7AC66F4-B7F6-40D5-96E7-A23DEF3F6247";
paths = (
{
closed = 1;
nodes = (
"588 341 LINE",
"160 341 LINE",
"160 282 LINE",
"588 282 LINE"
);
},
{
closed = 1;
nodes = (
"100 622 LINE",
"100 0 LINE",
"188 0 LINE",
"188 622 LINE"
);
},
{
closed = 1;
nodes = (
"556 622 LINE",
"556 0 LINE",
"644 0 LINE",
"644 622 LINE"
);
}
);
width = 744;
}
);
unicode = 0048;
},
{
glyphname = I;
layers = (
{
layerId = "D2A65651-33D6-4DD8-B320-C085CF253BF6";
paths = (
{
closed = 1;
nodes = (
"65 622 LINE",
"65 0 LINE",
"329 0 LINE",
"329 622 LINE"
);
}
);
width = 394;
},
{
layerId = "B7AC66F4-B7F6-40D5-96E7-A23DEF3F6247";
paths = (
{
closed = 1;
nodes = (
"110 622 LINE",
"110 0 LINE",
"198 0 LINE",
"198 622 LINE"
);
}
);
width = 308;
}
);
unicode = 0049;
},
{
glyphname = J;
layers = (
{
layerId = "D2A65651-33D6-4DD8-B320-C085CF253BF6";
paths = (
{
closed = 1;
nodes = (
"20 249 LINE",
"20 79 LINE SMOOTH",
"20 26 OFFCURVE",
"46 0 OFFCURVE",
"99 0 CURVE SMOOTH",
"522 0 LINE SMOOTH",
"575 0 OFFCURVE",
"601 26 OFFCURVE",
"601 79 CURVE SMOOTH",
"601 622 LINE",
"347 622 LINE",
"347 90 LINE SMOOTH",
"347 64 OFFCURVE",
"342 59 OFFCURVE",
"316 59 CURVE SMOOTH",
"305 59 LINE SMOOTH",
"279 59 OFFCURVE",
"274 64 OFFCURVE",
"274 90 CURVE SMOOTH",
"274 249 LINE"
);
}
);
width = 656;
},
{
layerId = "B7AC66F4-B7F6-40D5-96E7-A23DEF3F6247";
paths = (
{
closed = 1;
nodes = (
"40 218 LINE",
"40 79 LINE SMOOTH",
"40 26 OFFCURVE",
"66 0 OFFCURVE",
"119 0 CURVE SMOOTH",
"422 0 LINE SMOOTH",
"475 0 OFFCURVE",
"501 26 OFFCURVE",
"501 79 CURVE SMOOTH",
"501 622 LINE",
"413 622 LINE",
"413 90 LINE SMOOTH",
"413 64 OFFCURVE",
"408 59 OFFCURVE",
"382 59 CURVE SMOOTH",
"159 59 LINE SMOOTH",
"133 59 OFFCURVE",
"128 64 OFFCURVE",
"128 90 CURVE SMOOTH",
"128 218 LINE"
);
}
);
width = 591;
}
);
unicode = 004A;
},
{
glyphname = K;
layers = (
{
layerId = "D2A65651-33D6-4DD8-B320-C085CF253BF6";
paths = (
{
closed = 1;
nodes = (
"476 622 LINE",
"309 318 LINE",
"478 0 LINE",
"743 0 LINE",
"565 318 LINE",
"741 622 LINE"
);
},
{
closed = 1;
nodes = (
"60 622 LINE",
"60 0 LINE",
"307 0 LINE",
"307 622 LINE"
);
}
);
width = 759;
},
{
layerId = "B7AC66F4-B7F6-40D5-96E7-A23DEF3F6247";
paths = (
{
closed = 1;
nodes = (
"523 622 LINE",
"213 318 LINE",
"534 0 LINE",
"645 0 LINE",
"320 318 LINE",
"631 622 LINE"
);
},
{
closed = 1;
nodes = (
"100 622 LINE",
"100 0 LINE",
"186 0 LINE",
"186 622 LINE"
);
}
);
width = 667;
}
);
unicode = 004B;
},
{
glyphname = L;
layers = (
{
layerId = "D2A65651-33D6-4DD8-B320-C085CF253BF6";
paths = (
{
closed = 1;
nodes = (
"60 622 LINE",
"60 0 LINE",
"314 0 LINE",
"314 622 LINE"
);
},
{
closed = 1;
nodes = (
"142 0 LINE",
"588 0 LINE",
"588 59 LINE",
"142 59 LINE"
);
}
);
width = 598;
},
{
layerId = "B7AC66F4-B7F6-40D5-96E7-A23DEF3F6247";
paths = (
{
closed = 1;
nodes = (
"100 622 LINE",
"100 0 LINE",
"187 0 LINE",
"187 622 LINE"
);
},
{
closed = 1;
nodes = (
"146 0 LINE",
"509 0 LINE",
"509 59 LINE",
"146 59 LINE"
);
}
);
width = 539;
}
);
unicode = 004C;
},
{
glyphname = M;
layers = (
{
layerId = "D2A65651-33D6-4DD8-B320-C085CF253BF6";
paths = (
{
closed = 1;
nodes = (
"551 135 LINE",
"662 415 LINE",
"662 0 LINE",
"892 0 LINE",
"892 622 LINE",
"623 622 LINE",
"476 260 LINE",
"330 622 LINE",
"60 622 LINE",
"60 0 LINE",
"290 0 LINE",
"290 413 LINE",
"402 135 LINE"
);
}
);
width = 952;
},
{
layerId = "B7AC66F4-B7F6-40D5-96E7-A23DEF3F6247";
paths = (
{
closed = 1;
nodes = (
"467 135 LINE",
"686 510 LINE",
"686 0 LINE",
"762 0 LINE",
"762 622 LINE",
"667 622 LINE",
"426 211 LINE",
"195 622 LINE",
"100 622 LINE",
"100 0 LINE",
"176 0 LINE",
"176 510 LINE",
"387 135 LINE"
);
}
);
width = 862;
}
);
unicode = 004D;
},
{
glyphname = N;
layers = (
{
layerId = "D2A65651-33D6-4DD8-B320-C085CF253BF6";
paths = (
{
closed = 1;
nodes = (
"464 622 LINE",
"464 220 LINE",
"272 622 LINE",
"60 622 LINE",
"60 0 LINE",
"295 0 LINE",
"295 397 LINE",
"488 0 LINE",
"699 0 LINE",
"699 622 LINE"
);
}
);
width = 759;
},
{
layerId = "B7AC66F4-B7F6-40D5-96E7-A23DEF3F6247";
paths = (
{
closed = 1;
nodes = (
"539 622 LINE",
"539 108 LINE",
"193 622 LINE",
"100 622 LINE",
"100 0 LINE",
"180 0 LINE",
"180 519 LINE",
"531 0 LINE",
"619 0 LINE",
"619 622 LINE"
);
}
);
width = 719;
}
);
unicode = 004E;
},
{
glyphname = O;
layers = (
{
layerId = "D2A65651-33D6-4DD8-B320-C085CF253BF6";
paths = (
{
closed = 1;
nodes = (
"678 543 LINE SMOOTH",
"678 596 OFFCURVE",
"652 622 OFFCURVE",
"599 622 CURVE SMOOTH",
"134 622 LINE SMOOTH",
"81 622 OFFCURVE",
"55 596 OFFCURVE",
"55 543 CURVE SMOOTH",
"55 79 LINE SMOOTH",
"55 26 OFFCURVE",
"81 0 OFFCURVE",
"134 0 CURVE SMOOTH",
"599 0 LINE SMOOTH",
"652 0 OFFCURVE",
"678 26 OFFCURVE",
"678 79 CURVE SMOOTH"
);
},
{
closed = 1;
nodes = (
"424 90 LINE SMOOTH",
"424 64 OFFCURVE",
"419 59 OFFCURVE",
"393 59 CURVE SMOOTH",
"340 59 LINE SMOOTH",
"314 59 OFFCURVE",
"309 64 OFFCURVE",
"309 90 CURVE SMOOTH",
"309 532 LINE SMOOTH",
"309 558 OFFCURVE",
"314 563 OFFCURVE",
"340 563 CURVE SMOOTH",
"393 563 LINE SMOOTH",
"419 563 OFFCURVE",
"424 558 OFFCURVE",
"424 532 CURVE SMOOTH"
);
}
);
width = 733;
},
{
layerId = "B7AC66F4-B7F6-40D5-96E7-A23DEF3F6247";
paths = (
{
closed = 1;
nodes = (
"575 543 LINE",
"575 596 OFFCURVE",
"549 622 OFFCURVE",
"496 622 CURVE SMOOTH",
"169 622 LINE SMOOTH",
"116 622 OFFCURVE",
"90 596 OFFCURVE",
"90 543 CURVE SMOOTH",
"90 79 LINE SMOOTH",
"90 26 OFFCURVE",
"116 0 OFFCURVE",
"169 0 CURVE SMOOTH",
"496 0 LINE SMOOTH",
"549 0 OFFCURVE",
"575 26 OFFCURVE",
"575 79 CURVE SMOOTH"
);
},
{
closed = 1;
nodes = (
"489 90 LINE",
"489 64 OFFCURVE",
"484 59 OFFCURVE",
"458 59 CURVE SMOOTH",
"208 59 LINE SMOOTH",
"182 59 OFFCURVE",
"177 64 OFFCURVE",
"177 90 CURVE SMOOTH",
"177 532 LINE SMOOTH",
"177 558 OFFCURVE",
"182 563 OFFCURVE",
"208 563 CURVE SMOOTH",
"458 563 LINE SMOOTH",
"484 563 OFFCURVE",
"489 558 OFFCURVE",
"489 532 CURVE SMOOTH"
);
}
);
width = 665;
}
);
unicode = 004F;
},
{
glyphname = P;
layers = (
{
layerId = "D2A65651-33D6-4DD8-B320-C085CF253BF6";
paths = (
{
closed = 1;
nodes = (
"432 293 LINE SMOOTH",
"432 267 OFFCURVE",
"427 262 OFFCURVE",
"401 262 CURVE SMOOTH",
"142 262 LINE",
"142 203 LINE",
"607 203 LINE SMOOTH",
"660 203 OFFCURVE",
"686 229 OFFCURVE",
"686 282 CURVE SMOOTH",
"686 543 LINE SMOOTH",
"686 596 OFFCURVE",
"660 622 OFFCURVE",
"607 622 CURVE SMOOTH",
"142 622 LINE",
"142 563 LINE",
"401 563 LINE SMOOTH",
"427 563 OFFCURVE",
"432 558 OFFCURVE",
"432 532 CURVE SMOOTH"
);
},
{
closed = 1;
nodes = (
"60 622 LINE",
"60 0 LINE",
"314 0 LINE",
"314 622 LINE"
);
}
);
width = 716;
},
{
layerId = "B7AC66F4-B7F6-40D5-96E7-A23DEF3F6247";
paths = (
{
closed = 1;
nodes = (
"520 293 LINE",
"520 267 OFFCURVE",
"515 262 OFFCURVE",
"489 262 CURVE SMOOTH",
"146 262 LINE",
"146 203 LINE",
"527 203 LINE SMOOTH",
"580 203 OFFCURVE",
"606 229 OFFCURVE",
"606 282 CURVE SMOOTH",
"606 543 LINE SMOOTH",
"606 596 OFFCURVE",
"580 622 OFFCURVE",
"527 622 CURVE SMOOTH",
"109 622 LINE",
"109 563 LINE",
"489 563 LINE SMOOTH",
"515 563 OFFCURVE",
"520 558 OFFCURVE",
"520 532 CURVE SMOOTH"
);
},
{
closed = 1;
nodes = (
"100 622 LINE",
"100 0 LINE",
"187 0 LINE",
"187 622 LINE"
);
}
);
width = 666;
}
);
unicode = 0050;
},
{
glyphname = Q;
layers = (
{
layerId = "D2A65651-33D6-4DD8-B320-C085CF253BF6";
paths = (
{
closed = 1;
nodes = (
"233 59 LINE",
"416 -97 LINE",
"696 -97 LINE",
"489 59 LINE"
);
},
{
closed = 1;
nodes = (
"678 543 LINE SMOOTH",
"678 596 OFFCURVE",
"652 622 OFFCURVE",
"599 622 CURVE SMOOTH",
"134 622 LINE SMOOTH",
"81 622 OFFCURVE",
"55 596 OFFCURVE",
"55 543 CURVE SMOOTH",
"55 79 LINE SMOOTH",
"55 26 OFFCURVE",
"81 0 OFFCURVE",
"134 0 CURVE SMOOTH",
"599 0 LINE SMOOTH",
"652 0 OFFCURVE",
"678 26 OFFCURVE",
"678 79 CURVE SMOOTH"
);
},
{
closed = 1;
nodes = (
"429 90 LINE SMOOTH",
"429 64 OFFCURVE",
"424 59 OFFCURVE",
"398 59 CURVE SMOOTH",
"335 59 LINE SMOOTH",
"309 59 OFFCURVE",
"304 64 OFFCURVE",
"304 90 CURVE SMOOTH",
"304 532 LINE SMOOTH",
"304 558 OFFCURVE",
"309 563 OFFCURVE",
"335 563 CURVE SMOOTH",
"398 563 LINE SMOOTH",
"424 563 OFFCURVE",
"429 558 OFFCURVE",
"429 532 CURVE SMOOTH"
);
}
);
width = 736;
},
{
layerId = "B7AC66F4-B7F6-40D5-96E7-A23DEF3F6247";
paths = (
{
closed = 1;
nodes = (
"288 38 LINE",
"445 -97 LINE",
"554 -97 LINE",
"394 38 LINE"
);
},
{
closed = 1;
nodes = (
"555 543 LINE",
"555 596 OFFCURVE",
"529 622 OFFCURVE",
"476 622 CURVE SMOOTH",
"149 622 LINE SMOOTH",
"96 622 OFFCURVE",
"70 596 OFFCURVE",
"70 543 CURVE SMOOTH",
"70 79 LINE SMOOTH",
"70 26 OFFCURVE",
"96 0 OFFCURVE",
"149 0 CURVE SMOOTH",
"476 0 LINE SMOOTH",
"529 0 OFFCURVE",
"555 26 OFFCURVE",
"555 79 CURVE SMOOTH"
);
},
{
closed = 1;
nodes = (
"469 90 LINE",
"469 64 OFFCURVE",
"464 59 OFFCURVE",
"438 59 CURVE SMOOTH",
"188 59 LINE SMOOTH",
"162 59 OFFCURVE",
"157 64 OFFCURVE",
"157 90 CURVE SMOOTH",
"157 532 LINE SMOOTH",
"157 558 OFFCURVE",
"162 563 OFFCURVE",
"188 563 CURVE SMOOTH",
"438 563 LINE SMOOTH",
"464 563 OFFCURVE",
"469 558 OFFCURVE",
"469 532 CURVE SMOOTH"
);
}
);
width = 625;
}
);
unicode = 0051;
},
{
glyphname = R;
layers = (
{
layerId = "D2A65651-33D6-4DD8-B320-C085CF253BF6";
paths = (
{
closed = 1;
nodes = (
"432 313 LINE SMOOTH",
"432 287 OFFCURVE",
"427 282 OFFCURVE",
"401 282 CURVE SMOOTH",
"142 282 LINE",
"142 223 LINE",
"607 223 LINE SMOOTH",
"660 223 OFFCURVE",
"686 249 OFFCURVE",
"686 302 CURVE SMOOTH",
"686 543 LINE SMOOTH",
"686 596 OFFCURVE",
"660 622 OFFCURVE",
"607 622 CURVE SMOOTH",
"142 622 LINE",
"142 563 LINE",
"401 563 LINE SMOOTH",
"427 563 OFFCURVE",
"432 558 OFFCURVE",
"432 532 CURVE SMOOTH"
);
},
{
closed = 1;
nodes = (
"60 622 LINE",
"60 0 LINE",
"314 0 LINE",
"314 622 LINE"
);
},
{
closed = 1;
nodes = (
"286 276 LINE",
"446 0 LINE",
"712 0 LINE",
"537 276 LINE"
);
}
);
width = 733;
},
{
layerId = "B7AC66F4-B7F6-40D5-96E7-A23DEF3F6247";
paths = (
{
closed = 1;
nodes = (
"521 313 LINE",
"521 287 OFFCURVE",
"516 282 OFFCURVE",
"490 282 CURVE SMOOTH",
"146 282 LINE",
"146 223 LINE",
"528 223 LINE SMOOTH",
"581 223 OFFCURVE",
"607 249 OFFCURVE",
"607 302 CURVE SMOOTH",
"607 543 LINE SMOOTH",
"607 596 OFFCURVE",
"581 622 OFFCURVE",
"528 622 CURVE SMOOTH",
"109 622 LINE",
"109 563 LINE",
"490 563 LINE SMOOTH",
"516 563 OFFCURVE",
"521 558 OFFCURVE",
"521 532 CURVE SMOOTH"
);
},
{
closed = 1;
nodes = (
"100 622 LINE",
"100 0 LINE",
"187 0 LINE",
"187 622 LINE"
);
},
{
closed = 1;
nodes = (
"368 243 LINE",
"519 0 LINE",
"609 0 LINE",
"456 243 LINE"
);
}
);
width = 687;
}
);
unicode = 0052;
},
{
glyphname = S;
layers = (
{
layerId = "D2A65651-33D6-4DD8-B320-C085CF253BF6";
paths = (
{
closed = 1;
nodes = (
"396 90 LINE SMOOTH",
"396 64 OFFCURVE",
"391 59 OFFCURVE",
"365 59 CURVE SMOOTH",
"330 59 LINE SMOOTH",
"304 59 OFFCURVE",
"299 64 OFFCURVE",
"299 90 CURVE SMOOTH",
"299 205 LINE",
"45 205 LINE",
"45 79 LINE SMOOTH",
"45 26 OFFCURVE",
"71 0 OFFCURVE",
"124 0 CURVE SMOOTH",
"571 0 LINE SMOOTH",
"624 0 OFFCURVE",
"650 26 OFFCURVE",
"650 79 CURVE SMOOTH",
"650 264 LINE SMOOTH",
"650 317 OFFCURVE",
"624 343 OFFCURVE",
"571 343 CURVE SMOOTH",
"327 343 LINE SMOOTH",
"301 343 OFFCURVE",
"296 348 OFFCURVE",
"296 374 CURVE SMOOTH",
"296 532 LINE SMOOTH",
"296 558 OFFCURVE",
"301 563 OFFCURVE",
"327 563 CURVE SMOOTH",
"362 563 LINE SMOOTH",
"388 563 OFFCURVE",
"393 558 OFFCURVE",
"393 532 CURVE SMOOTH",
"393 417 LINE",
"647 417 LINE",
"647 543 LINE SMOOTH",
"647 596 OFFCURVE",
"621 622 OFFCURVE",
"568 622 CURVE SMOOTH",
"121 622 LINE SMOOTH",
"68 622 OFFCURVE",
"42 596 OFFCURVE",
"42 543 CURVE SMOOTH",
"42 363 LINE SMOOTH",
"42 310 OFFCURVE",
"68 284 OFFCURVE",
"121 284 CURVE SMOOTH",
"365 284 LINE SMOOTH",
"391 284 OFFCURVE",
"396 279 OFFCURVE",
"396 253 CURVE SMOOTH"
);
}
);
width = 695;
},
{
layerId = "B7AC66F4-B7F6-40D5-96E7-A23DEF3F6247";
paths = (
{
closed = 1;
nodes = (
"481 90 LINE",
"481 64 OFFCURVE",
"476 59 OFFCURVE",
"450 59 CURVE SMOOTH",
"201 59 LINE SMOOTH",
"175 59 OFFCURVE",
"170 64 OFFCURVE",
"170 90 CURVE SMOOTH",
"170 178 LINE",
"82 178 LINE",
"82 79 LINE SMOOTH",
"82 26 OFFCURVE",
"108 0 OFFCURVE",
"161 0 CURVE SMOOTH",
"489 0 LINE SMOOTH",
"542 0 OFFCURVE",
"568 26 OFFCURVE",
"568 79 CURVE SMOOTH",
"568 264 LINE SMOOTH",
"568 317 OFFCURVE",
"542 343 OFFCURVE",
"489 343 CURVE SMOOTH",
"199 343 LINE SMOOTH",
"173 343 OFFCURVE",
"168 348 OFFCURVE",
"168 374 CURVE SMOOTH",
"168 532 LINE SMOOTH",
"168 558 OFFCURVE",
"173 563 OFFCURVE",
"199 563 CURVE SMOOTH",
"446 563 LINE SMOOTH",
"472 563 OFFCURVE",
"477 558 OFFCURVE",
"477 532 CURVE SMOOTH",
"477 444 LINE",
"565 444 LINE",
"565 543 LINE SMOOTH",
"565 596 OFFCURVE",
"539 622 OFFCURVE",
"486 622 CURVE SMOOTH",
"159 622 LINE SMOOTH",
"106 622 OFFCURVE",
"80 596 OFFCURVE",
"80 543 CURVE SMOOTH",
"80 363 LINE SMOOTH",
"80 310 OFFCURVE",
"106 284 OFFCURVE",
"159 284 CURVE SMOOTH",
"450 284 LINE SMOOTH",
"476 284 OFFCURVE",
"481 279 OFFCURVE",
"481 253 CURVE SMOOTH"
);
}
);
width = 648;
}
);
unicode = 0053;
},
{
glyphname = T;
layers = (
{
layerId = "D2A65651-33D6-4DD8-B320-C085CF253BF6";
paths = (
{
closed = 1;
nodes = (
"174 574 LINE",
"174 0 LINE",
"428 0 LINE",
"428 574 LINE"
);
},
{
closed = 1;
nodes = (
"600 622 LINE",
"5 622 LINE",
"5 563 LINE",
"600 563 LINE"
);
}
);
width = 605;
},
{
layerId = "B7AC66F4-B7F6-40D5-96E7-A23DEF3F6247";
paths = (
{
closed = 1;
nodes = (
"239 617 LINE",
"239 0 LINE",
"326 0 LINE",
"326 617 LINE"
);
},
{
closed = 1;
nodes = (
"555 622 LINE",
"10 622 LINE",
"10 563 LINE",
"555 563 LINE"
);
}
);
width = 565;
}
);
unicode = 0054;
},
{
glyphname = U;
layers = (
{
layerId = "D2A65651-33D6-4DD8-B320-C085CF253BF6";
paths = (
{
closed = 1;
nodes = (
"309 622 LINE",
"55 622 LINE",
"55 79 LINE SMOOTH",
"55 26 OFFCURVE",
"81 0 OFFCURVE",
"134 0 CURVE SMOOTH",
"599 0 LINE SMOOTH",
"652 0 OFFCURVE",
"678 26 OFFCURVE",
"678 79 CURVE SMOOTH",
"678 622 LINE",
"424 622 LINE",
"424 90 LINE SMOOTH",
"424 64 OFFCURVE",
"419 59 OFFCURVE",
"393 59 CURVE SMOOTH",
"340 59 LINE SMOOTH",
"314 59 OFFCURVE",
"309 64 OFFCURVE",
"309 90 CURVE SMOOTH"
);
}
);
width = 733;
},
{
layerId = "B7AC66F4-B7F6-40D5-96E7-A23DEF3F6247";
paths = (
{
closed = 1;
nodes = (
"177 622 LINE",
"90 622 LINE",
"90 79 LINE SMOOTH",
"90 26 OFFCURVE",
"116 0 OFFCURVE",
"169 0 CURVE SMOOTH",
"514 0 LINE SMOOTH",
"567 0 OFFCURVE",
"593 26 OFFCURVE",
"593 79 CURVE SMOOTH",
"593 622 LINE",
"507 622 LINE",
"507 90 LINE SMOOTH",
"507 64 OFFCURVE",
"502 59 OFFCURVE",
"476 59 CURVE SMOOTH",
"208 59 LINE SMOOTH",
"182 59 OFFCURVE",
"177 64 OFFCURVE",
"177 90 CURVE SMOOTH"
);
}
);
width = 683;
}
);
unicode = 0055;
},
{
glyphname = V;
layers = (
{
layerId = "D2A65651-33D6-4DD8-B320-C085CF253BF6";
paths = (
{
closed = 1;
nodes = (
"479 622 LINE",
"369 166 LINE",
"260 622 LINE",
"4 622 LINE",
"227 0 LINE",
"513 0 LINE",
"736 622 LINE"
);
}
);
width = 740;
},
{
layerId = "B7AC66F4-B7F6-40D5-96E7-A23DEF3F6247";
paths = (
{
closed = 1;
nodes = (
"563 622 LINE",
"343 60 LINE",
"126 622 LINE",
"38 622 LINE",
"280 0 LINE",
"407 0 LINE",
"650 622 LINE"
);
}
);
width = 688;
}
);
unicode = 0056;
},
{
glyphname = W;
layers = (
{
layerId = "D2A65651-33D6-4DD8-B320-C085CF253BF6";
paths = (
{
closed = 1;
nodes = (
"911 622 LINE",
"820 178 LINE",
"699 622 LINE",
"458 622 LINE",
"337 178 LINE",
"261 622 LINE",
"4 622 LINE",
"196 0 LINE",
"479 0 LINE",
"579 371 LINE",
"679 0 LINE",
"963 0 LINE",
"1155 622 LINE"
);
}
);
width = 1159;
},
{
layerId = "B7AC66F4-B7F6-40D5-96E7-A23DEF3F6247";
paths = (
{
closed = 1;
nodes = (
"924 622 LINE",
"735 61 LINE",
"573 622 LINE",
"475 622 LINE",
"312 61 LINE",
"127 622 LINE",
"39 622 LINE",
"250 0 LINE",
"372 0 LINE",
"524 521 LINE",
"676 0 LINE",
"798 0 LINE",
"1010 622 LINE"
);
}
);
width = 1049;
}
);
unicode = 0057;
},
{
glyphname = X;
layers = (
{
layerId = "D2A65651-33D6-4DD8-B320-C085CF253BF6";
paths = (
{
closed = 1;
nodes = (
"495 326 LINE",
"702 622 LINE",
"447 622 LINE",
"361 458 LINE",
"276 622 LINE",
"7 622 LINE",
"227 306 LINE",
"1 0 LINE",
"253 0 LINE",
"361 179 LINE",
"468 0 LINE",
"736 0 LINE"
);
}
);
width = 737;
},
{
layerId = "B7AC66F4-B7F6-40D5-96E7-A23DEF3F6247";
paths = (
{
closed = 1;
nodes = (
"386 319 LINE",
"620 622 LINE",
"523 622 LINE",
"334 376 LINE",
"143 622 LINE",
"45 622 LINE",
"283 317 LINE",
"35 0 LINE",
"132 0 LINE",
"334 260 LINE",
"534 0 LINE",
"632 0 LINE"
);
}
);
width = 667;
}
);
unicode = 0058;
},
{
glyphname = Y;
layers = (
{
layerId = "D2A65651-33D6-4DD8-B320-C085CF253BF6";
paths = (
{
closed = 1;
nodes = (
"482 173 LINE",
"735 622 LINE",
"489 622 LINE",
"374 329 LINE",
"250 622 LINE",
"3 622 LINE",
"269 173 LINE"
);
},
{
closed = 1;
nodes = (
"249 264 LINE",
"249 0 LINE",
"503 0 LINE",
"503 264 LINE"
);
}
);
width = 738;
},
{
layerId = "B7AC66F4-B7F6-40D5-96E7-A23DEF3F6247";
paths = (
{
closed = 1;
nodes = (
"362 198 LINE",
"621 622 LINE",
"532 622 LINE",
"320 274 LINE",
"99 622 LINE",
"9 622 LINE",
"279 198 LINE"
);
},
{
closed = 1;
nodes = (
"277 243 LINE",
"277 0 LINE",
"364 0 LINE",
"364 243 LINE"
);
}
);
width = 630;
}
);
unicode = 0059;
},
{
glyphname = Z;
layers = (
{
layerId = "D2A65651-33D6-4DD8-B320-C085CF253BF6";
paths = (
{
closed = 1;
nodes = (
"628 622 LINE",
"49 622 LINE",
"49 563 LINE",
"628 563 LINE"
);
},
{
closed = 1;
nodes = (
"340 563 LINE",
"30 59 LINE",
"318 59 LINE",
"628 563 LINE"
);
},
{
closed = 1;
nodes = (
"618 59 LINE",
"30 59 LINE",
"30 0 LINE",
"618 0 LINE"
);
}
);
width = 658;
},
{
layerId = "B7AC66F4-B7F6-40D5-96E7-A23DEF3F6247";
paths = (
{
closed = 1;
nodes = (
"568 622 LINE",
"70 622 LINE",
"70 563 LINE",
"568 563 LINE"
);
},
{
closed = 1;
nodes = (
"468 563 LINE",
"60 59 LINE",
"160 59 LINE",
"568 563 LINE"
);
},
{
closed = 1;
nodes = (
"558 59 LINE",
"60 59 LINE",
"60 0 LINE",
"558 0 LINE"
);
}
);
width = 628;
}
);
unicode = 005A;
},
{
glyphname = bracketleft;
layers = (
{
layerId = "D2A65651-33D6-4DD8-B320-C085CF253BF6";
paths = (
{
closed = 1;
nodes = (
"139 660 LINE",
"432 660 LINE",
"432 719 LINE",
"139 719 LINE"
);
},
{
closed = 1;
nodes = (
"55 719 LINE",
"55 -220 LINE",
"309 -220 LINE",
"309 719 LINE"
);
},
{
closed = 1;
nodes = (
"139 -220 LINE",
"432 -220 LINE",
"432 -161 LINE",
"139 -161 LINE"
);
}
);
width = 399;
},
{
layerId = "B7AC66F4-B7F6-40D5-96E7-A23DEF3F6247";
paths = (
{
closed = 1;
nodes = (
"144 661 LINE",
"357 661 LINE",
"357 720 LINE",
"144 720 LINE"
);
},
{
closed = 1;
nodes = (
"100 720 LINE",
"100 -220 LINE",
"188 -220 LINE",
"188 720 LINE"
);
},
{
closed = 1;
nodes = (
"134 -220 LINE",
"357 -220 LINE",
"357 -161 LINE",
"134 -161 LINE"
);
}
);
width = 317;
}
);
unicode = 005B;
},
{
glyphname = backslash;
layers = (
{
layerId = "D2A65651-33D6-4DD8-B320-C085CF253BF6";
paths = (
{
closed = 1;
nodes = (
"-60 699 LINE",
"371 -136 LINE",
"574 -136 LINE",
"143 699 LINE"
);
}
);
width = 544;
},
{
layerId = "B7AC66F4-B7F6-40D5-96E7-A23DEF3F6247";
paths = (
{
closed = 1;
nodes = (
"-91 699 LINE",
"320 -136 LINE",
"407 -136 LINE",
"-4 699 LINE"
);
}
);
width = 376;
}
);
unicode = 005C;
},
{
glyphname = bracketright;
layers = (
{
layerId = "D2A65651-33D6-4DD8-B320-C085CF253BF6";
paths = (
{
closed = 1;
nodes = (
"260 719 LINE",
"-33 719 LINE",
"-33 660 LINE",
"260 660 LINE"
);
},
{
closed = 1;
nodes = (
"90 719 LINE",
"90 -220 LINE",
"344 -220 LINE",
"344 719 LINE"
);
},
{
closed = 1;
nodes = (
"260 -161 LINE",
"-33 -161 LINE",
"-33 -220 LINE",
"260 -220 LINE"
);
}
);
width = 399;
},
{
layerId = "B7AC66F4-B7F6-40D5-96E7-A23DEF3F6247";
paths = (
{
closed = 1;
nodes = (
"173 720 LINE",
"-40 720 LINE",
"-40 661 LINE",
"173 661 LINE"
);
},
{
closed = 1;
nodes = (
"129 720 LINE",
"129 -220 LINE",
"217 -220 LINE",
"217 720 LINE"
);
},
{
closed = 1;
nodes = (
"183 -161 LINE",
"-40 -161 LINE",
"-40 -220 LINE",
"183 -220 LINE"
);
}
);
width = 317;
}
);
unicode = 005D;
},
{
glyphname = asciicircum;
layers = (
{
layerId = "D2A65651-33D6-4DD8-B320-C085CF253BF6";
paths = (
{
closed = 1;
nodes = (
"186 668 LINE",
"3 328 LINE",
"219 328 LINE",
"328 542 LINE",
"438 328 LINE",
"655 328 LINE",
"472 668 LINE"
);
}
);
width = 658;
},
{
layerId = "B7AC66F4-B7F6-40D5-96E7-A23DEF3F6247";
paths = (
{
closed = 1;
nodes = (
"272 668 LINE",
"58 328 LINE",
"149 328 LINE",
"324 611 LINE",
"498 328 LINE",
"589 328 LINE",
"375 668 LINE"
);
}
);
width = 647;
}
);
unicode = 005E;
},
{
glyphname = underscore;
layers = (
{
layerId = "D2A65651-33D6-4DD8-B320-C085CF253BF6";
paths = (
{
closed = 1;
nodes = (
"10 -59 LINE",
"678 -59 LINE",
"678 0 LINE",
"10 0 LINE"
);
}
);
width = 688;
},
{
layerId = "B7AC66F4-B7F6-40D5-96E7-A23DEF3F6247";
paths = (
{
closed = 1;
nodes = (
"0 -59 LINE",
"573 -59 LINE",
"573 0 LINE",
"0 0 LINE"
);
}
);
width = 573;
}
);
unicode = 005F;
},
{
glyphname = grave;
layers = (
{
layerId = "D2A65651-33D6-4DD8-B320-C085CF253BF6";
paths = (
{
closed = 1;
nodes = (
"384 661 LINE",
"156 661 LINE",
"334 506 LINE",
"520 506 LINE"
);
}
);
width = 705;
},
{
layerId = "B7AC66F4-B7F6-40D5-96E7-A23DEF3F6247";
paths = (
{
closed = 1;
nodes = (
"280 649 LINE",
"170 649 LINE",
"332 506 LINE",
"420 506 LINE"
);
}
);
width = 431;
}
);
unicode = 0060;
},
{
glyphname = a;
layers = (
{
layerId = "D2A65651-33D6-4DD8-B320-C085CF253BF6";
paths = (
{
closed = 1;
nodes = (
"290 233 LINE",
"290 395 LINE SMOOTH",
"290 421 OFFCURVE",
"295 426 OFFCURVE",
"321 426 CURVE SMOOTH",
"349 426 LINE SMOOTH",
"375 426 OFFCURVE",
"387 418 OFFCURVE",
"387 397 CURVE SMOOTH",
"387 371 LINE",
"396 371 LINE",
"396 395 LINE SMOOTH",
"396 450 OFFCURVE",
"392 485 OFFCURVE",
"329 485 CURVE SMOOTH",
"129 485 LINE SMOOTH",
"76 485 OFFCURVE",
"50 459 OFFCURVE",
"50 406 CURVE SMOOTH",
"50 233 LINE"
);
},
{
closed = 1;
nodes = (
"627 0 LINE",
"627 485 LINE",
"387 485 LINE",
"387 0 LINE"
);
},
{
closed = 1;
nodes = (
"50 251 LINE",
"50 79 LINE SMOOTH",
"50 26 OFFCURVE",
"76 0 OFFCURVE",
"129 0 CURVE SMOOTH",
"329 0 LINE SMOOTH",
"392 0 OFFCURVE",
"396 35 OFFCURVE",
"396 90 CURVE SMOOTH",
"396 114 LINE",
"387 114 LINE",
"387 88 LINE SMOOTH",
"387 68 OFFCURVE",
"375 59 OFFCURVE",
"349 59 CURVE SMOOTH",
"321 59 LINE SMOOTH",
"295 59 OFFCURVE",
"290 64 OFFCURVE",
"290 90 CURVE SMOOTH",
"290 251 LINE"
);
}
);
width = 682;
},
{
layerId = "B7AC66F4-B7F6-40D5-96E7-A23DEF3F6247";
paths = (
{
closed = 1;
nodes = (
"166 225 LINE",
"166 395 LINE SMOOTH",
"166 421 OFFCURVE",
"171 426 OFFCURVE",
"197 426 CURVE SMOOTH",
"417 426 LINE SMOOTH",
"441 426 OFFCURVE",
"451 417 OFFCURVE",
"451 391 CURVE SMOOTH",
"451 363 LINE",
"456 363 LINE",
"456 421 LINE SMOOTH",
"456 467 OFFCURVE",
"434 485 OFFCURVE",
"396 485 CURVE SMOOTH",
"159 485 LINE SMOOTH",
"106 485 OFFCURVE",
"80 459 OFFCURVE",
"80 406 CURVE SMOOTH",
"80 225 LINE"
);
},
{
closed = 1;
nodes = (
"537 0 LINE",
"537 485 LINE",
"451 485 LINE",
"451 0 LINE"
);
},
{
closed = 1;
nodes = (
"80 260 LINE",
"80 79 LINE SMOOTH",
"80 26 OFFCURVE",
"106 0 OFFCURVE",
"159 0 CURVE SMOOTH",
"396 0 LINE SMOOTH",
"434 0 OFFCURVE",
"456 18 OFFCURVE",
"456 64 CURVE SMOOTH",
"456 120 LINE",
"451 120 LINE",
"451 94 LINE SMOOTH",
"451 68 OFFCURVE",
"441 59 OFFCURVE",
"417 59 CURVE SMOOTH",
"197 59 LINE SMOOTH",
"171 59 OFFCURVE",
"166 64 OFFCURVE",
"166 90 CURVE SMOOTH",
"166 260 LINE"
);
}
);
width = 627;
}
);
unicode = 0061;
},
{
glyphname = b;
layers = (
{
layerId = "D2A65651-33D6-4DD8-B320-C085CF253BF6";
paths = (
{
closed = 1;
nodes = (
"392 252 LINE",
"392 90 LINE SMOOTH",
"392 64 OFFCURVE",
"387 59 OFFCURVE",
"361 59 CURVE SMOOTH",
"333 59 LINE SMOOTH",
"307 59 OFFCURVE",
"295 68 OFFCURVE",
"295 88 CURVE SMOOTH",
"295 114 LINE",
"286 114 LINE",
"286 90 LINE SMOOTH",
"286 35 OFFCURVE",
"290 0 OFFCURVE",
"353 0 CURVE SMOOTH",
"553 0 LINE SMOOTH",
"606 0 OFFCURVE",
"632 26 OFFCURVE",
"632 79 CURVE SMOOTH",
"632 252 LINE"
);
},
{
closed = 1;
nodes = (
"632 234 LINE",
"632 406 LINE SMOOTH",
"632 459 OFFCURVE",
"606 485 OFFCURVE",
"553 485 CURVE SMOOTH",
"353 485 LINE SMOOTH",
"290 485 OFFCURVE",
"286 450 OFFCURVE",
"286 395 CURVE SMOOTH",
"286 371 LINE",
"295 371 LINE",
"295 397 LINE SMOOTH",
"295 418 OFFCURVE",
"307 426 OFFCURVE",
"333 426 CURVE SMOOTH",
"361 426 LINE SMOOTH",
"387 426 OFFCURVE",
"392 421 OFFCURVE",
"392 395 CURVE SMOOTH",
"392 234 LINE"
);
},
{
closed = 1;
nodes = (
"55 669 LINE",
"55 0 LINE",
"295 0 LINE",
"295 669 LINE"
);
}
);
width = 682;
},
{
layerId = "B7AC66F4-B7F6-40D5-96E7-A23DEF3F6247";
paths = (
{
closed = 1;
nodes = (
"461 261 LINE",
"461 90 LINE SMOOTH",
"461 64 OFFCURVE",
"456 59 OFFCURVE",
"430 59 CURVE SMOOTH",
"211 59 LINE SMOOTH",
"187 59 OFFCURVE",
"177 68 OFFCURVE",
"177 94 CURVE SMOOTH",
"177 118 LINE",
"172 117 LINE",
"172 64 LINE SMOOTH",
"172 18 OFFCURVE",
"194 0 OFFCURVE",
"232 0 CURVE SMOOTH",
"468 0 LINE SMOOTH",
"521 0 OFFCURVE",
"547 26 OFFCURVE",
"547 79 CURVE SMOOTH",
"547 261 LINE"
);
},
{
closed = 1;
nodes = (
"547 226 LINE",
"547 406 LINE SMOOTH",
"547 459 OFFCURVE",
"521 485 OFFCURVE",
"468 485 CURVE SMOOTH",
"232 485 LINE SMOOTH",
"194 485 OFFCURVE",
"172 467 OFFCURVE",
"172 421 CURVE SMOOTH",
"172 357 LINE",
"177 357 LINE",
"177 391 LINE SMOOTH",
"177 417 OFFCURVE",
"187 426 OFFCURVE",
"211 426 CURVE SMOOTH",
"430 426 LINE SMOOTH",
"456 426 OFFCURVE",
"461 421 OFFCURVE",
"461 395 CURVE SMOOTH",
"461 226 LINE"
);
},
{
closed = 1;
nodes = (
"90 669 LINE",
"90 0 LINE",
"176 0 LINE",
"176 669 LINE"
);
}
);
width = 627;
}
);
unicode = 0062;
},
{
glyphname = c;
layers = (
{
layerId = "D2A65651-33D6-4DD8-B320-C085CF253BF6";
paths = (
{
closed = 1;
nodes = (
"290 395 LINE SMOOTH",
"290 421 OFFCURVE",
"295 426 OFFCURVE",
"321 426 CURVE SMOOTH",
"339 426 LINE",
"339 485 LINE",
"129 485 LINE SMOOTH",
"76 485 OFFCURVE",
"50 459 OFFCURVE",
"50 406 CURVE SMOOTH",
"50 79 LINE SMOOTH",
"50 26 OFFCURVE",
"76 0 OFFCURVE",
"129 0 CURVE SMOOTH",
"338 0 LINE",
"338 59 LINE",
"321 59 LINE SMOOTH",
"295 59 OFFCURVE",
"290 64 OFFCURVE",
"290 90 CURVE SMOOTH"
);
},
{
closed = 1;
nodes = (
"384 303 LINE",
"616 303 LINE",
"616 406 LINE SMOOTH",
"616 459 OFFCURVE",
"590 485 OFFCURVE",
"537 485 CURVE SMOOTH",
"335 485 LINE",
"335 426 LINE",
"353 426 LINE SMOOTH",
"379 426 OFFCURVE",
"384 421 OFFCURVE",
"384 395 CURVE SMOOTH"
);
},
{
closed = 1;
nodes = (
"384 90 LINE SMOOTH",
"384 64 OFFCURVE",
"379 59 OFFCURVE",
"353 59 CURVE SMOOTH",
"335 59 LINE",
"335 0 LINE",
"537 0 LINE SMOOTH",
"590 0 OFFCURVE",
"616 26 OFFCURVE",
"616 79 CURVE SMOOTH",
"616 179 LINE",
"384 179 LINE"
);
}
);
width = 651;
},
{
layerId = "B7AC66F4-B7F6-40D5-96E7-A23DEF3F6247";
paths = (
{
closed = 1;
nodes = (
"166 395 LINE",
"166 421 OFFCURVE",
"171 426 OFFCURVE",
"197 426 CURVE SMOOTH",
"391 426 LINE",
"391 485 LINE",
"159 485 LINE SMOOTH",
"106 485 OFFCURVE",
"80 459 OFFCURVE",
"80 406 CURVE SMOOTH",
"80 79 LINE SMOOTH",
"80 26 OFFCURVE",
"106 0 OFFCURVE",
"159 0 CURVE SMOOTH",
"384 0 LINE",
"384 59 LINE",
"197 59 LINE SMOOTH",
"171 59 OFFCURVE",
"166 64 OFFCURVE",
"166 90 CURVE SMOOTH"
);
},
{
closed = 1;
nodes = (
"440 327 LINE",
"526 327 LINE",
"526 406 LINE SMOOTH",
"526 459 OFFCURVE",
"500 485 OFFCURVE",
"447 485 CURVE SMOOTH",
"213 485 LINE",
"213 426 LINE",
"409 426 LINE SMOOTH",
"435 426 OFFCURVE",
"440 421 OFFCURVE",
"440 395 CURVE SMOOTH"
);
},
{
closed = 1;
nodes = (
"440 90 LINE",
"440 64 OFFCURVE",
"435 59 OFFCURVE",
"409 59 CURVE SMOOTH",
"213 59 LINE",
"213 0 LINE",
"447 0 LINE SMOOTH",
"500 0 OFFCURVE",
"526 26 OFFCURVE",
"526 79 CURVE SMOOTH",
"526 158 LINE",
"440 158 LINE"
);
}
);
width = 586;
}
);
unicode = 0063;
},
{
glyphname = d;
layers = (
{
layerId = "D2A65651-33D6-4DD8-B320-C085CF253BF6";
paths = (
{
closed = 1;
nodes = (
"290 233 LINE",
"290 395 LINE SMOOTH",
"290 421 OFFCURVE",
"295 426 OFFCURVE",
"321 426 CURVE SMOOTH",
"349 426 LINE SMOOTH",
"375 426 OFFCURVE",
"387 418 OFFCURVE",
"387 397 CURVE SMOOTH",
"387 371 LINE",
"396 371 LINE",
"396 395 LINE SMOOTH",
"396 450 OFFCURVE",
"392 485 OFFCURVE",
"329 485 CURVE SMOOTH",
"129 485 LINE SMOOTH",
"76 485 OFFCURVE",
"50 459 OFFCURVE",
"50 406 CURVE SMOOTH",
"50 233 LINE"
);
},
{
closed = 1;
nodes = (
"387 669 LINE",
"387 0 LINE",
"627 0 LINE",
"627 669 LINE"
);
},
{
closed = 1;
nodes = (
"50 251 LINE",
"50 79 LINE SMOOTH",
"50 26 OFFCURVE",
"76 0 OFFCURVE",
"129 0 CURVE SMOOTH",
"329 0 LINE SMOOTH",
"392 0 OFFCURVE",
"396 35 OFFCURVE",
"396 90 CURVE SMOOTH",
"396 114 LINE",
"387 114 LINE",
"387 88 LINE SMOOTH",
"387 68 OFFCURVE",
"375 59 OFFCURVE",
"349 59 CURVE SMOOTH",
"321 59 LINE SMOOTH",
"295 59 OFFCURVE",
"290 64 OFFCURVE",
"290 90 CURVE SMOOTH",
"290 251 LINE"
);
}
);
width = 682;
},
{
layerId = "B7AC66F4-B7F6-40D5-96E7-A23DEF3F6247";
paths = (
{
closed = 1;
nodes = (
"166 226 LINE",
"166 395 LINE SMOOTH",
"166 421 OFFCURVE",
"171 426 OFFCURVE",
"197 426 CURVE SMOOTH",
"417 426 LINE SMOOTH",
"441 426 OFFCURVE",
"451 417 OFFCURVE",
"451 391 CURVE SMOOTH",
"451 357 LINE",
"456 357 LINE",
"456 421 LINE SMOOTH",
"456 467 OFFCURVE",
"434 485 OFFCURVE",
"396 485 CURVE SMOOTH",
"159 485 LINE SMOOTH",
"106 485 OFFCURVE",
"80 459 OFFCURVE",
"80 406 CURVE SMOOTH",
"80 226 LINE"
);
},
{
closed = 1;
nodes = (
"451 669 LINE",
"451 0 LINE",
"537 0 LINE",
"537 669 LINE"
);
},
{
closed = 1;
nodes = (
"80 261 LINE",
"80 79 LINE SMOOTH",
"80 26 OFFCURVE",
"106 0 OFFCURVE",
"159 0 CURVE SMOOTH",
"396 0 LINE SMOOTH",
"434 0 OFFCURVE",
"456 18 OFFCURVE",
"456 64 CURVE SMOOTH",
"456 117 LINE",
"451 118 LINE",
"451 94 LINE SMOOTH",
"451 68 OFFCURVE",
"441 59 OFFCURVE",
"417 59 CURVE SMOOTH",
"197 59 LINE SMOOTH",
"171 59 OFFCURVE",
"166 64 OFFCURVE",
"166 90 CURVE SMOOTH",
"166 261 LINE"
);
}
);
width = 627;
}
);
unicode = 0064;
},
{
glyphname = e;
layers = (
{
layerId = "D2A65651-33D6-4DD8-B320-C085CF253BF6";
paths = (
{
closed = 1;
nodes = (
"290 395 LINE SMOOTH",
"290 421 OFFCURVE",
"295 426 OFFCURVE",
"321 426 CURVE SMOOTH",
"360 426 LINE",
"360 485 LINE",
"129 485 LINE SMOOTH",
"76 485 OFFCURVE",
"50 459 OFFCURVE",
"50 406 CURVE SMOOTH",
"50 79 LINE SMOOTH",
"50 26 OFFCURVE",
"76 0 OFFCURVE",
"129 0 CURVE SMOOTH",
"353 0 LINE",
"353 59 LINE",
"321 59 LINE SMOOTH",
"295 59 OFFCURVE",
"290 64 OFFCURVE",
"290 90 CURVE SMOOTH"
);
},
{
closed = 1;
nodes = (
"405 257 LINE",
"637 257 LINE",
"637 406 LINE SMOOTH",
"637 459 OFFCURVE",
"611 485 OFFCURVE",
"558 485 CURVE SMOOTH",
"345 485 LINE",
"345 426 LINE",
"374 426 LINE SMOOTH",
"400 426 OFFCURVE",
"405 421 OFFCURVE",
"405 395 CURVE SMOOTH"
);
},
{
closed = 1;
nodes = (
"405 90 LINE SMOOTH",
"405 64 OFFCURVE",
"400 59 OFFCURVE",
"374 59 CURVE SMOOTH",
"345 59 LINE",
"345 0 LINE",
"558 0 LINE SMOOTH",
"611 0 OFFCURVE",
"637 26 OFFCURVE",
"637 79 CURVE SMOOTH",
"637 164 LINE",
"405 164 LINE"
);
},
{
closed = 1;
nodes = (
"637 278 LINE",
"170 278 LINE",
"170 219 LINE",
"637 219 LINE"
);
}
);
width = 682;
},
{
layerId = "B7AC66F4-B7F6-40D5-96E7-A23DEF3F6247";
paths = (
{
closed = 1;
nodes = (
"166 395 LINE",
"166 421 OFFCURVE",
"171 426 OFFCURVE",
"197 426 CURVE SMOOTH",
"412 426 LINE",
"412 485 LINE",
"159 485 LINE SMOOTH",
"106 485 OFFCURVE",
"80 459 OFFCURVE",
"80 406 CURVE SMOOTH",
"80 79 LINE SMOOTH",
"80 26 OFFCURVE",
"106 0 OFFCURVE",
"159 0 CURVE SMOOTH",
"405 0 LINE",
"405 59 LINE",
"197 59 LINE SMOOTH",
"171 59 OFFCURVE",
"166 64 OFFCURVE",
"166 90 CURVE SMOOTH"
);
},
{
closed = 1;
nodes = (
"462 232 LINE",
"547 232 LINE",
"547 406 LINE SMOOTH",
"547 459 OFFCURVE",
"521 485 OFFCURVE",
"468 485 CURVE SMOOTH",
"214 485 LINE",
"214 426 LINE",
"431 426 LINE SMOOTH",
"457 426 OFFCURVE",
"462 421 OFFCURVE",
"462 395 CURVE SMOOTH"
);
},
{
closed = 1;
nodes = (
"459 90 LINE",
"459 64 OFFCURVE",
"454 59 OFFCURVE",
"428 59 CURVE SMOOTH",
"214 59 LINE",
"214 0 LINE",
"465 0 LINE SMOOTH",
"518 0 OFFCURVE",
"544 26 OFFCURVE",
"544 79 CURVE SMOOTH",
"544 137 LINE",
"459 137 LINE"
);
},
{
closed = 1;
nodes = (
"547 278 LINE",
"119 278 LINE",
"119 219 LINE",
"547 219 LINE"
);
}
);
width = 617;
}
);
unicode = 0065;
},
{
glyphname = f;
layers = (
{
layerId = "D2A65651-33D6-4DD8-B320-C085CF253BF6";
paths = (
{
closed = 1;
nodes = (
"322 579 LINE SMOOTH",
"322 605 OFFCURVE",
"327 610 OFFCURVE",
"353 610 CURVE SMOOTH",
"432 610 LINE",
"432 669 LINE",
"161 669 LINE SMOOTH",
"108 669 OFFCURVE",
"82 643 OFFCURVE",
"82 590 CURVE SMOOTH",
"82 0 LINE",
"322 0 LINE"
);
},
{
closed = 1;
nodes = (
"432 485 LINE",
"10 485 LINE",
"10 426 LINE",
"432 426 LINE"
);
}
);
width = 437;
},
{
layerId = "B7AC66F4-B7F6-40D5-96E7-A23DEF3F6247";
paths = (
{
closed = 1;
nodes = (
"218 575 LINE",
"218 601 OFFCURVE",
"223 606 OFFCURVE",
"249 606 CURVE SMOOTH",
"362 606 LINE",
"362 669 LINE",
"211 669 LINE SMOOTH",
"158 669 OFFCURVE",
"132 643 OFFCURVE",
"132 590 CURVE SMOOTH",
"132 0 LINE",
"218 0 LINE"
);
},
{
closed = 1;
nodes = (
"362 485 LINE",
"60 485 LINE",
"60 426 LINE",
"362 426 LINE"
);
}
);
width = 372;
}
);
unicode = 0066;
},
{
glyphname = g;
layers = (
{
layerId = "D2A65651-33D6-4DD8-B320-C085CF253BF6";
paths = (
{
closed = 1;
nodes = (
"50 253 LINE",
"50 79 LINE SMOOTH",
"50 26 OFFCURVE",
"76 0 OFFCURVE",
"129 0 CURVE SMOOTH",
"329 0 LINE SMOOTH",
"392 0 OFFCURVE",
"396 35 OFFCURVE",
"396 90 CURVE SMOOTH",
"396 114 LINE",
"387 114 LINE",
"387 88 LINE SMOOTH",
"387 68 OFFCURVE",
"375 59 OFFCURVE",
"349 59 CURVE SMOOTH",
"321 59 LINE SMOOTH",
"295 59 OFFCURVE",
"290 64 OFFCURVE",
"290 90 CURVE SMOOTH",
"290 253 LINE"
);
},
{
closed = 1;
nodes = (
"290 235 LINE",
"290 395 LINE SMOOTH",
"290 421 OFFCURVE",
"295 426 OFFCURVE",
"321 426 CURVE SMOOTH",
"349 426 LINE SMOOTH",
"375 426 OFFCURVE",
"387 418 OFFCURVE",
"387 397 CURVE SMOOTH",
"387 371 LINE",
"396 371 LINE",
"396 395 LINE SMOOTH",
"396 450 OFFCURVE",
"392 485 OFFCURVE",
"329 485 CURVE SMOOTH",
"129 485 LINE SMOOTH",
"76 485 OFFCURVE",
"50 459 OFFCURVE",
"50 406 CURVE SMOOTH",
"50 235 LINE"
);
},
{
closed = 1;
nodes = (
"387 -51 LINE SMOOTH",
"387 -77 OFFCURVE",
"382 -82 OFFCURVE",
"356 -82 CURVE SMOOTH",
"83 -82 LINE",
"83 -141 LINE",
"548 -141 LINE SMOOTH",
"601 -141 OFFCURVE",
"627 -115 OFFCURVE",
"627 -62 CURVE SMOOTH",
"627 40 LINE",
"387 40 LINE"
);
},
{
closed = 1;
nodes = (
"627 33 LINE",
"627 485 LINE",
"387 485 LINE",
"387 33 LINE"
);
}
);
width = 682;
},
{
layerId = "B7AC66F4-B7F6-40D5-96E7-A23DEF3F6247";
paths = (
{
closed = 1;
nodes = (
"80 261 LINE",
"80 79 LINE SMOOTH",
"80 26 OFFCURVE",
"106 0 OFFCURVE",
"159 0 CURVE SMOOTH",
"396 0 LINE SMOOTH",
"434 0 OFFCURVE",
"456 18 OFFCURVE",
"456 64 CURVE SMOOTH",
"456 117 LINE",
"451 118 LINE",
"451 94 LINE SMOOTH",
"451 68 OFFCURVE",
"441 59 OFFCURVE",
"417 59 CURVE SMOOTH",
"197 59 LINE SMOOTH",
"171 59 OFFCURVE",
"166 64 OFFCURVE",
"166 90 CURVE SMOOTH",
"166 261 LINE"
);
},
{
closed = 1;
nodes = (
"166 225 LINE",
"166 395 LINE SMOOTH",
"166 421 OFFCURVE",
"171 426 OFFCURVE",
"197 426 CURVE SMOOTH",
"417 426 LINE SMOOTH",
"441 426 OFFCURVE",
"451 417 OFFCURVE",
"451 391 CURVE SMOOTH",
"451 358 LINE",
"456 358 LINE",
"456 421 LINE SMOOTH",
"456 467 OFFCURVE",
"434 485 OFFCURVE",
"396 485 CURVE SMOOTH",
"159 485 LINE SMOOTH",
"106 485 OFFCURVE",
"80 459 OFFCURVE",
"80 406 CURVE SMOOTH",
"80 225 LINE"
);
},
{
closed = 1;
nodes = (
"452 -51 LINE",
"452 -77 OFFCURVE",
"447 -82 OFFCURVE",
"421 -82 CURVE SMOOTH",
"97 -82 LINE",
"97 -141 LINE",
"459 -141 LINE SMOOTH",
"512 -141 OFFCURVE",
"538 -115 OFFCURVE",
"538 -62 CURVE SMOOTH",
"538 13 LINE",
"452 13 LINE"
);
},
{
closed = 1;
nodes = (
"537 2 LINE",
"537 485 LINE",
"451 485 LINE",
"451 2 LINE"
);
}
);
width = 617;
}
);
unicode = 0067;
},
{
glyphname = h;
layers = (
{
layerId = "D2A65651-33D6-4DD8-B320-C085CF253BF6";
paths = (
{
closed = 1;
nodes = (
"632 0 LINE",
"632 406 LINE SMOOTH",
"632 459 OFFCURVE",
"606 485 OFFCURVE",
"553 485 CURVE SMOOTH",
"353 485 LINE SMOOTH",
"290 485 OFFCURVE",
"286 450 OFFCURVE",
"286 395 CURVE SMOOTH",
"286 371 LINE",
"295 371 LINE",
"295 397 LINE SMOOTH",
"295 418 OFFCURVE",
"307 426 OFFCURVE",
"333 426 CURVE SMOOTH",
"361 426 LINE SMOOTH",
"387 426 OFFCURVE",
"392 421 OFFCURVE",
"392 395 CURVE SMOOTH",
"392 0 LINE"
);
},
{
closed = 1;
nodes = (
"295 0 LINE",
"295 669 LINE",
"55 669 LINE",
"55 0 LINE"
);
}
);
width = 682;
},
{
layerId = "B7AC66F4-B7F6-40D5-96E7-A23DEF3F6247";
paths = (
{
closed = 1;
nodes = (
"548 0 LINE",
"548 406 LINE SMOOTH",
"548 459 OFFCURVE",
"522 485 OFFCURVE",
"469 485 CURVE SMOOTH",
"232 485 LINE SMOOTH",
"194 485 OFFCURVE",
"172 467 OFFCURVE",
"172 421 CURVE SMOOTH",
"172 360 LINE",
"177 360 LINE",
"177 391 LINE SMOOTH",
"177 417 OFFCURVE",
"187 426 OFFCURVE",
"211 426 CURVE SMOOTH",
"431 426 LINE SMOOTH",
"457 426 OFFCURVE",
"462 421 OFFCURVE",
"462 395 CURVE SMOOTH",
"462 0 LINE"
);
},
{
closed = 1;
nodes = (
"176 0 LINE",
"176 669 LINE",
"90 669 LINE",
"90 0 LINE"
);
}
);
width = 628;
}
);
unicode = 0068;
},
{
glyphname = i;
layers = (
{
layerId = "D2A65651-33D6-4DD8-B320-C085CF253BF6";
paths = (
{
closed = 1;
nodes = (
"295 0 LINE",
"295 485 LINE",
"55 485 LINE",
"55 0 LINE"
);
},
{
closed = 1;
nodes = (
"51 543 LINE",
"299 543 LINE",
"299 669 LINE",
"51 669 LINE"
);
}
);
width = 350;
},
{
layerId = "B7AC66F4-B7F6-40D5-96E7-A23DEF3F6247";
paths = (
{
closed = 1;
nodes = (
"186 0 LINE",
"186 485 LINE",
"100 485 LINE",
"100 0 LINE"
);
},
{
closed = 1;
nodes = (
"98 584 LINE",
"189 584 LINE",
"189 670 LINE",
"98 670 LINE"
);
}
);
width = 286;
}
);
unicode = 0069;
},
{
glyphname = j;
layers = (
{
layerId = "D2A65651-33D6-4DD8-B320-C085CF253BF6";
paths = (
{
closed = 1;
nodes = (
"55 -51 LINE SMOOTH",
"55 -77 OFFCURVE",
"50 -82 OFFCURVE",
"24 -82 CURVE SMOOTH",
"-26 -82 LINE",
"-26 -141 LINE",
"216 -141 LINE SMOOTH",
"269 -141 OFFCURVE",
"295 -115 OFFCURVE",
"295 -62 CURVE SMOOTH",
"295 485 LINE",
"55 485 LINE"
);
},
{
closed = 1;
nodes = (
"51 543 LINE",
"299 543 LINE",
"299 669 LINE",
"51 669 LINE"
);
}
);
width = 350;
},
{
layerId = "B7AC66F4-B7F6-40D5-96E7-A23DEF3F6247";
paths = (
{
closed = 1;
nodes = (
"100 -51 LINE",
"100 -77 OFFCURVE",
"95 -82 OFFCURVE",
"69 -82 CURVE SMOOTH",
"-40 -82 LINE",
"-40 -141 LINE",
"108 -141 LINE SMOOTH",
"161 -141 OFFCURVE",
"187 -115 OFFCURVE",
"187 -62 CURVE SMOOTH",
"187 485 LINE",
"100 485 LINE"
);
},
{
closed = 1;
nodes = (
"98 584 LINE",
"189 584 LINE",
"189 670 LINE",
"98 670 LINE"
);
}
);
width = 277;
}
);
unicode = 006A;
},
{
glyphname = k;
layers = (
{
layerId = "D2A65651-33D6-4DD8-B320-C085CF253BF6";
paths = (
{
closed = 1;
nodes = (
"295 0 LINE",
"295 669 LINE",
"55 669 LINE",
"55 0 LINE"
);
},
{
closed = 1;
nodes = (
"295 245 LINE",
"427 0 LINE",
"667 0 LINE",
"526 245 LINE"
);
},
{
closed = 1;
nodes = (
"526 245 LINE",
"667 485 LINE",
"429 485 LINE",
"295 245 LINE"
);
}
);
width = 683;
},
{
layerId = "B7AC66F4-B7F6-40D5-96E7-A23DEF3F6247";
paths = (
{
closed = 1;
nodes = (
"176 0 LINE",
"176 669 LINE",
"90 669 LINE",
"90 0 LINE"
);
},
{
closed = 1;
nodes = (
"206 245 LINE",
"468 0 LINE",
"582 0 LINE",
"316 245 LINE"
);
},
{
closed = 1;
nodes = (
"316 245 LINE",
"582 485 LINE",
"468 485 LINE",
"206 245 LINE"
);
}
);
width = 603;
}
);
unicode = 006B;
},
{
glyphname = l;
layers = (
{
layerId = "D2A65651-33D6-4DD8-B320-C085CF253BF6";
paths = (
{
closed = 1;
nodes = (
"300 0 LINE",
"300 669 LINE",
"60 669 LINE",
"60 0 LINE"
);
}
);
width = 360;
},
{
layerId = "B7AC66F4-B7F6-40D5-96E7-A23DEF3F6247";
paths = (
{
closed = 1;
nodes = (
"186 0 LINE",
"186 669 LINE",
"100 669 LINE",
"100 0 LINE"
);
}
);
width = 286;
}
);
unicode = 006C;
},
{
glyphname = m;
layers = (
{
layerId = "D2A65651-33D6-4DD8-B320-C085CF253BF6";
paths = (
{
closed = 1;
nodes = (
"632 0 LINE",
"632 406 LINE SMOOTH",
"632 459 OFFCURVE",
"606 485 OFFCURVE",
"553 485 CURVE SMOOTH",
"353 485 LINE SMOOTH",
"290 485 OFFCURVE",
"286 450 OFFCURVE",
"286 395 CURVE SMOOTH",
"286 371 LINE",
"295 371 LINE",
"295 397 LINE SMOOTH",
"295 418 OFFCURVE",
"307 426 OFFCURVE",
"333 426 CURVE SMOOTH",
"361 426 LINE SMOOTH",
"387 426 OFFCURVE",
"392 421 OFFCURVE",
"392 395 CURVE SMOOTH",
"392 0 LINE"
);
},
{
closed = 1;
nodes = (
"969 0 LINE",
"969 406 LINE SMOOTH",
"969 459 OFFCURVE",
"943 485 OFFCURVE",
"890 485 CURVE SMOOTH",
"695 485 LINE SMOOTH",
"638 485 OFFCURVE",
"623 450 OFFCURVE",
"623 395 CURVE SMOOTH",
"623 361 LINE",
"632 361 LINE",
"632 387 LINE SMOOTH",
"632 408 OFFCURVE",
"642 426 OFFCURVE",
"671 426 CURVE SMOOTH",
"698 426 LINE SMOOTH",
"724 426 OFFCURVE",
"729 421 OFFCURVE",
"729 395 CURVE SMOOTH",
"729 0 LINE"
);
},
{
closed = 1;
nodes = (
"295 0 LINE",
"295 485 LINE",
"55 485 LINE",
"55 0 LINE"
);
}
);
width = 1019;
},
{
layerId = "B7AC66F4-B7F6-40D5-96E7-A23DEF3F6247";
paths = (
{
closed = 1;
nodes = (
"537 0 LINE",
"537 406 LINE SMOOTH",
"537 459 OFFCURVE",
"511 485 OFFCURVE",
"458 485 CURVE SMOOTH",
"231 485 LINE SMOOTH",
"193 485 OFFCURVE",
"171 467 OFFCURVE",
"171 421 CURVE SMOOTH",
"171 358 LINE",
"176 358 LINE",
"176 391 LINE SMOOTH",
"176 417 OFFCURVE",
"186 426 OFFCURVE",
"210 426 CURVE SMOOTH",
"420 426 LINE SMOOTH",
"446 426 OFFCURVE",
"451 421 OFFCURVE",
"451 395 CURVE SMOOTH",
"451 0 LINE"
);
},
{
closed = 1;
nodes = (
"884 0 LINE",
"884 406 LINE SMOOTH",
"884 459 OFFCURVE",
"858 485 OFFCURVE",
"805 485 CURVE SMOOTH",
"593 485 LINE SMOOTH",
"553 485 OFFCURVE",
"528 466 OFFCURVE",
"528 420 CURVE SMOOTH",
"528 357 LINE",
"537 357 LINE",
"537 390 LINE SMOOTH",
"537 416 OFFCURVE",
"547 426 OFFCURVE",
"572 426 CURVE SMOOTH",
"767 426 LINE SMOOTH",
"793 426 OFFCURVE",
"798 421 OFFCURVE",
"798 395 CURVE SMOOTH",
"798 0 LINE"
);
},
{
closed = 1;
nodes = (
"176 0 LINE",
"176 485 LINE",
"90 485 LINE",
"90 0 LINE"
);
}
);
width = 964;
}
);
unicode = 006D;
},
{
glyphname = n;
layers = (
{
layerId = "D2A65651-33D6-4DD8-B320-C085CF253BF6";
paths = (
{
closed = 1;
nodes = (
"295 0 LINE",
"295 485 LINE",
"55 485 LINE",
"55 0 LINE"
);
},
{
closed = 1;
nodes = (
"632 0 LINE",
"632 406 LINE SMOOTH",
"632 459 OFFCURVE",
"606 485 OFFCURVE",
"553 485 CURVE SMOOTH",
"353 485 LINE SMOOTH",
"290 485 OFFCURVE",
"286 450 OFFCURVE",
"286 395 CURVE SMOOTH",
"286 371 LINE",
"295 371 LINE",
"295 397 LINE SMOOTH",
"295 418 OFFCURVE",
"307 426 OFFCURVE",
"333 426 CURVE SMOOTH",
"361 426 LINE SMOOTH",
"387 426 OFFCURVE",
"392 421 OFFCURVE",
"392 395 CURVE SMOOTH",
"392 0 LINE"
);
}
);
width = 682;
},
{
layerId = "B7AC66F4-B7F6-40D5-96E7-A23DEF3F6247";
paths = (
{
closed = 1;
nodes = (
"176 0 LINE",
"176 485 LINE",
"90 485 LINE",
"90 0 LINE"
);
},
{
closed = 1;
nodes = (
"547 0 LINE",
"547 406 LINE SMOOTH",
"547 459 OFFCURVE",
"521 485 OFFCURVE",
"468 485 CURVE SMOOTH",
"232 485 LINE SMOOTH",
"194 485 OFFCURVE",
"172 467 OFFCURVE",
"172 421 CURVE SMOOTH",
"172 358 LINE",
"177 358 LINE",
"177 391 LINE SMOOTH",
"177 417 OFFCURVE",
"187 426 OFFCURVE",
"211 426 CURVE SMOOTH",
"430 426 LINE SMOOTH",
"456 426 OFFCURVE",
"461 421 OFFCURVE",
"461 395 CURVE SMOOTH",
"461 0 LINE"
);
}
);
width = 627;
}
);
unicode = 006E;
},
{
glyphname = o;
layers = (
{
layerId = "D2A65651-33D6-4DD8-B320-C085CF253BF6";
paths = (
{
closed = 1;
nodes = (
"390 90 LINE SMOOTH",
"390 64 OFFCURVE",
"385 59 OFFCURVE",
"359 59 CURVE SMOOTH",
"333 59 LINE",
"333 0 LINE",
"551 0 LINE SMOOTH",
"604 0 OFFCURVE",
"630 26 OFFCURVE",
"630 79 CURVE SMOOTH",
"630 406 LINE SMOOTH",
"630 459 OFFCURVE",
"604 485 OFFCURVE",
"551 485 CURVE SMOOTH",
"335 485 LINE",
"335 426 LINE",
"359 426 LINE SMOOTH",
"385 426 OFFCURVE",
"390 421 OFFCURVE",
"390 395 CURVE SMOOTH"
);
},
{
closed = 1;
nodes = (
"290 395 LINE SMOOTH",
"290 421 OFFCURVE",
"295 426 OFFCURVE",
"321 426 CURVE SMOOTH",
"339 426 LINE",
"339 485 LINE",
"129 485 LINE SMOOTH",
"76 485 OFFCURVE",
"50 459 OFFCURVE",
"50 406 CURVE SMOOTH",
"50 79 LINE SMOOTH",
"50 26 OFFCURVE",
"76 0 OFFCURVE",
"129 0 CURVE SMOOTH",
"338 0 LINE",
"338 59 LINE",
"321 59 LINE SMOOTH",
"295 59 OFFCURVE",
"290 64 OFFCURVE",
"290 90 CURVE SMOOTH"
);
}
);
width = 680;
},
{
layerId = "B7AC66F4-B7F6-40D5-96E7-A23DEF3F6247";
paths = (
{
closed = 1;
nodes = (
"455 90 LINE",
"455 64 OFFCURVE",
"450 59 OFFCURVE",
"424 59 CURVE SMOOTH",
"216 59 LINE",
"216 0 LINE",
"461 0 LINE SMOOTH",
"514 0 OFFCURVE",
"540 26 OFFCURVE",
"540 79 CURVE SMOOTH",
"540 406 LINE SMOOTH",
"540 459 OFFCURVE",
"514 485 OFFCURVE",
"461 485 CURVE SMOOTH",
"391 485 LINE",
"391 426 LINE",
"424 426 LINE SMOOTH",
"450 426 OFFCURVE",
"455 421 OFFCURVE",
"455 395 CURVE SMOOTH"
);
},
{
closed = 1;
nodes = (
"165 395 LINE",
"165 421 OFFCURVE",
"170 426 OFFCURVE",
"196 426 CURVE SMOOTH",
"397 426 LINE",
"397 485 LINE",
"159 485 LINE SMOOTH",
"106 485 OFFCURVE",
"80 459 OFFCURVE",
"80 406 CURVE SMOOTH",
"80 79 LINE SMOOTH",
"80 26 OFFCURVE",
"106 0 OFFCURVE",
"159 0 CURVE SMOOTH",
"394 0 LINE",
"394 59 LINE",
"196 59 LINE SMOOTH",
"170 59 OFFCURVE",
"165 64 OFFCURVE",
"165 90 CURVE SMOOTH"
);
}
);
width = 620;
}
);
unicode = 006F;
},
{
glyphname = p;
layers = (
{
layerId = "D2A65651-33D6-4DD8-B320-C085CF253BF6";
paths = (
{
closed = 1;
nodes = (
"632 233 LINE",
"632 405 LINE SMOOTH",
"632 458 OFFCURVE",
"606 484 OFFCURVE",
"553 484 CURVE SMOOTH",
"353 484 LINE SMOOTH",
"290 484 OFFCURVE",
"286 449 OFFCURVE",
"286 394 CURVE SMOOTH",
"286 370 LINE",
"295 370 LINE",
"295 396 LINE SMOOTH",
"295 417 OFFCURVE",
"307 425 OFFCURVE",
"333 425 CURVE SMOOTH",
"361 425 LINE SMOOTH",
"387 425 OFFCURVE",
"392 420 OFFCURVE",
"392 394 CURVE SMOOTH",
"392 233 LINE"
);
},
{
closed = 1;
nodes = (
"295 -141 LINE",
"295 391 LINE",
"290 391 LINE",
"290 484 LINE",
"55 484 LINE",
"55 -141 LINE"
);
},
{
closed = 1;
nodes = (
"392 251 LINE",
"392 90 LINE SMOOTH",
"392 64 OFFCURVE",
"387 59 OFFCURVE",
"361 59 CURVE SMOOTH",
"333 59 LINE SMOOTH",
"307 59 OFFCURVE",
"295 68 OFFCURVE",
"295 88 CURVE SMOOTH",
"295 114 LINE",
"286 114 LINE",
"286 90 LINE SMOOTH",
"286 35 OFFCURVE",
"290 0 OFFCURVE",
"353 0 CURVE SMOOTH",
"553 0 LINE SMOOTH",
"606 0 OFFCURVE",
"632 26 OFFCURVE",
"632 79 CURVE SMOOTH",
"632 251 LINE"
);
}
);
width = 682;
},
{
layerId = "B7AC66F4-B7F6-40D5-96E7-A23DEF3F6247";
paths = (
{
closed = 1;
nodes = (
"557 225 LINE",
"557 406 LINE SMOOTH",
"557 459 OFFCURVE",
"531 485 OFFCURVE",
"478 485 CURVE SMOOTH",
"231 485 LINE SMOOTH",
"193 485 OFFCURVE",
"171 467 OFFCURVE",
"171 421 CURVE SMOOTH",
"171 357 LINE",
"176 357 LINE",
"176 391 LINE SMOOTH",
"176 417 OFFCURVE",
"186 426 OFFCURVE",
"210 426 CURVE SMOOTH",
"440 426 LINE SMOOTH",
"466 426 OFFCURVE",
"471 421 OFFCURVE",
"471 395 CURVE SMOOTH",
"471 225 LINE"
);
},
{
closed = 1;
nodes = (
"176 -141 LINE",
"176 421 LINE",
"176 432 LINE",
"176 485 LINE",
"90 485 LINE",
"90 -141 LINE"
);
},
{
closed = 1;
nodes = (
"471 261 LINE",
"471 90 LINE SMOOTH",
"471 64 OFFCURVE",
"466 59 OFFCURVE",
"440 59 CURVE SMOOTH",
"210 59 LINE SMOOTH",
"186 59 OFFCURVE",
"176 68 OFFCURVE",
"176 94 CURVE SMOOTH",
"176 118 LINE",
"171 117 LINE",
"171 64 LINE SMOOTH",
"171 18 OFFCURVE",
"193 0 OFFCURVE",
"231 0 CURVE SMOOTH",
"478 0 LINE SMOOTH",
"531 0 OFFCURVE",
"557 26 OFFCURVE",
"557 79 CURVE SMOOTH",
"557 261 LINE"
);
}
);
width = 637;
}
);
unicode = 0070;
},
{
glyphname = q;
layers = (
{
layerId = "D2A65651-33D6-4DD8-B320-C085CF253BF6";
paths = (
{
closed = 1;
nodes = (
"290 233 LINE",
"290 394 LINE SMOOTH",
"290 420 OFFCURVE",
"295 425 OFFCURVE",
"321 425 CURVE SMOOTH",
"349 425 LINE SMOOTH",
"375 425 OFFCURVE",
"387 417 OFFCURVE",
"387 396 CURVE SMOOTH",
"387 370 LINE",
"396 370 LINE",
"396 394 LINE SMOOTH",
"396 449 OFFCURVE",
"392 484 OFFCURVE",
"329 484 CURVE SMOOTH",
"129 484 LINE SMOOTH",
"76 484 OFFCURVE",
"50 458 OFFCURVE",
"50 405 CURVE SMOOTH",
"50 233 LINE"
);
},
{
closed = 1;
nodes = (
"627 -141 LINE",
"627 484 LINE",
"392 484 LINE",
"392 391 LINE",
"387 391 LINE",
"387 -141 LINE"
);
},
{
closed = 1;
nodes = (
"50 251 LINE",
"50 79 LINE SMOOTH",
"50 26 OFFCURVE",
"76 0 OFFCURVE",
"129 0 CURVE SMOOTH",
"329 0 LINE SMOOTH",
"392 0 OFFCURVE",
"396 35 OFFCURVE",
"396 90 CURVE SMOOTH",
"396 114 LINE",
"387 114 LINE",
"387 88 LINE SMOOTH",
"387 68 OFFCURVE",
"375 59 OFFCURVE",
"349 59 CURVE SMOOTH",
"321 59 LINE SMOOTH",
"295 59 OFFCURVE",
"290 64 OFFCURVE",
"290 90 CURVE SMOOTH",
"290 251 LINE"
);
}
);
width = 682;
},
{
layerId = "B7AC66F4-B7F6-40D5-96E7-A23DEF3F6247";
paths = (
{
closed = 1;
nodes = (
"201 225 LINE",
"201 395 LINE SMOOTH",
"201 421 OFFCURVE",
"206 426 OFFCURVE",
"232 426 CURVE SMOOTH",
"462 426 LINE SMOOTH",
"486 426 OFFCURVE",
"496 417 OFFCURVE",
"496 391 CURVE SMOOTH",
"496 357 LINE",
"501 357 LINE",
"501 421 LINE SMOOTH",
"501 467 OFFCURVE",
"479 485 OFFCURVE",
"441 485 CURVE SMOOTH",
"194 485 LINE SMOOTH",
"141 485 OFFCURVE",
"115 459 OFFCURVE",
"115 406 CURVE SMOOTH",
"115 225 LINE"
);
},
{
closed = 1;
nodes = (
"582 -141 LINE",
"582 485 LINE",
"496 485 LINE",
"496 432 LINE",
"496 421 LINE",
"496 -141 LINE"
);
},
{
closed = 1;
nodes = (
"115 261 LINE",
"115 79 LINE SMOOTH",
"115 26 OFFCURVE",
"141 0 OFFCURVE",
"194 0 CURVE SMOOTH",
"441 0 LINE SMOOTH",
"479 0 OFFCURVE",
"501 18 OFFCURVE",
"501 64 CURVE SMOOTH",
"501 117 LINE",
"496 118 LINE",
"496 94 LINE SMOOTH",
"496 68 OFFCURVE",
"486 59 OFFCURVE",
"462 59 CURVE SMOOTH",
"232 59 LINE SMOOTH",
"206 59 OFFCURVE",
"201 64 OFFCURVE",
"201 90 CURVE SMOOTH",
"201 261 LINE"
);
}
);
width = 630;
}
);
unicode = 0071;
},
{
glyphname = r;
layers = (
{
layerId = "D2A65651-33D6-4DD8-B320-C085CF253BF6";
paths = (
{
closed = 1;
nodes = (
"464 488 LINE",
"423 488 LINE SMOOTH",
"324 488 OFFCURVE",
"287 445 OFFCURVE",
"287 380 CURVE SMOOTH",
"287 253 LINE",
"295 253 LINE",
"295 338 LINE SMOOTH",
"295 381 OFFCURVE",
"320 414 OFFCURVE",
"374 414 CURVE SMOOTH",
"464 414 LINE"
);
},
{
closed = 1;
nodes = (
"295 0 LINE",
"295 485 LINE",
"55 485 LINE",
"55 0 LINE"
);
}
);
width = 469;
},
{
layerId = "B7AC66F4-B7F6-40D5-96E7-A23DEF3F6247";
paths = (
{
closed = 1;
nodes = (
"358 485 LINE",
"254 485 LINE SMOOTH",
"198 485 OFFCURVE",
"172 441 OFFCURVE",
"172 393 CURVE SMOOTH",
"172 323 LINE",
"176 323 LINE",
"176 349 LINE SMOOTH",
"176 399 OFFCURVE",
"196 424 OFFCURVE",
"241 424 CURVE SMOOTH",
"358 424 LINE"
);
},
{
closed = 1;
nodes = (
"176 0 LINE",
"176 485 LINE",
"90 485 LINE",
"90 0 LINE"
);
}
);
width = 368;
}
);
unicode = 0072;
},
{
glyphname = s;
layers = (
{
layerId = "D2A65651-33D6-4DD8-B320-C085CF253BF6";
paths = (
{
closed = 1;
nodes = (
"353 90 LINE SMOOTH",
"353 64 OFFCURVE",
"348 59 OFFCURVE",
"322 59 CURVE SMOOTH",
"303 59 LINE SMOOTH",
"277 59 OFFCURVE",
"272 64 OFFCURVE",
"272 90 CURVE SMOOTH",
"272 162 LINE",
"40 162 LINE",
"40 79 LINE SMOOTH",
"40 26 OFFCURVE",
"66 0 OFFCURVE",
"119 0 CURVE SMOOTH",
"514 0 LINE SMOOTH",
"567 0 OFFCURVE",
"593 26 OFFCURVE",
"593 79 CURVE SMOOTH",
"593 192 LINE SMOOTH",
"593 245 OFFCURVE",
"567 271 OFFCURVE",
"514 271 CURVE SMOOTH",
"306 271 LINE SMOOTH",
"280 271 OFFCURVE",
"275 276 OFFCURVE",
"275 302 CURVE SMOOTH",
"275 395 LINE SMOOTH",
"275 421 OFFCURVE",
"280 426 OFFCURVE",
"306 426 CURVE SMOOTH",
"319 426 LINE SMOOTH",
"345 426 OFFCURVE",
"350 421 OFFCURVE",
"350 395 CURVE SMOOTH",
"350 323 LINE",
"582 323 LINE",
"582 406 LINE SMOOTH",
"582 459 OFFCURVE",
"556 485 OFFCURVE",
"503 485 CURVE SMOOTH",
"114 485 LINE SMOOTH",
"61 485 OFFCURVE",
"35 459 OFFCURVE",
"35 406 CURVE SMOOTH",
"35 291 LINE SMOOTH",
"35 238 OFFCURVE",
"61 212 OFFCURVE",
"114 212 CURVE SMOOTH",
"322 212 LINE SMOOTH",
"348 212 OFFCURVE",
"353 207 OFFCURVE",
"353 181 CURVE SMOOTH"
);
}
);
width = 633;
},
{
layerId = "B7AC66F4-B7F6-40D5-96E7-A23DEF3F6247";
paths = (
{
closed = 1;
nodes = (
"421 89 LINE",
"421 63 OFFCURVE",
"416 58 OFFCURVE",
"390 58 CURVE SMOOTH",
"198 58 LINE SMOOTH",
"172 58 OFFCURVE",
"167 63 OFFCURVE",
"167 89 CURVE SMOOTH",
"167 131 LINE",
"82 131 LINE",
"82 79 LINE SMOOTH",
"82 26 OFFCURVE",
"108 0 OFFCURVE",
"161 0 CURVE SMOOTH",
"427 0 LINE SMOOTH",
"480 0 OFFCURVE",
"506 26 OFFCURVE",
"506 79 CURVE SMOOTH",
"506 192 LINE SMOOTH",
"506 245 OFFCURVE",
"480 271 OFFCURVE",
"427 271 CURVE SMOOTH",
"196 271 LINE SMOOTH",
"170 271 OFFCURVE",
"165 276 OFFCURVE",
"165 302 CURVE SMOOTH",
"165 396 LINE SMOOTH",
"165 422 OFFCURVE",
"170 427 OFFCURVE",
"196 427 CURVE SMOOTH",
"389 427 LINE SMOOTH",
"415 427 OFFCURVE",
"420 422 OFFCURVE",
"420 396 CURVE SMOOTH",
"420 354 LINE",
"504 354 LINE",
"504 406 LINE SMOOTH",
"504 459 OFFCURVE",
"478 485 OFFCURVE",
"425 485 CURVE SMOOTH",
"159 485 LINE SMOOTH",
"106 485 OFFCURVE",
"80 459 OFFCURVE",
"80 406 CURVE SMOOTH",
"80 291 LINE SMOOTH",
"80 238 OFFCURVE",
"106 212 OFFCURVE",
"159 212 CURVE SMOOTH",
"390 212 LINE SMOOTH",
"416 212 OFFCURVE",
"421 207 OFFCURVE",
"421 181 CURVE SMOOTH"
);
}
);
width = 576;
}
);
unicode = 0073;
},
{
glyphname = t;
layers = (
{
layerId = "D2A65651-33D6-4DD8-B320-C085CF253BF6";
paths = (
{
closed = 1;
nodes = (
"323 611 LINE",
"83 611 LINE",
"83 79 LINE SMOOTH",
"83 26 OFFCURVE",
"109 0 OFFCURVE",
"162 0 CURVE SMOOTH",
"410 0 LINE",
"410 59 LINE",
"354 59 LINE SMOOTH",
"328 59 OFFCURVE",
"323 64 OFFCURVE",
"323 90 CURVE SMOOTH"
);
},
{
closed = 1;
nodes = (
"411 485 LINE",
"5 485 LINE",
"5 426 LINE",
"411 426 LINE"
);
}
);
width = 430;
},
{
layerId = "B7AC66F4-B7F6-40D5-96E7-A23DEF3F6247";
paths = (
{
closed = 1;
nodes = (
"204 569 LINE",
"118 569 LINE",
"118 79 LINE SMOOTH",
"118 26 OFFCURVE",
"144 0 OFFCURVE",
"197 0 CURVE SMOOTH",
"325 0 LINE",
"325 64 LINE",
"235 64 LINE SMOOTH",
"209 64 OFFCURVE",
"204 69 OFFCURVE",
"204 95 CURVE SMOOTH"
);
},
{
closed = 1;
nodes = (
"326 485 LINE",
"40 485 LINE",
"40 426 LINE",
"326 426 LINE"
);
}
);
width = 366;
}
);
unicode = 0074;
},
{
glyphname = u;
layers = (
{
layerId = "D2A65651-33D6-4DD8-B320-C085CF253BF6";
paths = (
{
closed = 1;
nodes = (
"50 485 LINE",
"50 79 LINE SMOOTH",
"50 26 OFFCURVE",
"76 0 OFFCURVE",
"129 0 CURVE SMOOTH",
"329 0 LINE SMOOTH",
"392 0 OFFCURVE",
"396 35 OFFCURVE",
"396 90 CURVE SMOOTH",
"396 114 LINE",
"387 114 LINE",
"387 88 LINE SMOOTH",
"387 67 OFFCURVE",
"375 59 OFFCURVE",
"349 59 CURVE SMOOTH",
"321 59 LINE SMOOTH",
"295 59 OFFCURVE",
"290 64 OFFCURVE",
"290 90 CURVE SMOOTH",
"290 485 LINE"
);
},
{
closed = 1;
nodes = (
"387 485 LINE",
"387 0 LINE",
"627 0 LINE",
"627 485 LINE"
);
}
);
width = 682;
},
{
layerId = "B7AC66F4-B7F6-40D5-96E7-A23DEF3F6247";
paths = (
{
closed = 1;
nodes = (
"80 485 LINE",
"80 79 LINE SMOOTH",
"80 26 OFFCURVE",
"106 0 OFFCURVE",
"159 0 CURVE SMOOTH",
"396 0 LINE SMOOTH",
"434 0 OFFCURVE",
"456 18 OFFCURVE",
"456 64 CURVE SMOOTH",
"456 128 LINE",
"451 128 LINE",
"451 94 LINE SMOOTH",
"451 68 OFFCURVE",
"441 59 OFFCURVE",
"417 59 CURVE SMOOTH",
"197 59 LINE SMOOTH",
"171 59 OFFCURVE",
"166 64 OFFCURVE",
"166 90 CURVE SMOOTH",
"166 485 LINE"
);
},
{
closed = 1;
nodes = (
"451 485 LINE",
"451 0 LINE",
"537 0 LINE",
"537 485 LINE"
);
}
);
width = 627;
}
);
unicode = 0075;
},
{
glyphname = v;
layers = (
{
layerId = "D2A65651-33D6-4DD8-B320-C085CF253BF6";
paths = (
{
closed = 1;
nodes = (
"238 485 LINE",
"327 146 LINE",
"417 485 LINE",
"654 485 LINE",
"471 0 LINE",
"185 0 LINE",
"2 485 LINE"
);
}
);
width = 656;
},
{
layerId = "B7AC66F4-B7F6-40D5-96E7-A23DEF3F6247";
paths = (
{
closed = 1;
nodes = (
"116 485 LINE",
"295 58 LINE",
"477 485 LINE",
"562 485 LINE",
"359 0 LINE",
"232 0 LINE",
"30 485 LINE"
);
}
);
width = 592;
}
);
unicode = 0076;
},
{
glyphname = w;
layers = (
{
layerId = "D2A65651-33D6-4DD8-B320-C085CF253BF6";
paths = (
{
closed = 1;
nodes = (
"721 485 LINE",
"655 146 LINE",
"575 485 LINE",
"375 485 LINE",
"295 146 LINE",
"229 485 LINE",
"3 485 LINE",
"150 0 LINE",
"409 0 LINE",
"475 329 LINE",
"541 0 LINE",
"800 0 LINE",
"947 485 LINE"
);
}
);
width = 950;
},
{
layerId = "B7AC66F4-B7F6-40D5-96E7-A23DEF3F6247";
paths = (
{
closed = 1;
nodes = (
"772 485 LINE",
"622 58 LINE",
"496 485 LINE",
"390 485 LINE",
"262 58 LINE",
"112 485 LINE",
"30 485 LINE",
"201 0 LINE",
"322 0 LINE",
"442 413 LINE",
"564 0 LINE",
"685 0 LINE",
"854 485 LINE"
);
}
);
width = 884;
}
);
unicode = 0077;
},
{
glyphname = x;
layers = (
{
layerId = "D2A65651-33D6-4DD8-B320-C085CF253BF6";
paths = (
{
closed = 1;
nodes = (
"427 282 LINE",
"610 485 LINE",
"464 485 LINE",
"357 364 LINE",
"268 485 LINE",
"-11 485 LINE",
"199 218 LINE",
"5 0 LINE",
"147 0 LINE",
"266 134 LINE",
"368 0 LINE",
"652 0 LINE"
);
}
);
width = 637;
},
{
layerId = "B7AC66F4-B7F6-40D5-96E7-A23DEF3F6247";
paths = (
{
closed = 1;
nodes = (
"357 244 LINE",
"572 485 LINE",
"473 485 LINE",
"308 293 LINE",
"147 485 LINE",
"46 485 LINE",
"254 242 LINE",
"34 0 LINE",
"132 0 LINE",
"304 191 LINE",
"470 0 LINE",
"568 0 LINE"
);
}
);
width = 602;
}
);
unicode = 0078;
},
{
glyphname = y;
layers = (
{
layerId = "D2A65651-33D6-4DD8-B320-C085CF253BF6";
paths = (
{
closed = 1;
nodes = (
"2 485 LINE",
"182 0 LINE",
"274 0 LINE",
"264 -27 LINE SMOOTH",
"250 -63 OFFCURVE",
"229 -82 OFFCURVE",
"172 -82 CURVE SMOOTH",
"105 -82 LINE",
"105 -141 LINE",
"250 -141 LINE SMOOTH",
"408 -141 OFFCURVE",
"444 -89 OFFCURVE",
"479 7 CURVE SMOOTH",
"656 485 LINE",
"415 485 LINE",
"331 154 LINE",
"253 485 LINE"
);
}
);
width = 659;
},
{
layerId = "B7AC66F4-B7F6-40D5-96E7-A23DEF3F6247";
paths = (
{
closed = 1;
nodes = (
"36 485 LINE",
"249 0 LINE",
"279 0 LINE",
"257 -45 LINE SMOOTH",
"243 -73 OFFCURVE",
"221 -82 OFFCURVE",
"185 -82 CURVE SMOOTH",
"119 -82 LINE",
"119 -141 LINE",
"214 -141 LINE SMOOTH",
"283 -141 OFFCURVE",
"308 -108 OFFCURVE",
"331 -55 CURVE SMOOTH",
"570 485 LINE",
"483 485 LINE",
"305 59 LINE",
"123 485 LINE"
);
}
);
width = 577;
}
);
unicode = 0079;
},
{
glyphname = z;
layers = (
{
layerId = "D2A65651-33D6-4DD8-B320-C085CF253BF6";
paths = (
{
closed = 1;
nodes = (
"529 485 LINE",
"38 485 LINE",
"38 426 LINE",
"529 426 LINE"
);
},
{
closed = 1;
nodes = (
"272 426 LINE",
"20 59 LINE",
"272 59 LINE",
"529 426 LINE"
);
},
{
closed = 1;
nodes = (
"543 59 LINE",
"20 59 LINE",
"20 0 LINE",
"543 0 LINE"
);
}
);
width = 563;
},
{
layerId = "B7AC66F4-B7F6-40D5-96E7-A23DEF3F6247";
paths = (
{
closed = 1;
nodes = (
"449 485 LINE",
"73 485 LINE",
"73 426 LINE",
"449 426 LINE"
);
},
{
closed = 1;
nodes = (
"357 426 LINE",
"60 59 LINE",
"152 59 LINE",
"449 426 LINE"
);
},
{
closed = 1;
nodes = (
"449 59 LINE",
"60 59 LINE",
"60 0 LINE",
"449 0 LINE"
);
}
);
width = 509;
}
);
unicode = 007A;
},
{
glyphname = braceleft;
layers = (
{
layerId = "D2A65651-33D6-4DD8-B320-C085CF253BF6";
paths = (
{
closed = 1;
nodes = (
"378 539 LINE SMOOTH",
"378 611 OFFCURVE",
"386 660 OFFCURVE",
"446 660 CURVE SMOOTH",
"459 660 LINE",
"459 719 LINE",
"415 719 LINE SMOOTH",
"226 719 OFFCURVE",
"124 675 OFFCURVE",
"124 481 CURVE SMOOTH",
"124 362 LINE SMOOTH",
"124 307 OFFCURVE",
"99 282 OFFCURVE",
"29 282 CURVE SMOOTH",
"20 282 LINE",
"20 223 LINE",
"29 223 LINE SMOOTH",
"99 223 OFFCURVE",
"124 199 OFFCURVE",
"124 145 CURVE SMOOTH",
"124 17 LINE SMOOTH",
"124 -177 OFFCURVE",
"226 -221 OFFCURVE",
"415 -221 CURVE SMOOTH",
"459 -221 LINE",
"459 -162 LINE",
"446 -162 LINE SMOOTH",
"386 -162 OFFCURVE",
"378 -113 OFFCURVE",
"378 -41 CURVE SMOOTH",
"378 121 LINE SMOOTH",
"378 191 OFFCURVE",
"344 247 OFFCURVE",
"276 250 CURVE",
"344 252 OFFCURVE",
"378 308 OFFCURVE",
"378 379 CURVE SMOOTH"
);
}
);
width = 445;
},
{
layerId = "B7AC66F4-B7F6-40D5-96E7-A23DEF3F6247";
paths = (
{
closed = 1;
nodes = (
"273 619 LINE",
"273 648 OFFCURVE",
"281 661 OFFCURVE",
"311 661 CURVE SMOOTH",
"443 661 LINE",
"443 720 LINE",
"278 720 LINE SMOOTH",
"209 720 OFFCURVE",
"187 688 OFFCURVE",
"187 626 CURVE SMOOTH",
"187 390 LINE SMOOTH",
"187 311 OFFCURVE",
"160 277 OFFCURVE",
"98 277 CURVE SMOOTH",
"80 277 LINE",
"80 218 LINE",
"98 218 LINE SMOOTH",
"160 218 OFFCURVE",
"187 184 OFFCURVE",
"187 106 CURVE SMOOTH",
"187 -127 LINE SMOOTH",
"187 -189 OFFCURVE",
"209 -221 OFFCURVE",
"278 -221 CURVE SMOOTH",
"443 -221 LINE",
"443 -162 LINE",
"311 -162 LINE SMOOTH",
"281 -162 OFFCURVE",
"273 -149 OFFCURVE",
"273 -120 CURVE SMOOTH",
"273 127 LINE SMOOTH",
"273 195 OFFCURVE",
"248 241 OFFCURVE",
"196 247 CURVE",
"248 253 OFFCURVE",
"273 298 OFFCURVE",
"273 368 CURVE SMOOTH"
);
}
);
width = 403;
}
);
unicode = 007B;
},
{
glyphname = bar;
layers = (
{
layerId = "D2A65651-33D6-4DD8-B320-C085CF253BF6";
paths = (
{
closed = 1;
nodes = (
"65 807 LINE",
"65 -187 LINE",
"284 -187 LINE",
"284 807 LINE"
);
}
);
width = 349;
},
{
layerId = "B7AC66F4-B7F6-40D5-96E7-A23DEF3F6247";
paths = (
{
closed = 1;
nodes = (
"100 728 LINE",
"100 -107 LINE",
"184 -107 LINE",
"184 728 LINE"
);
}
);
width = 284;
}
);
unicode = 007C;
},
{
glyphname = braceright;
layers = (
{
layerId = "D2A65651-33D6-4DD8-B320-C085CF253BF6";
paths = (
{
closed = 1;
nodes = (
"87 379 LINE SMOOTH",
"87 308 OFFCURVE",
"121 252 OFFCURVE",
"189 250 CURVE",
"121 247 OFFCURVE",
"87 191 OFFCURVE",
"87 121 CURVE SMOOTH",
"87 -41 LINE SMOOTH",
"87 -113 OFFCURVE",
"79 -162 OFFCURVE",
"19 -162 CURVE SMOOTH",
"6 -162 LINE",
"6 -221 LINE",
"50 -221 LINE SMOOTH",
"239 -221 OFFCURVE",
"341 -177 OFFCURVE",
"341 17 CURVE SMOOTH",
"341 145 LINE SMOOTH",
"341 199 OFFCURVE",
"366 223 OFFCURVE",
"436 223 CURVE SMOOTH",
"445 223 LINE",
"445 282 LINE",
"436 282 LINE SMOOTH",
"366 282 OFFCURVE",
"341 307 OFFCURVE",
"341 362 CURVE SMOOTH",
"341 481 LINE SMOOTH",
"341 675 OFFCURVE",
"239 719 OFFCURVE",
"50 719 CURVE SMOOTH",
"6 719 LINE",
"6 660 LINE",
"19 660 LINE SMOOTH",
"79 660 OFFCURVE",
"87 611 OFFCURVE",
"87 539 CURVE SMOOTH"
);
}
);
width = 465;
},
{
layerId = "B7AC66F4-B7F6-40D5-96E7-A23DEF3F6247";
paths = (
{
closed = 1;
nodes = (
"130 368 LINE",
"130 298 OFFCURVE",
"155 253 OFFCURVE",
"207 247 CURVE",
"155 241 OFFCURVE",
"130 195 OFFCURVE",
"130 127 CURVE SMOOTH",
"130 -120 LINE SMOOTH",
"130 -149 OFFCURVE",
"122 -162 OFFCURVE",
"92 -162 CURVE SMOOTH",
"-40 -162 LINE",
"-40 -221 LINE",
"125 -221 LINE SMOOTH",
"194 -221 OFFCURVE",
"216 -189 OFFCURVE",
"216 -127 CURVE SMOOTH",
"216 106 LINE SMOOTH",
"216 184 OFFCURVE",
"243 218 OFFCURVE",
"305 218 CURVE SMOOTH",
"323 218 LINE",
"323 277 LINE",
"305 277 LINE SMOOTH",
"243 277 OFFCURVE",
"216 311 OFFCURVE",
"216 390 CURVE SMOOTH",
"216 626 LINE SMOOTH",
"216 688 OFFCURVE",
"194 720 OFFCURVE",
"125 720 CURVE SMOOTH",
"-40 720 LINE",
"-40 661 LINE",
"92 661 LINE SMOOTH",
"122 661 OFFCURVE",
"130 648 OFFCURVE",
"130 619 CURVE SMOOTH"
);
}
);
width = 403;
}
);
unicode = 007D;
},
{
glyphname = asciitilde;
layers = (
{
layerId = "D2A65651-33D6-4DD8-B320-C085CF253BF6";
paths = (
{
closed = 1;
nodes = (
"388 252 OFFCURVE",
"435 158 OFFCURVE",
"527 158 CURVE SMOOTH",
"699 158 LINE SMOOTH",
"752 158 OFFCURVE",
"778 184 OFFCURVE",
"778 237 CURVE SMOOTH",
"778 337 LINE",
"538 337 LINE",
"538 273 LINE SMOOTH",
"538 247 OFFCURVE",
"533 242 OFFCURVE",
"507 242 CURVE SMOOTH",
"448 242 OFFCURVE",
"405 337 OFFCURVE",
"291 337 CURVE SMOOTH",
"119 337 LINE SMOOTH",
"66 337 OFFCURVE",
"40 311 OFFCURVE",
"40 258 CURVE SMOOTH",
"40 158 LINE",
"280 158 LINE",
"280 221 LINE SMOOTH",
"280 247 OFFCURVE",
"285 252 OFFCURVE",
"311 252 CURVE SMOOTH"
);
}
);
width = 818;
},
{
layerId = "B7AC66F4-B7F6-40D5-96E7-A23DEF3F6247";
paths = (
{
closed = 1;
nodes = (
"345 273 OFFCURVE",
"413 170 OFFCURVE",
"521 170 CURVE SMOOTH",
"619 170 LINE SMOOTH",
"674 170 OFFCURVE",
"697 200 OFFCURVE",
"697 247 CURVE SMOOTH",
"697 331 LINE",
"615 331 LINE",
"615 273 LINE SMOOTH",
"615 241 OFFCURVE",
"599 228 OFFCURVE",
"559 228 CURVE SMOOTH",
"424 228 OFFCURVE",
"380 331 OFFCURVE",
"259 331 CURVE SMOOTH",
"157 331 LINE SMOOTH",
"102 331 OFFCURVE",
"80 303 OFFCURVE",
"80 255 CURVE SMOOTH",
"80 171 LINE",
"162 171 LINE",
"162 230 LINE SMOOTH",
"162 262 OFFCURVE",
"177 273 OFFCURVE",
"218 273 CURVE SMOOTH"
);
}
);
width = 777;
}
);
unicode = 007E;
},
{
glyphname = exclamdown;
layers = (
{
layerId = "D2A65651-33D6-4DD8-B320-C085CF253BF6";
paths = (
{
closed = 1;
nodes = (
"113 268 LINE",
"70 -138 LINE",
"348 -138 LINE",
"306 268 LINE"
);
},
{
closed = 1;
nodes = (
"82 484 LINE",
"82 335 LINE",
"336 335 LINE",
"336 484 LINE"
);
}
);
width = 419;
},
{
layerId = "B7AC66F4-B7F6-40D5-96E7-A23DEF3F6247";
paths = (
{
closed = 1;
nodes = (
"94 287 LINE",
"78 -137 LINE",
"182 -137 LINE",
"166 287 LINE"
);
},
{
closed = 1;
nodes = (
"80 485 LINE",
"80 369 LINE",
"179 369 LINE",
"179 485 LINE"
);
}
);
width = 259;
}
);
unicode = 00A1;
},
{
glyphname = cent;
layers = (
{
layerId = "D2A65651-33D6-4DD8-B320-C085CF253BF6";
paths = (
{
closed = 1;
nodes = (
"452 450 LINE",
"452 563 LINE",
"205 563 LINE",
"205 450 LINE"
);
},
{
closed = 1;
nodes = (
"452 -80 LINE",
"452 33 LINE",
"205 33 LINE",
"205 -80 LINE"
);
},
{
closed = 1;
nodes = (
"282 395 LINE SMOOTH",
"282 421 OFFCURVE",
"287 426 OFFCURVE",
"313 426 CURVE SMOOTH",
"331 426 LINE",
"331 485 LINE",
"121 485 LINE SMOOTH",
"68 485 OFFCURVE",
"42 459 OFFCURVE",
"42 406 CURVE SMOOTH",
"42 79 LINE SMOOTH",
"42 26 OFFCURVE",
"68 0 OFFCURVE",
"121 0 CURVE SMOOTH",
"330 0 LINE",
"330 59 LINE",
"313 59 LINE SMOOTH",
"287 59 OFFCURVE",
"282 64 OFFCURVE",
"282 90 CURVE SMOOTH"
);
},
{
closed = 1;
nodes = (
"376 303 LINE",
"608 303 LINE",
"608 406 LINE SMOOTH",
"608 459 OFFCURVE",
"582 485 OFFCURVE",
"529 485 CURVE SMOOTH",
"327 485 LINE",
"327 426 LINE",
"345 426 LINE SMOOTH",
"371 426 OFFCURVE",
"376 421 OFFCURVE",
"376 395 CURVE SMOOTH"
);
},
{
closed = 1;
nodes = (
"376 90 LINE SMOOTH",
"376 64 OFFCURVE",
"371 59 OFFCURVE",
"345 59 CURVE SMOOTH",
"327 59 LINE",
"327 0 LINE",
"529 0 LINE SMOOTH",
"582 0 OFFCURVE",
"608 26 OFFCURVE",
"608 79 CURVE SMOOTH",
"608 179 LINE",
"376 179 LINE"
);
}
);
width = 636;
},
{
layerId = "B7AC66F4-B7F6-40D5-96E7-A23DEF3F6247";
paths = (
{
closed = 1;
nodes = (
"341 473 LINE",
"341 561 LINE",
"258 561 LINE",
"258 473 LINE"
);
},
{
closed = 1;
nodes = (
"341 -76 LINE",
"341 12 LINE",
"258 12 LINE",
"258 -76 LINE"
);
},
{
closed = 1;
nodes = (
"166 395 LINE",
"166 421 OFFCURVE",
"171 426 OFFCURVE",
"197 426 CURVE SMOOTH",
"391 426 LINE",
"391 485 LINE",
"159 485 LINE SMOOTH",
"106 485 OFFCURVE",
"80 459 OFFCURVE",
"80 406 CURVE SMOOTH",
"80 79 LINE SMOOTH",
"80 26 OFFCURVE",
"106 0 OFFCURVE",
"159 0 CURVE SMOOTH",
"384 0 LINE",
"384 59 LINE",
"197 59 LINE SMOOTH",
"171 59 OFFCURVE",
"166 64 OFFCURVE",
"166 90 CURVE SMOOTH"
);
},
{
closed = 1;
nodes = (
"440 327 LINE",
"526 327 LINE",
"526 406 LINE SMOOTH",
"526 459 OFFCURVE",
"500 485 OFFCURVE",
"447 485 CURVE SMOOTH",
"213 485 LINE",
"213 426 LINE",
"409 426 LINE SMOOTH",
"435 426 OFFCURVE",
"440 421 OFFCURVE",
"440 395 CURVE SMOOTH"
);
},
{
closed = 1;
nodes = (
"440 90 LINE",
"440 64 OFFCURVE",
"435 59 OFFCURVE",
"409 59 CURVE SMOOTH",
"213 59 LINE",
"213 0 LINE",
"447 0 LINE SMOOTH",
"500 0 OFFCURVE",
"526 26 OFFCURVE",
"526 79 CURVE SMOOTH",
"526 158 LINE",
"440 158 LINE"
);
}
);
width = 586;
}
);
unicode = 00A2;
},
{
glyphname = sterling;
layers = (
{
layerId = "D2A65651-33D6-4DD8-B320-C085CF253BF6";
paths = (
{
closed = 1;
nodes = (
"344 532 LINE SMOOTH",
"344 558 OFFCURVE",
"349 563 OFFCURVE",
"375 563 CURVE SMOOTH",
"402 563 LINE SMOOTH",
"428 563 OFFCURVE",
"433 558 OFFCURVE",
"433 532 CURVE SMOOTH",
"433 412 LINE",
"687 412 LINE",
"687 543 LINE SMOOTH",
"687 596 OFFCURVE",
"661 622 OFFCURVE",
"608 622 CURVE SMOOTH",
"169 622 LINE SMOOTH",
"116 622 OFFCURVE",
"90 596 OFFCURVE",
"90 543 CURVE SMOOTH",
"90 232 LINE SMOOTH",
"90 168 OFFCURVE",
"89 106 OFFCURVE",
"28 90 CURVE",
"28 0 LINE",
"692 0 LINE",
"692 121 LINE",
"296 121 LINE",
"339 133 OFFCURVE",
"344 186 OFFCURVE",
"344 241 CURVE SMOOTH"
);
},
{
closed = 1;
nodes = (
"28 269 LINE",
"546 269 LINE",
"546 328 LINE",
"28 328 LINE"
);
}
);
width = 713;
},
{
layerId = "B7AC66F4-B7F6-40D5-96E7-A23DEF3F6247";
paths = (
{
closed = 1;
nodes = (
"248 532 LINE",
"248 558 OFFCURVE",
"253 563 OFFCURVE",
"279 563 CURVE SMOOTH",
"501 563 LINE SMOOTH",
"527 563 OFFCURVE",
"532 558 OFFCURVE",
"532 532 CURVE SMOOTH",
"532 438 LINE",
"619 438 LINE",
"619 543 LINE SMOOTH",
"619 596 OFFCURVE",
"593 622 OFFCURVE",
"540 622 CURVE SMOOTH",
"239 622 LINE SMOOTH",
"186 622 OFFCURVE",
"160 596 OFFCURVE",
"160 543 CURVE SMOOTH",
"160 165 LINE SMOOTH",
"160 97 OFFCURVE",
"134 62 OFFCURVE",
"80 62 CURVE",
"80 0 LINE",
"633 0 LINE",
"633 65 LINE",
"220 65 LINE",
"244 81 OFFCURVE",
"248 112 OFFCURVE",
"248 172 CURVE SMOOTH"
);
},
{
closed = 1;
nodes = (
"70 273 LINE",
"543 273 LINE",
"543 332 LINE",
"70 332 LINE"
);
}
);
width = 693;
}
);
unicode = 00A3;
},
{
glyphname = currency;
layers = (
{
layerId = "D2A65651-33D6-4DD8-B320-C085CF253BF6";
paths = (
{
closed = 1;
nodes = (
"726 314 LINE SMOOTH",
"726 422 OFFCURVE",
"678 489 OFFCURVE",
"501 489 CURVE SMOOTH",
"331 489 LINE SMOOTH",
"153 489 OFFCURVE",
"107 422 OFFCURVE",
"107 314 CURVE SMOOTH",
"107 282 LINE SMOOTH",
"107 173 OFFCURVE",
"153 106 OFFCURVE",
"331 106 CURVE SMOOTH",
"501 106 LINE SMOOTH",
"678 106 OFFCURVE",
"726 173 OFFCURVE",
"726 282 CURVE SMOOTH"
);
},
{
closed = 1;
nodes = (
"412 165 LINE SMOOTH",
"318 165 OFFCURVE",
"282 175 OFFCURVE",
"282 271 CURVE SMOOTH",
"282 301 LINE SMOOTH",
"282 397 OFFCURVE",
"318 430 OFFCURVE",
"412 430 CURVE SMOOTH",
"421 430 LINE SMOOTH",
"514 430 OFFCURVE",
"551 397 OFFCURVE",
"551 301 CURVE SMOOTH",
"551 271 LINE SMOOTH",
"551 175 OFFCURVE",
"514 165 OFFCURVE",
"421 165 CURVE SMOOTH"
);
},
{
closed = 1;
nodes = (
"317 444 LINE",
"177 581 LINE",
"55 456 LINE",
"195 319 LINE"
);
},
{
closed = 1;
nodes = (
"640 319 LINE",
"780 456 LINE",
"658 581 LINE",
"518 444 LINE"
);
},
{
closed = 1;
nodes = (
"195 274 LINE",
"55 137 LINE",
"177 12 LINE",
"317 149 LINE"
);
},
{
closed = 1;
nodes = (
"518 149 LINE",
"658 12 LINE",
"780 137 LINE",
"640 274 LINE"
);
}
);
width = 835;
},
{
layerId = "B7AC66F4-B7F6-40D5-96E7-A23DEF3F6247";
paths = (
{
closed = 1;
nodes = (
"608 398 LINE",
"608 456 OFFCURVE",
"580 486 OFFCURVE",
"514 486 CURVE SMOOTH",
"204 486 LINE SMOOTH",
"138 486 OFFCURVE",
"110 456 OFFCURVE",
"110 398 CURVE SMOOTH",
"110 199 LINE SMOOTH",
"110 141 OFFCURVE",
"138 111 OFFCURVE",
"204 111 CURVE SMOOTH",
"514 111 LINE SMOOTH",
"580 111 OFFCURVE",
"608 141 OFFCURVE",
"608 199 CURVE SMOOTH"
);
},
{
closed = 1;
nodes = (
"230 170 LINE",
"197 170 OFFCURVE",
"189 175 OFFCURVE",
"189 208 CURVE SMOOTH",
"189 387 LINE SMOOTH",
"189 420 OFFCURVE",
"197 427 OFFCURVE",
"230 427 CURVE SMOOTH",
"489 427 LINE SMOOTH",
"521 427 OFFCURVE",
"530 420 OFFCURVE",
"530 387 CURVE SMOOTH",
"530 208 LINE SMOOTH",
"530 175 OFFCURVE",
"521 170 OFFCURVE",
"489 170 CURVE SMOOTH"
);
},
{
closed = 1;
nodes = (
"207 451 LINE",
"120 537 LINE",
"66 483 LINE",
"153 397 LINE"
);
},
{
closed = 1;
nodes = (
"558 397 LINE",
"645 483 LINE",
"591 537 LINE",
"504 451 LINE"
);
},
{
closed = 1;
nodes = (
"153 201 LINE",
"66 115 LINE",
"120 62 LINE",
"207 147 LINE"
);
},
{
closed = 1;
nodes = (
"504 147 LINE",
"591 62 LINE",
"645 115 LINE",
"558 201 LINE"
);
}
);
width = 711;
}
);
unicode = 00A4;
},
{
glyphname = yen;
layers = (
{
layerId = "D2A65651-33D6-4DD8-B320-C085CF253BF6";
paths = (
{
closed = 1;
nodes = (
"254 328 LINE",
"61 328 LINE",
"61 269 LINE",
"254 269 LINE"
);
},
{
closed = 1;
nodes = (
"695 200 LINE",
"61 200 LINE",
"61 141 LINE",
"695 141 LINE"
);
},
{
closed = 1;
nodes = (
"486 173 LINE",
"739 622 LINE",
"493 622 LINE",
"378 329 LINE",
"254 622 LINE",
"7 622 LINE",
"273 173 LINE"
);
},
{
closed = 1;
nodes = (
"253 264 LINE",
"253 0 LINE",
"507 0 LINE",
"507 264 LINE"
);
},
{
closed = 1;
nodes = (
"501 269 LINE",
"694 269 LINE",
"694 328 LINE",
"501 328 LINE"
);
}
);
width = 746;
},
{
layerId = "B7AC66F4-B7F6-40D5-96E7-A23DEF3F6247";
paths = (
{
closed = 1;
nodes = (
"316 328 LINE",
"108 328 LINE",
"108 269 LINE",
"316 269 LINE"
);
},
{
closed = 1;
nodes = (
"611 200 LINE",
"108 200 LINE",
"108 141 LINE",
"611 141 LINE"
);
},
{
closed = 1;
nodes = (
"402 198 LINE",
"661 622 LINE",
"572 622 LINE",
"360 274 LINE",
"139 622 LINE",
"49 622 LINE",
"319 198 LINE"
);
},
{
closed = 1;
nodes = (
"317 243 LINE",
"317 0 LINE",
"404 0 LINE",
"404 243 LINE"
);
},
{
closed = 1;
nodes = (
"403 269 LINE",
"611 269 LINE",
"611 328 LINE",
"403 328 LINE"
);
}
);
width = 710;
}
);
unicode = 00A5;
},
{
glyphname = brokenbar;
layers = (
{
layerId = "D2A65651-33D6-4DD8-B320-C085CF253BF6";
paths = (
{
closed = 1;
nodes = (
"65 254 LINE",
"65 -187 LINE",
"284 -187 LINE",
"284 254 LINE"
);
},
{
closed = 1;
nodes = (
"284 366 LINE",
"284 807 LINE",
"65 807 LINE",
"65 366 LINE"
);
}
);
width = 349;
},
{
layerId = "B7AC66F4-B7F6-40D5-96E7-A23DEF3F6247";
paths = (
{
closed = 1;
nodes = (
"90 248 LINE",
"90 -107 LINE",
"174 -107 LINE",
"174 248 LINE"
);
},
{
closed = 1;
nodes = (
"174 373 LINE",
"174 728 LINE",
"90 728 LINE",
"90 373 LINE"
);
}
);
width = 264;
}
);
unicode = 00A6;
},
{
glyphname = section;
layers = (
{
layerId = "D2A65651-33D6-4DD8-B320-C085CF253BF6";
paths = (
{
closed = 1;
nodes = (
"799 185 OFFCURVE",
"839 199 OFFCURVE",
"839 253 CURVE SMOOTH",
"839 360 LINE SMOOTH",
"839 413 OFFCURVE",
"813 439 OFFCURVE",
"760 439 CURVE SMOOTH",
"549 439 LINE SMOOTH",
"523 439 OFFCURVE",
"518 444 OFFCURVE",
"518 470 CURVE SMOOTH",
"518 558 LINE SMOOTH",
"518 584 OFFCURVE",
"523 589 OFFCURVE",
"549 589 CURVE SMOOTH",
"572 589 LINE SMOOTH",
"598 589 OFFCURVE",
"603 584 OFFCURVE",
"603 558 CURVE SMOOTH",
"603 496 LINE",
"850 496 LINE",
"850 569 LINE SMOOTH",
"850 622 OFFCURVE",
"824 648 OFFCURVE",
"771 648 CURVE SMOOTH",
"350 648 LINE SMOOTH",
"297 648 OFFCURVE",
"271 622 OFFCURVE",
"271 569 CURVE SMOOTH",
"271 459 LINE SMOOTH",
"271 406 OFFCURVE",
"308 392 OFFCURVE",
"331 390 CURVE",
"307 387 OFFCURVE",
"269 363 OFFCURVE",
"269 310 CURVE SMOOTH",
"269 213 LINE SMOOTH",
"269 160 OFFCURVE",
"295 134 OFFCURVE",
"348 134 CURVE SMOOTH",
"559 134 LINE SMOOTH",
"585 134 OFFCURVE",
"590 129 OFFCURVE",
"590 103 CURVE SMOOTH",
"590 15 LINE SMOOTH",
"590 -11 OFFCURVE",
"585 -16 OFFCURVE",
"559 -16 CURVE SMOOTH",
"536 -16 LINE SMOOTH",
"510 -16 OFFCURVE",
"505 -11 OFFCURVE",
"505 15 CURVE SMOOTH",
"505 77 LINE",
"258 77 LINE",
"258 4 LINE SMOOTH",
"258 -49 OFFCURVE",
"284 -75 OFFCURVE",
"337 -75 CURVE SMOOTH",
"758 -75 LINE SMOOTH",
"811 -75 OFFCURVE",
"837 -49 OFFCURVE",
"837 4 CURVE SMOOTH",
"837 104 LINE SMOOTH",
"837 156 OFFCURVE",
"798 180 OFFCURVE",
"776 183 CURVE"
);
},
{
closed = 1;
nodes = (
"561 380 LINE SMOOTH",
"587 380 OFFCURVE",
"592 375 OFFCURVE",
"592 349 CURVE SMOOTH",
"592 224 LINE SMOOTH",
"592 198 OFFCURVE",
"587 193 OFFCURVE",
"561 193 CURVE SMOOTH",
"547 193 LINE SMOOTH",
"521 193 OFFCURVE",
"516 198 OFFCURVE",
"516 224 CURVE SMOOTH",
"516 349 LINE SMOOTH",
"516 375 OFFCURVE",
"521 380 OFFCURVE",
"547 380 CURVE SMOOTH"
);
}
);
width = 1017;
},
{
layerId = "B7AC66F4-B7F6-40D5-96E7-A23DEF3F6247";
paths = (
{
closed = 1;
nodes = (
"515 210 OFFCURVE",
"530 242 OFFCURVE",
"530 288 CURVE SMOOTH",
"530 374 LINE SMOOTH",
"530 427 OFFCURVE",
"504 453 OFFCURVE",
"451 453 CURVE SMOOTH",
"234 453 LINE SMOOTH",
"208 453 OFFCURVE",
"203 458 OFFCURVE",
"203 484 CURVE SMOOTH",
"203 576 LINE SMOOTH",
"203 602 OFFCURVE",
"208 607 OFFCURVE",
"234 607 CURVE SMOOTH",
"412 607 LINE SMOOTH",
"438 607 OFFCURVE",
"443 602 OFFCURVE",
"443 576 CURVE SMOOTH",
"443 536 LINE",
"530 536 LINE",
"530 587 LINE SMOOTH",
"530 640 OFFCURVE",
"504 666 OFFCURVE",
"451 666 CURVE SMOOTH",
"195 666 LINE SMOOTH",
"142 666 OFFCURVE",
"116 640 OFFCURVE",
"116 587 CURVE SMOOTH",
"116 473 LINE SMOOTH",
"116 452 OFFCURVE",
"123 438 OFFCURVE",
"130 428 CURVE",
"95 419 OFFCURVE",
"80 387 OFFCURVE",
"80 342 CURVE SMOOTH",
"80 257 LINE SMOOTH",
"80 204 OFFCURVE",
"106 178 OFFCURVE",
"159 178 CURVE SMOOTH",
"376 178 LINE SMOOTH",
"401 178 OFFCURVE",
"406 173 OFFCURVE",
"406 147 CURVE SMOOTH",
"406 55 LINE SMOOTH",
"406 29 OFFCURVE",
"401 24 OFFCURVE",
"376 24 CURVE SMOOTH",
"198 24 LINE SMOOTH",
"172 24 OFFCURVE",
"167 29 OFFCURVE",
"167 55 CURVE SMOOTH",
"167 95 LINE",
"80 95 LINE",
"80 44 LINE SMOOTH",
"80 -9 OFFCURVE",
"106 -35 OFFCURVE",
"159 -35 CURVE SMOOTH",
"414 -35 LINE SMOOTH",
"467 -35 OFFCURVE",
"493 -9 OFFCURVE",
"493 44 CURVE SMOOTH",
"493 157 LINE SMOOTH",
"493 177 OFFCURVE",
"487 192 OFFCURVE",
"480 203 CURVE"
);
},
{
closed = 1;
nodes = (
"412 394 LINE",
"438 394 OFFCURVE",
"443 389 OFFCURVE",
"443 363 CURVE SMOOTH",
"443 268 LINE SMOOTH",
"443 242 OFFCURVE",
"438 237 OFFCURVE",
"412 237 CURVE SMOOTH",
"198 237 LINE SMOOTH",
"172 237 OFFCURVE",
"167 242 OFFCURVE",
"167 268 CURVE SMOOTH",
"167 363 LINE SMOOTH",
"167 389 OFFCURVE",
"172 394 OFFCURVE",
"198 394 CURVE SMOOTH"
);
}
);
width = 610;
}
);
unicode = 00A7;
},
{
glyphname = dieresis;
layers = (
{
layerId = "D2A65651-33D6-4DD8-B320-C085CF253BF6";
paths = (
{
closed = 1;
nodes = (
"393 658 LINE",
"393 517 LINE",
"632 517 LINE",
"632 658 LINE"
);
},
{
closed = 1;
nodes = (
"74 658 LINE",
"74 517 LINE",
"313 517 LINE",
"313 658 LINE"
);
}
);
width = 705;
},
{
layerId = "B7AC66F4-B7F6-40D5-96E7-A23DEF3F6247";
paths = (
{
closed = 1;
nodes = (
"368 625 LINE",
"368 542 LINE",
"491 542 LINE",
"491 625 LINE"
);
},
{
closed = 1;
nodes = (
"108 625 LINE",
"108 542 LINE",
"231 542 LINE",
"231 625 LINE"
);
}
);
width = 600;
}
);
unicode = 00A8;
},
{
glyphname = copyright;
layers = (
{
layerId = "D2A65651-33D6-4DD8-B320-C085CF253BF6";
paths = (
{
closed = 1;
nodes = (
"1046 338 LINE SMOOTH",
"1046 513 OFFCURVE",
"971 622 OFFCURVE",
"682 622 CURVE SMOOTH",
"406 622 LINE SMOOTH",
"117 622 OFFCURVE",
"42 513 OFFCURVE",
"42 338 CURVE SMOOTH",
"42 285 LINE SMOOTH",
"42 109 OFFCURVE",
"117 0 OFFCURVE",
"406 0 CURVE SMOOTH",
"682 0 LINE SMOOTH",
"971 0 OFFCURVE",
"1046 109 OFFCURVE",
"1046 285 CURVE SMOOTH"
);
},
{
closed = 1;
nodes = (
"453 59 LINE SMOOTH",
"299 59 OFFCURVE",
"241 113 OFFCURVE",
"241 267 CURVE SMOOTH",
"241 355 LINE SMOOTH",
"241 509 OFFCURVE",
"299 563 OFFCURVE",
"453 563 CURVE SMOOTH",
"636 563 LINE SMOOTH",
"790 563 OFFCURVE",
"848 509 OFFCURVE",
"848 355 CURVE SMOOTH",
"848 267 LINE SMOOTH",
"848 113 OFFCURVE",
"790 59 OFFCURVE",
"636 59 CURVE SMOOTH"
);
},
{
closed = 1;
nodes = (
"582 240 LINE SMOOTH",
"582 214 OFFCURVE",
"577 209 OFFCURVE",
"551 209 CURVE SMOOTH",
"540 209 LINE SMOOTH",
"514 209 OFFCURVE",
"509 214 OFFCURVE",
"509 240 CURVE SMOOTH",
"509 383 LINE SMOOTH",
"509 409 OFFCURVE",
"514 414 OFFCURVE",
"540 414 CURVE SMOOTH",
"551 414 LINE SMOOTH",
"577 414 OFFCURVE",
"582 409 OFFCURVE",
"582 383 CURVE SMOOTH",
"582 339 LINE",
"747 339 LINE",
"747 394 LINE SMOOTH",
"747 447 OFFCURVE",
"721 473 OFFCURVE",
"668 473 CURVE SMOOTH",
"423 473 LINE SMOOTH",
"370 473 OFFCURVE",
"344 447 OFFCURVE",
"344 394 CURVE SMOOTH",
"344 229 LINE SMOOTH",
"344 176 OFFCURVE",
"370 150 OFFCURVE",
"423 150 CURVE SMOOTH",
"668 150 LINE SMOOTH",
"721 150 OFFCURVE",
"747 176 OFFCURVE",
"747 229 CURVE SMOOTH",
"747 285 LINE",
"582 285 LINE"
);
}
);
width = 1089;
},
{
layerId = "B7AC66F4-B7F6-40D5-96E7-A23DEF3F6247";
paths = (
{
closed = 1;
nodes = (
"954 342 LINE",
"954 526 OFFCURVE",
"890 622 OFFCURVE",
"732 622 CURVE SMOOTH",
"312 622 LINE SMOOTH",
"154 622 OFFCURVE",
"90 526 OFFCURVE",
"90 342 CURVE SMOOTH",
"90 272 LINE SMOOTH",
"90 88 OFFCURVE",
"154 0 OFFCURVE",
"312 0 CURVE SMOOTH",
"732 0 LINE SMOOTH",
"890 0 OFFCURVE",
"954 88 OFFCURVE",
"954 272 CURVE SMOOTH"
);
},
{
closed = 1;
nodes = (
"318 60 LINE",
"203 60 OFFCURVE",
"170 148 OFFCURVE",
"170 270 CURVE SMOOTH",
"170 344 LINE SMOOTH",
"170 466 OFFCURVE",
"203 564 OFFCURVE",
"318 564 CURVE SMOOTH",
"726 564 LINE SMOOTH",
"841 564 OFFCURVE",
"874 466 OFFCURVE",
"874 344 CURVE SMOOTH",
"874 270 LINE SMOOTH",
"874 148 OFFCURVE",
"841 60 OFFCURVE",
"726 60 CURVE SMOOTH"
);
},
{
closed = 1;
nodes = (
"638 240 LINE",
"638 214 OFFCURVE",
"633 209 OFFCURVE",
"607 209 CURVE SMOOTH",
"439 209 LINE SMOOTH",
"413 209 OFFCURVE",
"408 214 OFFCURVE",
"408 240 CURVE SMOOTH",
"408 394 LINE SMOOTH",
"408 420 OFFCURVE",
"413 425 OFFCURVE",
"439 425 CURVE SMOOTH",
"607 425 LINE SMOOTH",
"633 425 OFFCURVE",
"638 420 OFFCURVE",
"638 394 CURVE SMOOTH",
"638 368 LINE",
"716 368 LINE",
"716 405 LINE SMOOTH",
"716 458 OFFCURVE",
"690 484 OFFCURVE",
"637 484 CURVE SMOOTH",
"408 484 LINE SMOOTH",
"355 484 OFFCURVE",
"329 458 OFFCURVE",
"329 405 CURVE SMOOTH",
"329 229 LINE SMOOTH",
"329 176 OFFCURVE",
"355 150 OFFCURVE",
"408 150 CURVE SMOOTH",
"637 150 LINE SMOOTH",
"690 150 OFFCURVE",
"716 176 OFFCURVE",
"716 229 CURVE SMOOTH",
"716 266 LINE",
"638 266 LINE"
);
}
);
width = 1044;
}
);
unicode = 00A9;
},
{
glyphname = ordfeminine;
layers = (
{
layerId = "D2A65651-33D6-4DD8-B320-C085CF253BF6";
paths = (
{
closed = 1;
nodes = (
"205 444 LINE",
"205 559 LINE SMOOTH",
"205 577 OFFCURVE",
"208 580 OFFCURVE",
"227 580 CURVE SMOOTH",
"245 580 LINE SMOOTH",
"264 580 OFFCURVE",
"272 575 OFFCURVE",
"272 560 CURVE SMOOTH",
"272 542 LINE",
"278 542 LINE",
"278 559 LINE SMOOTH",
"278 597 OFFCURVE",
"276 622 OFFCURVE",
"232 622 CURVE SMOOTH",
"91 622 LINE SMOOTH",
"53 622 OFFCURVE",
"35 604 OFFCURVE",
"35 566 CURVE SMOOTH",
"35 444 LINE"
);
},
{
closed = 1;
nodes = (
"442 280 LINE",
"442 622 LINE",
"272 622 LINE",
"272 280 LINE"
);
},
{
closed = 1;
nodes = (
"35 456 LINE",
"35 335 LINE SMOOTH",
"35 298 OFFCURVE",
"53 280 OFFCURVE",
"91 280 CURVE SMOOTH",
"232 280 LINE SMOOTH",
"276 280 OFFCURVE",
"278 304 OFFCURVE",
"278 343 CURVE SMOOTH",
"278 360 LINE",
"272 360 LINE",
"272 342 LINE SMOOTH",
"272 328 OFFCURVE",
"264 321 OFFCURVE",
"245 321 CURVE SMOOTH",
"227 321 LINE SMOOTH",
"208 321 OFFCURVE",
"205 325 OFFCURVE",
"205 343 CURVE SMOOTH",
"205 456 LINE"
);
}
);
width = 475;
},
{
layerId = "B7AC66F4-B7F6-40D5-96E7-A23DEF3F6247";
paths = (
{
closed = 1;
nodes = (
"120 439 LINE",
"120 558 LINE SMOOTH",
"120 577 OFFCURVE",
"124 580 OFFCURVE",
"143 580 CURVE SMOOTH",
"271 580 LINE SMOOTH",
"288 580 OFFCURVE",
"296 573 OFFCURVE",
"296 555 CURVE SMOOTH",
"296 535 LINE",
"299 535 LINE",
"299 576 LINE SMOOTH",
"299 609 OFFCURVE",
"283 622 OFFCURVE",
"256 622 CURVE SMOOTH",
"116 622 LINE SMOOTH",
"78 622 OFFCURVE",
"60 604 OFFCURVE",
"60 566 CURVE SMOOTH",
"60 439 LINE"
);
},
{
closed = 1;
nodes = (
"357 280 LINE",
"357 622 LINE",
"296 622 LINE",
"296 280 LINE"
);
},
{
closed = 1;
nodes = (
"60 464 LINE",
"60 336 LINE SMOOTH",
"60 298 OFFCURVE",
"78 280 OFFCURVE",
"116 280 CURVE SMOOTH",
"256 280 LINE SMOOTH",
"283 280 OFFCURVE",
"299 293 OFFCURVE",
"299 326 CURVE SMOOTH",
"299 365 LINE",
"296 365 LINE",
"296 347 LINE SMOOTH",
"296 329 OFFCURVE",
"288 323 OFFCURVE",
"271 323 CURVE SMOOTH",
"143 323 LINE SMOOTH",
"124 323 OFFCURVE",
"120 327 OFFCURVE",
"120 345 CURVE SMOOTH",
"120 464 LINE"
);
}
);
width = 427;
}
);
unicode = 00AA;
},
{
glyphname = guillemotleft;
layers = (
{
layerId = "D2A65651-33D6-4DD8-B320-C085CF253BF6";
paths = (
{
closed = 1;
nodes = (
"167 93 LINE",
"415 93 LINE",
"274 241 LINE",
"415 388 LINE",
"167 388 LINE",
"21 241 LINE"
);
},
{
closed = 1;
nodes = (
"507 93 LINE",
"755 93 LINE",
"614 241 LINE",
"755 388 LINE",
"507 388 LINE",
"361 241 LINE"
);
}
);
width = 792;
},
{
layerId = "B7AC66F4-B7F6-40D5-96E7-A23DEF3F6247";
paths = (
{
closed = 1;
nodes = (
"184 105 LINE",
"278 105 LINE",
"152 259 LINE",
"278 415 LINE",
"184 415 LINE",
"60 260 LINE"
);
},
{
closed = 1;
nodes = (
"390 105 LINE",
"484 105 LINE",
"358 259 LINE",
"484 415 LINE",
"390 415 LINE",
"266 260 LINE"
);
}
);
width = 524;
}
);
unicode = 00AB;
},
{
glyphname = logicalnot;
layers = (
{
layerId = "D2A65651-33D6-4DD8-B320-C085CF253BF6";
paths = (
{
closed = 1;
nodes = (
"623 404 LINE",
"70 404 LINE",
"70 234 LINE",
"623 234 LINE"
);
},
{
closed = 1;
nodes = (
"715 98 LINE",
"715 404 LINE",
"583 404 LINE",
"583 98 LINE"
);
}
);
width = 799;
},
{
layerId = "B7AC66F4-B7F6-40D5-96E7-A23DEF3F6247";
paths = (
{
closed = 1;
nodes = (
"676 396 LINE",
"60 396 LINE",
"60 318 LINE",
"676 318 LINE"
);
},
{
closed = 1;
nodes = (
"685 169 LINE",
"685 396 LINE",
"619 396 LINE",
"619 169 LINE"
);
}
);
width = 745;
}
);
unicode = 00AC;
},
{
glyphname = softhyphen;
layers = (
{
layerId = "D2A65651-33D6-4DD8-B320-C085CF253BF6";
paths = (
{
closed = 1;
nodes = (
"55 242 LINE",
"395 242 LINE",
"395 301 LINE",
"55 301 LINE"
);
}
);
width = 450;
},
{
layerId = "B7AC66F4-B7F6-40D5-96E7-A23DEF3F6247";
paths = (
{
closed = 1;
nodes = (
"55 261 LINE",
"265 261 LINE",
"265 319 LINE",
"55 319 LINE"
);
}
);
width = 321;
}
);
unicode = 00AD;
},
{
glyphname = registered;
layers = (
{
layerId = "D2A65651-33D6-4DD8-B320-C085CF253BF6";
paths = (
{
closed = 1;
nodes = (
"632 545 LINE SMOOTH",
"632 648 OFFCURVE",
"588 712 OFFCURVE",
"419 712 CURVE SMOOTH",
"256 712 LINE SMOOTH",
"87 712 OFFCURVE",
"43 648 OFFCURVE",
"43 545 CURVE SMOOTH",
"43 514 LINE SMOOTH",
"43 411 OFFCURVE",
"87 347 OFFCURVE",
"256 347 CURVE SMOOTH",
"419 347 LINE SMOOTH",
"588 347 OFFCURVE",
"632 411 OFFCURVE",
"632 514 CURVE SMOOTH"
);
},
{
closed = 1;
nodes = (
"284 382 LINE SMOOTH",
"194 382 OFFCURVE",
"160 414 OFFCURVE",
"160 504 CURVE SMOOTH",
"160 555 LINE SMOOTH",
"160 646 OFFCURVE",
"194 677 OFFCURVE",
"284 677 CURVE SMOOTH",
"391 677 LINE SMOOTH",
"481 677 OFFCURVE",
"516 646 OFFCURVE",
"516 555 CURVE SMOOTH",
"516 504 LINE SMOOTH",
"516 414 OFFCURVE",
"481 382 OFFCURVE",
"391 382 CURVE SMOOTH"
);
},
{
closed = 1;
nodes = (
"237 622 LINE",
"237 439 LINE",
"322 439 LINE",
"322 503 LINE",
"326 503 LINE",
"360 439 LINE",
"449 439 LINE",
"407 505 LINE",
"417 505 LINE SMOOTH",
"433 505 OFFCURVE",
"441 513 OFFCURVE",
"441 528 CURVE SMOOTH",
"441 598 LINE SMOOTH",
"441 614 OFFCURVE",
"433 622 OFFCURVE",
"417 622 CURVE SMOOTH"
);
},
{
closed = 1;
nodes = (
"356 531 LINE SMOOTH",
"356 524 OFFCURVE",
"355 522 OFFCURVE",
"347 522 CURVE SMOOTH",
"322 522 LINE",
"322 604 LINE",
"347 604 LINE SMOOTH",
"355 604 OFFCURVE",
"356 603 OFFCURVE",
"356 595 CURVE SMOOTH"
);
}
);
width = 674;
},
{
layerId = "B7AC66F4-B7F6-40D5-96E7-A23DEF3F6247";
paths = (
{
closed = 1;
nodes = (
"551 527 LINE",
"551 628 OFFCURVE",
"515 682 OFFCURVE",
"426 682 CURVE SMOOTH",
"185 682 LINE SMOOTH",
"96 682 OFFCURVE",
"60 628 OFFCURVE",
"60 527 CURVE SMOOTH",
"60 488 LINE SMOOTH",
"60 387 OFFCURVE",
"96 337 OFFCURVE",
"185 337 CURVE SMOOTH",
"426 337 LINE SMOOTH",
"515 337 OFFCURVE",
"551 387 OFFCURVE",
"551 488 CURVE SMOOTH"
);
},
{
closed = 1;
nodes = (
"189 380 LINE",
"131 380 OFFCURVE",
"114 425 OFFCURVE",
"114 487 CURVE SMOOTH",
"114 528 LINE SMOOTH",
"114 590 OFFCURVE",
"131 642 OFFCURVE",
"189 642 CURVE SMOOTH",
"423 642 LINE SMOOTH",
"481 642 OFFCURVE",
"498 590 OFFCURVE",
"498 528 CURVE SMOOTH",
"498 487 LINE SMOOTH",
"498 425 OFFCURVE",
"481 380 OFFCURVE",
"423 380 CURVE SMOOTH"
);
},
{
closed = 1;
nodes = (
"212 609 LINE",
"212 413 LINE",
"259 413 LINE",
"259 485 LINE",
"301 485 LINE",
"348 413 LINE",
"400 413 LINE",
"352 486 LINE",
"360 486 LINE SMOOTH",
"383 486 OFFCURVE",
"391 502 OFFCURVE",
"391 520 CURVE SMOOTH",
"391 576 LINE SMOOTH",
"391 598 OFFCURVE",
"379 609 OFFCURVE",
"356 609 CURVE SMOOTH"
);
},
{
closed = 1;
nodes = (
"343 535 LINE",
"343 527 OFFCURVE",
"340 524 OFFCURVE",
"332 524 CURVE SMOOTH",
"260 524 LINE",
"260 573 LINE",
"332 573 LINE",
"340 573 OFFCURVE",
"343 570 OFFCURVE",
"343 562 CURVE"
);
}
);
width = 611;
}
);
unicode = 00AE;
},
{
glyphname = macron;
layers = (
{
layerId = "D2A65651-33D6-4DD8-B320-C085CF253BF6";
paths = (
{
closed = 1;
nodes = (
"78 550 LINE",
"626 550 LINE",
"626 608 LINE",
"78 608 LINE"
);
}
);
width = 705;
},
{
layerId = "B7AC66F4-B7F6-40D5-96E7-A23DEF3F6247";
paths = (
{
closed = 1;
nodes = (
"126 550 LINE",
"473 550 LINE",
"473 608 LINE",
"126 608 LINE"
);
}
);
width = 600;
}
);
unicode = 00AF;
},
{
glyphname = degree;
layers = (
{
layerId = "D2A65651-33D6-4DD8-B320-C085CF253BF6";
paths = (
{
closed = 1;
nodes = (
"626 543 LINE SMOOTH",
"626 596 OFFCURVE",
"600 622 OFFCURVE",
"547 622 CURVE SMOOTH",
"137 622 LINE SMOOTH",
"84 622 OFFCURVE",
"58 596 OFFCURVE",
"58 543 CURVE SMOOTH",
"58 373 LINE SMOOTH",
"58 320 OFFCURVE",
"84 294 OFFCURVE",
"137 294 CURVE SMOOTH",
"547 294 LINE SMOOTH",
"600 294 OFFCURVE",
"626 320 OFFCURVE",
"626 373 CURVE SMOOTH"
);
},
{
closed = 1;
nodes = (
"397 384 LINE SMOOTH",
"397 358 OFFCURVE",
"392 353 OFFCURVE",
"366 353 CURVE SMOOTH",
"320 353 LINE SMOOTH",
"294 353 OFFCURVE",
"289 358 OFFCURVE",
"289 384 CURVE SMOOTH",
"289 532 LINE SMOOTH",
"289 558 OFFCURVE",
"294 563 OFFCURVE",
"320 563 CURVE SMOOTH",
"366 563 LINE SMOOTH",
"392 563 OFFCURVE",
"397 558 OFFCURVE",
"397 532 CURVE SMOOTH"
);
}
);
width = 682;
},
{
layerId = "B7AC66F4-B7F6-40D5-96E7-A23DEF3F6247";
paths = (
{
closed = 1;
nodes = (
"487 545 LINE",
"487 597 OFFCURVE",
"462 622 OFFCURVE",
"410 622 CURVE SMOOTH",
"137 622 LINE SMOOTH",
"85 622 OFFCURVE",
"60 597 OFFCURVE",
"60 545 CURVE SMOOTH",
"60 414 LINE SMOOTH",
"60 362 OFFCURVE",
"85 337 OFFCURVE",
"137 337 CURVE SMOOTH",
"410 337 LINE SMOOTH",
"462 337 OFFCURVE",
"487 362 OFFCURVE",
"487 414 CURVE SMOOTH"
);
},
{
closed = 1;
nodes = (
"407 424 LINE",
"407 398 OFFCURVE",
"402 393 OFFCURVE",
"376 393 CURVE SMOOTH",
"172 393 LINE SMOOTH",
"146 393 OFFCURVE",
"141 398 OFFCURVE",
"141 424 CURVE SMOOTH",
"141 536 LINE SMOOTH",
"141 561 OFFCURVE",
"146 566 OFFCURVE",
"172 566 CURVE SMOOTH",
"376 566 LINE SMOOTH",
"402 566 OFFCURVE",
"407 561 OFFCURVE",
"407 536 CURVE SMOOTH"
);
}
);
width = 547;
}
);
unicode = 00B0;
},
{
glyphname = plusminus;
layers = (
{
layerId = "D2A65651-33D6-4DD8-B320-C085CF253BF6";
paths = (
{
closed = 1;
nodes = (
"34 337 LINE",
"695 337 LINE",
"695 458 LINE",
"34 458 LINE"
);
},
{
closed = 1;
nodes = (
"260 520 LINE",
"260 275 LINE",
"470 275 LINE",
"470 520 LINE"
);
},
{
closed = 1;
nodes = (
"35 135 LINE",
"695 135 LINE",
"695 236 LINE",
"35 236 LINE"
);
}
);
width = 752;
},
{
layerId = "B7AC66F4-B7F6-40D5-96E7-A23DEF3F6247";
paths = (
{
closed = 1;
nodes = (
"80 318 LINE",
"600 318 LINE",
"600 384 LINE",
"80 384 LINE"
);
},
{
closed = 1;
nodes = (
"298 504 LINE",
"298 222 LINE",
"382 222 LINE",
"382 504 LINE"
);
},
{
closed = 1;
nodes = (
"80 118 LINE",
"600 118 LINE",
"600 182 LINE",
"80 182 LINE"
);
}
);
width = 680;
}
);
unicode = 00B1;
},
{
glyphname = twosuperior;
layers = (
{
layerId = "D2A65651-33D6-4DD8-B320-C085CF253BF6";
paths = (
{
closed = 1;
nodes = (
"167 563 LINE SMOOTH",
"167 577 OFFCURVE",
"170 580 OFFCURVE",
"184 580 CURVE SMOOTH",
"206 580 LINE SMOOTH",
"221 580 OFFCURVE",
"223 577 OFFCURVE",
"223 563 CURVE SMOOTH",
"223 526 LINE SMOOTH",
"223 507 OFFCURVE",
"220 487 OFFCURVE",
"198 469 CURVE SMOOTH",
"25 323 LINE",
"25 280 LINE",
"373 280 LINE",
"373 322 LINE",
"214 322 LINE",
"337 421 LINE",
"364 446 OFFCURVE",
"373 473 OFFCURVE",
"373 527 CURVE SMOOTH",
"373 579 LINE SMOOTH",
"373 608 OFFCURVE",
"359 622 OFFCURVE",
"330 622 CURVE SMOOTH",
"60 622 LINE SMOOTH",
"31 622 OFFCURVE",
"17 608 OFFCURVE",
"17 579 CURVE SMOOTH",
"17 505 LINE",
"167 505 LINE"
);
}
);
width = 398;
},
{
layerId = "B7AC66F4-B7F6-40D5-96E7-A23DEF3F6247";
paths = (
{
closed = 1;
nodes = (
"127 563 LINE",
"127 577 OFFCURVE",
"130 580 OFFCURVE",
"144 580 CURVE SMOOTH",
"255 580 LINE SMOOTH",
"269 580 OFFCURVE",
"272 577 OFFCURVE",
"272 563 CURVE SMOOTH",
"272 543 LINE SMOOTH",
"272 507 OFFCURVE",
"259 485 OFFCURVE",
"238 467 CURVE SMOOTH",
"71 324 LINE",
"71 280 LINE",
"327 280 LINE",
"327 325 LINE",
"144 325 LINE",
"287 442 LINE SMOOTH",
"315 465 OFFCURVE",
"330 495 OFFCURVE",
"330 541 CURVE SMOOTH",
"330 579 LINE SMOOTH",
"330 608 OFFCURVE",
"316 622 OFFCURVE",
"287 622 CURVE SMOOTH",
"113 622 LINE SMOOTH",
"84 622 OFFCURVE",
"70 608 OFFCURVE",
"70 579 CURVE SMOOTH",
"70 511 LINE",
"127 511 LINE"
);
}
);
width = 380;
}
);
unicode = 00B2;
},
{
glyphname = threesuperior;
layers = (
{
layerId = "D2A65651-33D6-4DD8-B320-C085CF253BF6";
paths = (
{
closed = 1;
nodes = (
"180 563 LINE SMOOTH",
"180 577 OFFCURVE",
"183 580 OFFCURVE",
"197 580 CURVE SMOOTH",
"222 580 LINE SMOOTH",
"237 580 OFFCURVE",
"239 577 OFFCURVE",
"239 563 CURVE SMOOTH",
"239 491 LINE SMOOTH",
"239 476 OFFCURVE",
"237 474 OFFCURVE",
"222 474 CURVE SMOOTH",
"174 474 LINE",
"174 432 LINE",
"222 432 LINE SMOOTH",
"237 432 OFFCURVE",
"239 429 OFFCURVE",
"239 415 CURVE SMOOTH",
"239 339 LINE SMOOTH",
"239 325 OFFCURVE",
"237 322 OFFCURVE",
"222 322 CURVE SMOOTH",
"197 322 LINE SMOOTH",
"183 322 OFFCURVE",
"180 325 OFFCURVE",
"180 339 CURVE SMOOTH",
"180 391 LINE",
"30 391 LINE",
"30 323 LINE SMOOTH",
"30 294 OFFCURVE",
"44 280 OFFCURVE",
"73 280 CURVE SMOOTH",
"346 280 LINE SMOOTH",
"375 280 OFFCURVE",
"389 294 OFFCURVE",
"389 323 CURVE SMOOTH",
"389 412 LINE SMOOTH",
"389 440 OFFCURVE",
"376 454 OFFCURVE",
"350 455 CURVE",
"376 456 OFFCURVE",
"389 471 OFFCURVE",
"389 499 CURVE SMOOTH",
"389 579 LINE SMOOTH",
"389 608 OFFCURVE",
"375 622 OFFCURVE",
"346 622 CURVE SMOOTH",
"73 622 LINE SMOOTH",
"44 622 OFFCURVE",
"30 608 OFFCURVE",
"30 579 CURVE SMOOTH",
"30 510 LINE",
"180 510 LINE"
);
}
);
width = 399;
},
{
layerId = "B7AC66F4-B7F6-40D5-96E7-A23DEF3F6247";
paths = (
{
closed = 1;
nodes = (
"128 563 LINE",
"128 577 OFFCURVE",
"131 580 OFFCURVE",
"145 580 CURVE SMOOTH",
"263 580 LINE SMOOTH",
"277 580 OFFCURVE",
"280 577 OFFCURVE",
"280 563 CURVE SMOOTH",
"280 492 LINE SMOOTH",
"280 478 OFFCURVE",
"277 475 OFFCURVE",
"263 475 CURVE SMOOTH",
"158 475 LINE",
"158 432 LINE",
"263 432 LINE SMOOTH",
"277 432 OFFCURVE",
"280 429 OFFCURVE",
"280 415 CURVE SMOOTH",
"280 340 LINE SMOOTH",
"280 325 OFFCURVE",
"277 322 OFFCURVE",
"263 322 CURVE SMOOTH",
"145 322 LINE SMOOTH",
"131 322 OFFCURVE",
"128 325 OFFCURVE",
"128 340 CURVE SMOOTH",
"128 386 LINE",
"70 386 LINE",
"70 323 LINE SMOOTH",
"70 294 OFFCURVE",
"85 280 OFFCURVE",
"114 280 CURVE SMOOTH",
"295 280 LINE SMOOTH",
"324 280 OFFCURVE",
"339 294 OFFCURVE",
"339 323 CURVE SMOOTH",
"339 426 LINE SMOOTH",
"339 444 OFFCURVE",
"330 452 OFFCURVE",
"316 454 CURVE",
"330 455 OFFCURVE",
"339 465 OFFCURVE",
"339 482 CURVE SMOOTH",
"339 579 LINE SMOOTH",
"339 608 OFFCURVE",
"324 622 OFFCURVE",
"295 622 CURVE SMOOTH",
"114 622 LINE SMOOTH",
"85 622 OFFCURVE",
"70 608 OFFCURVE",
"70 579 CURVE SMOOTH",
"70 516 LINE",
"128 516 LINE"
);
}
);
width = 409;
}
);
unicode = 00B3;
},
{
glyphname = acute;
layers = (
{
layerId = "D2A65651-33D6-4DD8-B320-C085CF253BF6";
paths = (
{
closed = 1;
nodes = (
"166 506 LINE",
"352 506 LINE",
"530 661 LINE",
"302 661 LINE"
);
}
);
width = 705;
},
{
layerId = "B7AC66F4-B7F6-40D5-96E7-A23DEF3F6247";
paths = (
{
closed = 1;
nodes = (
"170 506 LINE",
"258 506 LINE",
"420 649 LINE",
"310 649 LINE"
);
}
);
width = 600;
}
);
unicode = 00B4;
},
{
glyphname = micro;
layers = (
{
layerId = "D2A65651-33D6-4DD8-B320-C085CF253BF6";
paths = (
{
closed = 1;
nodes = (
"56 485 LINE",
"56 79 LINE SMOOTH",
"56 26 OFFCURVE",
"82 0 OFFCURVE",
"135 0 CURVE SMOOTH",
"335 0 LINE SMOOTH",
"398 0 OFFCURVE",
"402 35 OFFCURVE",
"402 90 CURVE SMOOTH",
"402 114 LINE",
"393 114 LINE",
"393 88 LINE SMOOTH",
"393 67 OFFCURVE",
"381 59 OFFCURVE",
"355 59 CURVE SMOOTH",
"327 59 LINE SMOOTH",
"301 59 OFFCURVE",
"296 64 OFFCURVE",
"296 90 CURVE SMOOTH",
"296 485 LINE"
);
},
{
closed = 1;
nodes = (
"393 485 LINE",
"393 0 LINE",
"633 0 LINE",
"633 485 LINE"
);
},
{
closed = 1;
nodes = (
"56 344 LINE",
"56 -141 LINE",
"296 -141 LINE",
"296 344 LINE"
);
}
);
width = 689;
},
{
layerId = "B7AC66F4-B7F6-40D5-96E7-A23DEF3F6247";
paths = (
{
closed = 1;
nodes = (
"90 485 LINE",
"90 79 LINE SMOOTH",
"90 26 OFFCURVE",
"116 0 OFFCURVE",
"169 0 CURVE SMOOTH",
"406 0 LINE SMOOTH",
"444 0 OFFCURVE",
"466 18 OFFCURVE",
"466 64 CURVE SMOOTH",
"466 128 LINE",
"461 128 LINE",
"461 94 LINE SMOOTH",
"461 68 OFFCURVE",
"451 59 OFFCURVE",
"427 59 CURVE SMOOTH",
"207 59 LINE SMOOTH",
"181 59 OFFCURVE",
"176 64 OFFCURVE",
"176 90 CURVE SMOOTH",
"176 485 LINE"
);
},
{
closed = 1;
nodes = (
"461 485 LINE",
"461 0 LINE",
"547 0 LINE",
"547 485 LINE"
);
},
{
closed = 1;
nodes = (
"90 426 LINE",
"90 -141 LINE",
"176 -141 LINE",
"176 426 LINE"
);
}
);
width = 637;
}
);
unicode = 00B5;
},
{
glyphname = paragraph;
layers = (
{
layerId = "D2A65651-33D6-4DD8-B320-C085CF253BF6";
paths = (
{
closed = 1;
nodes = (
"413 622 LINE",
"117 622 LINE SMOOTH",
"64 622 OFFCURVE",
"38 596 OFFCURVE",
"38 543 CURVE SMOOTH",
"38 282 LINE SMOOTH",
"38 229 OFFCURVE",
"64 203 OFFCURVE",
"117 203 CURVE SMOOTH",
"413 203 LINE"
);
},
{
closed = 1;
nodes = (
"256 622 LINE",
"256 -141 LINE",
"467 -141 LINE",
"467 622 LINE"
);
},
{
closed = 1;
nodes = (
"542 622 LINE",
"542 -141 LINE",
"753 -141 LINE",
"753 622 LINE"
);
}
);
width = 802;
},
{
layerId = "B7AC66F4-B7F6-40D5-96E7-A23DEF3F6247";
paths = (
{
closed = 1;
nodes = (
"387 622 LINE",
"159 622 LINE SMOOTH",
"106 622 OFFCURVE",
"80 596 OFFCURVE",
"80 543 CURVE SMOOTH",
"80 306 LINE SMOOTH",
"80 253 OFFCURVE",
"106 227 OFFCURVE",
"159 227 CURVE SMOOTH",
"387 227 LINE"
);
},
{
closed = 1;
nodes = (
"339 622 LINE",
"339 -141 LINE",
"421 -141 LINE",
"421 622 LINE"
);
},
{
closed = 1;
nodes = (
"552 622 LINE",
"552 -141 LINE",
"634 -141 LINE",
"634 622 LINE"
);
}
);
width = 734;
}
);
unicode = 00B6;
},
{
glyphname = periodcentered;
layers = (
{
layerId = "D2A65651-33D6-4DD8-B320-C085CF253BF6";
paths = (
{
closed = 1;
nodes = (
"62 237 LINE",
"316 237 LINE",
"316 386 LINE",
"62 386 LINE"
);
}
);
width = 364;
},
{
layerId = "B7AC66F4-B7F6-40D5-96E7-A23DEF3F6247";
paths = (
{
closed = 1;
nodes = (
"80 257 LINE",
"179 257 LINE",
"179 373 LINE",
"80 373 LINE"
);
}
);
width = 259;
}
);
unicode = 00B7;
},
{
glyphname = cedilla;
layers = (
{
layerId = "D2A65651-33D6-4DD8-B320-C085CF253BF6";
paths = (
{
closed = 1;
nodes = (
"281 -162 LINE SMOOTH",
"281 -188 OFFCURVE",
"276 -193 OFFCURVE",
"250 -193 CURVE SMOOTH",
"171 -193 LINE",
"171 -252 LINE",
"427 -252 LINE SMOOTH",
"480 -252 OFFCURVE",
"506 -226 OFFCURVE",
"506 -173 CURVE SMOOTH",
"506 -45 LINE",
"281 -45 LINE"
);
}
);
width = 705;
},
{
layerId = "B7AC66F4-B7F6-40D5-96E7-A23DEF3F6247";
paths = (
{
closed = 1;
nodes = (
"337 -123 LINE",
"337 -149 OFFCURVE",
"328 -159 OFFCURVE",
"302 -159 CURVE SMOOTH",
"181 -159 LINE",
"181 -217 LINE",
"330 -217 LINE SMOOTH",
"384 -217 OFFCURVE",
"418 -190 OFFCURVE",
"418 -129 CURVE SMOOTH",
"418 -50 LINE",
"337 -50 LINE"
);
}
);
width = 600;
}
);
unicode = 00B8;
},
{
glyphname = onesuperior;
layers = (
{
layerId = "D2A65651-33D6-4DD8-B320-C085CF253BF6";
paths = (
{
closed = 1;
nodes = (
"190 622 LINE",
"10 622 LINE",
"10 580 LINE",
"190 580 LINE"
);
},
{
closed = 1;
nodes = (
"88 622 LINE",
"88 280 LINE",
"258 280 LINE",
"258 622 LINE"
);
}
);
width = 307;
},
{
layerId = "B7AC66F4-B7F6-40D5-96E7-A23DEF3F6247";
paths = (
{
closed = 1;
nodes = (
"135 622 LINE",
"30 622 LINE",
"30 580 LINE",
"135 580 LINE"
);
},
{
closed = 1;
nodes = (
"111 622 LINE",
"111 280 LINE",
"171 280 LINE",
"171 622 LINE"
);
}
);
width = 241;
}
);
unicode = 00B9;
},
{
glyphname = ordmasculine;
layers = (
{
layerId = "D2A65651-33D6-4DD8-B320-C085CF253BF6";
paths = (
{
closed = 1;
nodes = (
"415 579 LINE SMOOTH",
"415 608 OFFCURVE",
"401 622 OFFCURVE",
"372 622 CURVE SMOOTH",
"78 622 LINE SMOOTH",
"49 622 OFFCURVE",
"35 608 OFFCURVE",
"35 579 CURVE SMOOTH",
"35 323 LINE SMOOTH",
"35 294 OFFCURVE",
"49 280 OFFCURVE",
"78 280 CURVE SMOOTH",
"372 280 LINE SMOOTH",
"401 280 OFFCURVE",
"415 294 OFFCURVE",
"415 323 CURVE SMOOTH"
);
},
{
closed = 1;
nodes = (
"255 339 LINE SMOOTH",
"255 325 OFFCURVE",
"253 322 OFFCURVE",
"238 322 CURVE SMOOTH",
"212 322 LINE SMOOTH",
"198 322 OFFCURVE",
"195 325 OFFCURVE",
"195 339 CURVE SMOOTH",
"195 563 LINE SMOOTH",
"195 577 OFFCURVE",
"198 580 OFFCURVE",
"212 580 CURVE SMOOTH",
"238 580 LINE SMOOTH",
"253 580 OFFCURVE",
"255 577 OFFCURVE",
"255 563 CURVE SMOOTH"
);
}
);
width = 467;
},
{
layerId = "B7AC66F4-B7F6-40D5-96E7-A23DEF3F6247";
paths = (
{
closed = 1;
nodes = (
"360 567 LINE",
"360 604 OFFCURVE",
"341 622 OFFCURVE",
"305 622 CURVE SMOOTH",
"125 622 LINE SMOOTH",
"88 622 OFFCURVE",
"70 604 OFFCURVE",
"70 567 CURVE SMOOTH",
"70 335 LINE SMOOTH",
"70 298 OFFCURVE",
"88 280 OFFCURVE",
"125 280 CURVE SMOOTH",
"305 280 LINE SMOOTH",
"341 280 OFFCURVE",
"360 298 OFFCURVE",
"360 335 CURVE SMOOTH"
);
},
{
closed = 1;
nodes = (
"300 344 LINE",
"300 326 OFFCURVE",
"296 322 OFFCURVE",
"278 322 CURVE SMOOTH",
"151 322 LINE SMOOTH",
"132 322 OFFCURVE",
"129 326 OFFCURVE",
"129 344 CURVE SMOOTH",
"129 559 LINE SMOOTH",
"129 577 OFFCURVE",
"132 580 OFFCURVE",
"151 580 CURVE SMOOTH",
"278 580 LINE SMOOTH",
"296 580 OFFCURVE",
"300 577 OFFCURVE",
"300 559 CURVE SMOOTH"
);
}
);
width = 430;
}
);
unicode = 00BA;
},
{
glyphname = guillemotright;
layers = (
{
layerId = "D2A65651-33D6-4DD8-B320-C085CF253BF6";
paths = (
{
closed = 1;
nodes = (
"755 241 LINE",
"609 388 LINE",
"361 388 LINE",
"502 241 LINE",
"361 93 LINE",
"609 93 LINE"
);
},
{
closed = 1;
nodes = (
"415 241 LINE",
"269 388 LINE",
"21 388 LINE",
"162 241 LINE",
"21 93 LINE",
"269 93 LINE"
);
}
);
width = 777;
},
{
layerId = "B7AC66F4-B7F6-40D5-96E7-A23DEF3F6247";
paths = (
{
closed = 1;
nodes = (
"464 260 LINE",
"340 415 LINE",
"246 415 LINE",
"372 259 LINE",
"246 105 LINE",
"340 105 LINE"
);
},
{
closed = 1;
nodes = (
"258 260 LINE",
"134 415 LINE",
"40 415 LINE",
"166 259 LINE",
"40 105 LINE",
"134 105 LINE"
);
}
);
width = 518;
}
);
unicode = 00BB;
},
{
glyphname = questiondown;
layers = (
{
layerId = "D2A65651-33D6-4DD8-B320-C085CF253BF6";
paths = (
{
closed = 1;
nodes = (
"288 99 LINE SMOOTH",
"288 125 OFFCURVE",
"293 130 OFFCURVE",
"319 130 CURVE SMOOTH",
"403 130 LINE",
"403 199 LINE",
"123 199 LINE SMOOTH",
"70 199 OFFCURVE",
"44 173 OFFCURVE",
"44 120 CURVE SMOOTH",
"44 -59 LINE SMOOTH",
"44 -112 OFFCURVE",
"70 -138 OFFCURVE",
"123 -138 CURVE SMOOTH",
"357 -138 LINE",
"357 -79 LINE",
"319 -79 LINE SMOOTH",
"293 -79 OFFCURVE",
"288 -74 OFFCURVE",
"288 -48 CURVE SMOOTH"
);
},
{
closed = 1;
nodes = (
"478 130 LINE",
"459 268 LINE",
"255 268 LINE",
"234 130 LINE"
);
},
{
closed = 1;
nodes = (
"487 484 LINE",
"233 484 LINE",
"233 335 LINE",
"487 335 LINE"
);
},
{
closed = 1;
nodes = (
"405 -48 LINE SMOOTH",
"405 -74 OFFCURVE",
"400 -79 OFFCURVE",
"374 -79 CURVE SMOOTH",
"353 -79 LINE",
"353 -138 LINE",
"570 -138 LINE SMOOTH",
"623 -138 OFFCURVE",
"649 -112 OFFCURVE",
"649 -59 CURVE SMOOTH",
"649 61 LINE",
"405 61 LINE"
);
}
);
width = 661;
},
{
layerId = "B7AC66F4-B7F6-40D5-96E7-A23DEF3F6247";
paths = (
{
closed = 1;
nodes = (
"177 127 LINE",
"177 151 OFFCURVE",
"180 159 OFFCURVE",
"205 159 CURVE SMOOTH",
"342 159 LINE",
"342 219 LINE",
"169 219 LINE SMOOTH",
"114 219 OFFCURVE",
"90 188 OFFCURVE",
"90 141 CURVE SMOOTH",
"90 -61 LINE SMOOTH",
"90 -108 OFFCURVE",
"114 -138 OFFCURVE",
"169 -138 CURVE SMOOTH",
"450 -138 LINE",
"450 -80 LINE",
"205 -80 LINE SMOOTH",
"180 -80 OFFCURVE",
"177 -71 OFFCURVE",
"177 -47 CURVE"
);
},
{
closed = 1;
nodes = (
"381 159 LINE",
"374 286 LINE",
"302 286 LINE",
"294 159 LINE"
);
},
{
closed = 1;
nodes = (
"388 484 LINE",
"289 484 LINE",
"289 368 LINE",
"388 368 LINE"
);
},
{
closed = 1;
nodes = (
"488 -47 LINE",
"488 -71 OFFCURVE",
"485 -80 OFFCURVE",
"459 -80 CURVE SMOOTH",
"217 -80 LINE",
"217 -138 LINE",
"496 -138 LINE SMOOTH",
"552 -138 OFFCURVE",
"575 -108 OFFCURVE",
"575 -61 CURVE SMOOTH",
"575 49 LINE",
"488 49 LINE"
);
}
);
width = 615;
}
);
unicode = 00BF;
},
{
glyphname = Agrave;
layers = (
{
layerId = "D2A65651-33D6-4DD8-B320-C085CF253BF6";
paths = (
{
closed = 1;
nodes = (
"233 622 LINE",
"0 0 LINE",
"243 0 LINE",
"382 477 LINE",
"517 0 LINE",
"766 0 LINE",
"533 622 LINE"
);
},
{
closed = 1;
nodes = (
"158 182 LINE",
"158 123 LINE",
"611 123 LINE",
"611 182 LINE"
);
},
{
closed = 1;
nodes = (
"112 824 LINE",
"290 669 LINE",
"476 669 LINE",
"340 824 LINE"
);
}
);
width = 766;
},
{
layerId = "B7AC66F4-B7F6-40D5-96E7-A23DEF3F6247";
paths = (
{
closed = 1;
nodes = (
"277 622 LINE",
"35 0 LINE",
"123 0 LINE",
"340 562 LINE",
"560 0 LINE",
"647 0 LINE",
"404 622 LINE"
);
},
{
closed = 1;
nodes = (
"137 182 LINE",
"137 123 LINE",
"545 123 LINE",
"545 182 LINE"
);
},
{
closed = 1;
nodes = (
"119 813 LINE",
"281 670 LINE",
"369 670 LINE",
"229 813 LINE"
);
}
);
width = 682;
}
);
unicode = 00C0;
},
{
glyphname = circumflex;
layers = (
{
layerId = "D2A65651-33D6-4DD8-B320-C085CF253BF6";
paths = (
{
closed = 1;
nodes = (
"56 506 LINE",
"278 506 LINE",
"352 590 LINE",
"427 506 LINE",
"649 506 LINE",
"461 669 LINE",
"244 669 LINE"
);
}
);
width = 705;
},
{
layerId = "B7AC66F4-B7F6-40D5-96E7-A23DEF3F6247";
paths = (
{
closed = 1;
nodes = (
"84 506 LINE",
"185 506 LINE",
"300 607 LINE",
"415 506 LINE",
"516 506 LINE",
"350 649 LINE",
"250 649 LINE"
);
}
);
width = 600;
}
);
unicode = 02C6;
},
{
glyphname = tilde;
layers = (
{
layerId = "D2A65651-33D6-4DD8-B320-C085CF253BF6";
paths = (
{
closed = 1;
nodes = (
"319 591 OFFCURVE",
"376 516 OFFCURVE",
"462 516 CURVE SMOOTH",
"550 516 LINE SMOOTH",
"603 516 OFFCURVE",
"629 542 OFFCURVE",
"629 595 CURVE SMOOTH",
"629 661 LINE",
"439 661 LINE",
"439 606 LINE SMOOTH",
"439 594 OFFCURVE",
"433 586 OFFCURVE",
"419 586 CURVE SMOOTH",
"385 586 OFFCURVE",
"328 661 OFFCURVE",
"242 661 CURVE SMOOTH",
"154 661 LINE SMOOTH",
"101 661 OFFCURVE",
"75 635 OFFCURVE",
"75 582 CURVE SMOOTH",
"75 516 LINE",
"265 516 LINE",
"265 571 LINE SMOOTH",
"265 583 OFFCURVE",
"271 591 OFFCURVE",
"285 591 CURVE SMOOTH"
);
}
);
width = 705;
},
{
layerId = "B7AC66F4-B7F6-40D5-96E7-A23DEF3F6247";
paths = (
{
closed = 1;
nodes = (
"232 599 OFFCURVE",
"359 520 OFFCURVE",
"418 520 CURVE SMOOTH",
"436 520 LINE SMOOTH",
"491 520 OFFCURVE",
"507 550 OFFCURVE",
"507 597 CURVE SMOOTH",
"507 656 LINE",
"433 656 LINE",
"433 601 LINE SMOOTH",
"433 581 OFFCURVE",
"428 577 OFFCURVE",
"414 577 CURVE",
"368 577 OFFCURVE",
"238 656 OFFCURVE",
"180 656 CURVE SMOOTH",
"166 656 LINE SMOOTH",
"111 656 OFFCURVE",
"93 627 OFFCURVE",
"93 579 CURVE SMOOTH",
"93 520 LINE",
"168 520 LINE",
"168 576 LINE SMOOTH",
"168 591 OFFCURVE",
"173 599 OFFCURVE",
"185 599 CURVE SMOOTH"
);
}
);
width = 600;
}
);
unicode = 02DC;
},
{
glyphname = Adieresis;
layers = (
{
layerId = "D2A65651-33D6-4DD8-B320-C085CF253BF6";
paths = (
{
closed = 1;
nodes = (
"233 622 LINE",
"0 0 LINE",
"243 0 LINE",
"382 477 LINE",
"517 0 LINE",
"766 0 LINE",
"533 622 LINE"
);
},
{
closed = 1;
nodes = (
"104 810 LINE",
"104 669 LINE",
"343 669 LINE",
"343 810 LINE"
);
},
{
closed = 1;
nodes = (
"158 182 LINE",
"158 123 LINE",
"611 123 LINE",
"611 182 LINE"
);
},
{
closed = 1;
nodes = (
"423 810 LINE",
"423 669 LINE",
"662 669 LINE",
"662 810 LINE"
);
}
);
width = 766;
},
{
layerId = "B7AC66F4-B7F6-40D5-96E7-A23DEF3F6247";
paths = (
{
closed = 1;
nodes = (
"277 622 LINE",
"35 0 LINE",
"123 0 LINE",
"340 562 LINE",
"560 0 LINE",
"647 0 LINE",
"404 622 LINE"
);
},
{
closed = 1;
nodes = (
"151 752 LINE",
"151 669 LINE",
"274 669 LINE",
"274 752 LINE"
);
},
{
closed = 1;
nodes = (
"137 182 LINE",
"137 123 LINE",
"545 123 LINE",
"545 182 LINE"
);
},
{
closed = 1;
nodes = (
"411 752 LINE",
"411 669 LINE",
"534 669 LINE",
"534 752 LINE"
);
}
);
width = 682;
}
);
unicode = 00C4;
},
{
glyphname = ring;
layers = (
{
layerId = "D2A65651-33D6-4DD8-B320-C085CF253BF6";
paths = (
{
closed = 1;
nodes = (
"557 604 LINE SMOOTH",
"557 657 OFFCURVE",
"531 683 OFFCURVE",
"478 683 CURVE SMOOTH",
"227 683 LINE SMOOTH",
"174 683 OFFCURVE",
"148 657 OFFCURVE",
"148 604 CURVE SMOOTH",
"148 573 LINE SMOOTH",
"148 520 OFFCURVE",
"174 494 OFFCURVE",
"227 494 CURVE SMOOTH",
"478 494 LINE SMOOTH",
"531 494 OFFCURVE",
"557 520 OFFCURVE",
"557 573 CURVE SMOOTH"
);
},
{
closed = 1;
nodes = (
"407 584 LINE SMOOTH",
"407 558 OFFCURVE",
"402 553 OFFCURVE",
"376 553 CURVE SMOOTH",
"329 553 LINE SMOOTH",
"303 553 OFFCURVE",
"298 558 OFFCURVE",
"298 584 CURVE SMOOTH",
"298 593 LINE SMOOTH",
"298 619 OFFCURVE",
"303 624 OFFCURVE",
"329 624 CURVE SMOOTH",
"376 624 LINE SMOOTH",
"402 624 OFFCURVE",
"407 619 OFFCURVE",
"407 593 CURVE SMOOTH"
);
}
);
width = 705;
},
{
layerId = "B7AC66F4-B7F6-40D5-96E7-A23DEF3F6247";
paths = (
{
closed = 1;
nodes = (
"454 611 LINE",
"454 656 OFFCURVE",
"432 677 OFFCURVE",
"388 677 CURVE SMOOTH",
"211 677 LINE SMOOTH",
"167 677 OFFCURVE",
"145 656 OFFCURVE",
"145 611 CURVE SMOOTH",
"145 572 LINE SMOOTH",
"145 526 OFFCURVE",
"167 506 OFFCURVE",
"211 506 CURVE SMOOTH",
"388 506 LINE SMOOTH",
"432 506 OFFCURVE",
"454 526 OFFCURVE",
"454 572 CURVE SMOOTH"
);
},
{
closed = 1;
nodes = (
"393 581 LINE",
"393 558 OFFCURVE",
"390 553 OFFCURVE",
"365 553 CURVE SMOOTH",
"234 553 LINE SMOOTH",
"209 553 OFFCURVE",
"206 558 OFFCURVE",
"206 581 CURVE SMOOTH",
"206 602 LINE SMOOTH",
"206 625 OFFCURVE",
"209 630 OFFCURVE",
"234 630 CURVE SMOOTH",
"365 630 LINE SMOOTH",
"390 630 OFFCURVE",
"393 625 OFFCURVE",
"393 602 CURVE SMOOTH"
);
}
);
width = 600;
}
);
unicode = 02DA;
},
{
glyphname = AE;
layers = (
{
layerId = "D2A65651-33D6-4DD8-B320-C085CF253BF6";
paths = (
{
closed = 1;
nodes = (
"600 622 LINE",
"359 622 LINE",
"2 0 LINE",
"265 0 LINE"
);
},
{
closed = 1;
nodes = (
"613 182 LINE",
"160 182 LINE",
"160 123 LINE",
"613 123 LINE"
);
},
{
closed = 1;
nodes = (
"530 622 LINE",
"530 0 LINE",
"784 0 LINE",
"784 622 LINE"
);
},
{
closed = 1;
nodes = (
"1076 59 LINE",
"608 59 LINE",
"608 0 LINE",
"1076 0 LINE"
);
},
{
closed = 1;
nodes = (
"1022 348 LINE",
"626 348 LINE",
"626 289 LINE",
"1022 289 LINE"
);
},
{
closed = 1;
nodes = (
"1063 622 LINE",
"608 622 LINE",
"608 563 LINE",
"1063 563 LINE"
);
}
);
width = 1105;
},
{
layerId = "B7AC66F4-B7F6-40D5-96E7-A23DEF3F6247";
paths = (
{
closed = 1;
nodes = (
"579 622 LINE",
"487 622 LINE",
"31 0 LINE",
"126 0 LINE"
);
},
{
closed = 1;
nodes = (
"549 204 LINE",
"205 204 LINE",
"205 145 LINE",
"549 145 LINE"
);
},
{
closed = 1;
nodes = (
"528 622 LINE",
"528 0 LINE",
"616 0 LINE",
"616 622 LINE"
);
},
{
closed = 1;
nodes = (
"954 59 LINE",
"575 59 LINE",
"575 0 LINE",
"954 0 LINE"
);
},
{
closed = 1;
nodes = (
"910 348 LINE",
"577 348 LINE",
"577 289 LINE",
"910 289 LINE"
);
},
{
closed = 1;
nodes = (
"941 622 LINE",
"575 622 LINE",
"575 563 LINE",
"941 563 LINE"
);
}
);
width = 1014;
}
);
unicode = 00C6;
},
{
glyphname = Edieresis;
layers = (
{
layerId = "D2A65651-33D6-4DD8-B320-C085CF253BF6";
paths = (
{
closed = 1;
nodes = (
"370 810 LINE",
"370 669 LINE",
"609 669 LINE",
"609 810 LINE"
);
},
{
closed = 1;
nodes = (
"51 810 LINE",
"51 669 LINE",
"290 669 LINE",
"290 810 LINE"
);
},
{
closed = 1;
nodes = (
"56 622 LINE",
"56 0 LINE",
"320 0 LINE",
"320 622 LINE"
);
},
{
closed = 1;
nodes = (
"558 348 LINE",
"162 348 LINE",
"162 289 LINE",
"558 289 LINE"
);
},
{
closed = 1;
nodes = (
"599 622 LINE",
"144 622 LINE",
"144 563 LINE",
"599 563 LINE"
);
},
{
closed = 1;
nodes = (
"612 59 LINE",
"144 59 LINE",
"144 0 LINE",
"612 0 LINE"
);
}
);
width = 705;
},
{
layerId = "B7AC66F4-B7F6-40D5-96E7-A23DEF3F6247";
paths = (
{
closed = 1;
nodes = (
"380 752 LINE",
"380 669 LINE",
"503 669 LINE",
"503 752 LINE"
);
},
{
closed = 1;
nodes = (
"120 752 LINE",
"120 669 LINE",
"243 669 LINE",
"243 752 LINE"
);
},
{
closed = 1;
nodes = (
"100 622 LINE",
"100 0 LINE",
"189 0 LINE",
"189 622 LINE"
);
},
{
closed = 1;
nodes = (
"482 348 LINE",
"151 348 LINE",
"151 289 LINE",
"482 289 LINE"
);
},
{
closed = 1;
nodes = (
"523 622 LINE",
"149 622 LINE",
"149 563 LINE",
"523 563 LINE"
);
},
{
closed = 1;
nodes = (
"537 59 LINE",
"149 59 LINE",
"149 0 LINE",
"537 0 LINE"
);
}
);
width = 587;
}
);
unicode = 00CB;
},
{
glyphname = Idieresis;
layers = (
{
layerId = "D2A65651-33D6-4DD8-B320-C085CF253BF6";
paths = (
{
closed = 1;
nodes = (
"56 622 LINE",
"56 0 LINE",
"320 0 LINE",
"320 622 LINE"
);
},
{
closed = 1;
nodes = (
"-88 809 LINE",
"-88 668 LINE",
"151 668 LINE",
"151 809 LINE"
);
},
{
closed = 1;
nodes = (
"231 809 LINE",
"231 668 LINE",
"470 668 LINE",
"470 809 LINE"
);
}
);
width = 360;
},
{
layerId = "B7AC66F4-B7F6-40D5-96E7-A23DEF3F6247";
paths = (
{
closed = 1;
nodes = (
"110 622 LINE",
"110 0 LINE",
"198 0 LINE",
"198 622 LINE"
);
},
{
closed = 1;
nodes = (
"-38 752 LINE",
"-38 669 LINE",
"85 669 LINE",
"85 752 LINE"
);
},
{
closed = 1;
nodes = (
"222 752 LINE",
"222 669 LINE",
"345 669 LINE",
"345 752 LINE"
);
}
);
width = 308;
}
);
unicode = 00CF;
},
{
glyphname = Eth;
layers = (
{
layerId = "D2A65651-33D6-4DD8-B320-C085CF253BF6";
paths = (
{
closed = 1;
nodes = (
"440 362 LINE",
"694 362 LINE",
"694 543 LINE SMOOTH",
"694 596 OFFCURVE",
"668 622 OFFCURVE",
"615 622 CURVE SMOOTH",
"152 622 LINE",
"152 563 LINE",
"409 563 LINE SMOOTH",
"435 563 OFFCURVE",
"440 558 OFFCURVE",
"440 532 CURVE SMOOTH"
);
},
{
closed = 1;
nodes = (
"440 90 LINE SMOOTH",
"440 64 OFFCURVE",
"435 59 OFFCURVE",
"409 59 CURVE SMOOTH",
"152 59 LINE",
"152 0 LINE",
"615 0 LINE SMOOTH",
"668 0 OFFCURVE",
"694 26 OFFCURVE",
"694 79 CURVE SMOOTH",
"694 375 LINE",
"440 375 LINE"
);
},
{
closed = 1;
nodes = (
"70 622 LINE",
"70 0 LINE",
"324 0 LINE",
"324 622 LINE"
);
},
{
closed = 1;
nodes = (
"395 348 LINE",
"-7 348 LINE",
"-7 284 LINE",
"395 284 LINE"
);
}
);
width = 743;
},
{
layerId = "B7AC66F4-B7F6-40D5-96E7-A23DEF3F6247";
paths = (
{
closed = 1;
nodes = (
"535 394 LINE",
"623 394 LINE",
"623 543 LINE SMOOTH",
"623 596 OFFCURVE",
"597 622 OFFCURVE",
"544 622 CURVE SMOOTH",
"164 622 LINE",
"164 563 LINE",
"504 563 LINE SMOOTH",
"530 563 OFFCURVE",
"535 558 OFFCURVE",
"535 532 CURVE SMOOTH"
);
},
{
closed = 1;
nodes = (
"535 90 LINE",
"535 64 OFFCURVE",
"530 59 OFFCURVE",
"504 59 CURVE SMOOTH",
"164 59 LINE",
"164 0 LINE",
"544 0 LINE SMOOTH",
"597 0 OFFCURVE",
"623 26 OFFCURVE",
"623 79 CURVE SMOOTH",
"623 417 LINE",
"535 417 LINE"
);
},
{
closed = 1;
nodes = (
"120 622 LINE",
"120 0 LINE",
"208 0 LINE",
"208 622 LINE"
);
},
{
closed = 1;
nodes = (
"414 343 LINE",
"68 343 LINE",
"68 283 LINE",
"414 283 LINE"
);
}
);
width = 713;
}
);
unicode = 00D0;
},
{
glyphname = Odieresis;
layers = (
{
layerId = "D2A65651-33D6-4DD8-B320-C085CF253BF6";
paths = (
{
closed = 1;
nodes = (
"675 543 LINE SMOOTH",
"675 596 OFFCURVE",
"649 622 OFFCURVE",
"596 622 CURVE SMOOTH",
"131 622 LINE SMOOTH",
"78 622 OFFCURVE",
"52 596 OFFCURVE",
"52 543 CURVE SMOOTH",
"52 79 LINE SMOOTH",
"52 26 OFFCURVE",
"78 0 OFFCURVE",
"131 0 CURVE SMOOTH",
"596 0 LINE SMOOTH",
"649 0 OFFCURVE",
"675 26 OFFCURVE",
"675 79 CURVE SMOOTH"
);
},
{
closed = 1;
nodes = (
"421 90 LINE SMOOTH",
"421 64 OFFCURVE",
"416 59 OFFCURVE",
"390 59 CURVE SMOOTH",
"337 59 LINE SMOOTH",
"311 59 OFFCURVE",
"306 64 OFFCURVE",
"306 90 CURVE SMOOTH",
"306 532 LINE SMOOTH",
"306 558 OFFCURVE",
"311 563 OFFCURVE",
"337 563 CURVE SMOOTH",
"390 563 LINE SMOOTH",
"416 563 OFFCURVE",
"421 558 OFFCURVE",
"421 532 CURVE SMOOTH"
);
},
{
closed = 1;
nodes = (
"404 811 LINE",
"404 670 LINE",
"643 670 LINE",
"643 811 LINE"
);
},
{
closed = 1;
nodes = (
"85 811 LINE",
"85 670 LINE",
"324 670 LINE",
"324 811 LINE"
);
}
);
width = 705;
},
{
layerId = "B7AC66F4-B7F6-40D5-96E7-A23DEF3F6247";
paths = (
{
closed = 1;
nodes = (
"575 543 LINE",
"575 596 OFFCURVE",
"549 622 OFFCURVE",
"496 622 CURVE SMOOTH",
"169 622 LINE SMOOTH",
"116 622 OFFCURVE",
"90 596 OFFCURVE",
"90 543 CURVE SMOOTH",
"90 79 LINE SMOOTH",
"90 26 OFFCURVE",
"116 0 OFFCURVE",
"169 0 CURVE SMOOTH",
"496 0 LINE SMOOTH",
"549 0 OFFCURVE",
"575 26 OFFCURVE",
"575 79 CURVE SMOOTH"
);
},
{
closed = 1;
nodes = (
"489 90 LINE",
"489 64 OFFCURVE",
"484 59 OFFCURVE",
"458 59 CURVE SMOOTH",
"208 59 LINE SMOOTH",
"182 59 OFFCURVE",
"177 64 OFFCURVE",
"177 90 CURVE SMOOTH",
"177 532 LINE SMOOTH",
"177 558 OFFCURVE",
"182 563 OFFCURVE",
"208 563 CURVE SMOOTH",
"458 563 LINE SMOOTH",
"484 563 OFFCURVE",
"489 558 OFFCURVE",
"489 532 CURVE SMOOTH"
);
},
{
closed = 1;
nodes = (
"403 752 LINE",
"403 669 LINE",
"526 669 LINE",
"526 752 LINE"
);
},
{
closed = 1;
nodes = (
"143 752 LINE",
"143 669 LINE",
"266 669 LINE",
"266 752 LINE"
);
}
);
width = 665;
}
);
unicode = 00D6;
},
{
glyphname = multiply;
layers = (
{
layerId = "D2A65651-33D6-4DD8-B320-C085CF253BF6";
paths = (
{
closed = 1;
nodes = (
"645 185 LINE",
"178 533 LINE",
"78 432 LINE",
"546 86 LINE"
);
},
{
closed = 1;
nodes = (
"545 533 LINE",
"78 186 LINE",
"177 86 LINE",
"645 433 LINE"
);
}
);
width = 680;
},
{
layerId = "B7AC66F4-B7F6-40D5-96E7-A23DEF3F6247";
paths = (
{
closed = 1;
nodes = (
"568 197 LINE",
"130 499 LINE",
"84 440 LINE",
"522 138 LINE"
);
},
{
closed = 1;
nodes = (
"527 499 LINE",
"89 197 LINE",
"134 138 LINE",
"573 440 LINE"
);
}
);
width = 657;
}
);
unicode = 00D7;
},
{
glyphname = Oslash;
layers = (
{
layerId = "D2A65651-33D6-4DD8-B320-C085CF253BF6";
paths = (
{
closed = 1;
nodes = (
"675 543 LINE SMOOTH",
"675 596 OFFCURVE",
"649 622 OFFCURVE",
"596 622 CURVE SMOOTH",
"131 622 LINE SMOOTH",
"78 622 OFFCURVE",
"52 596 OFFCURVE",
"52 543 CURVE SMOOTH",
"52 79 LINE SMOOTH",
"52 26 OFFCURVE",
"78 0 OFFCURVE",
"131 0 CURVE SMOOTH",
"596 0 LINE SMOOTH",
"649 0 OFFCURVE",
"675 26 OFFCURVE",
"675 79 CURVE SMOOTH"
);
},
{
closed = 1;
nodes = (
"431 90 LINE SMOOTH",
"431 64 OFFCURVE",
"426 59 OFFCURVE",
"400 59 CURVE SMOOTH",
"327 59 LINE SMOOTH",
"301 59 OFFCURVE",
"296 64 OFFCURVE",
"296 90 CURVE SMOOTH",
"296 532 LINE SMOOTH",
"296 558 OFFCURVE",
"301 563 OFFCURVE",
"327 563 CURVE SMOOTH",
"400 563 LINE SMOOTH",
"426 563 OFFCURVE",
"431 558 OFFCURVE",
"431 532 CURVE SMOOTH"
);
},
{
closed = 1;
nodes = (
"614 661 LINE",
"27 -39 LINE",
"122 -39 LINE",
"709 661 LINE"
);
}
);
width = 728;
},
{
layerId = "B7AC66F4-B7F6-40D5-96E7-A23DEF3F6247";
paths = (
{
closed = 1;
nodes = (
"602 543 LINE",
"602 596 OFFCURVE",
"576 622 OFFCURVE",
"523 622 CURVE SMOOTH",
"179 622 LINE SMOOTH",
"126 622 OFFCURVE",
"100 596 OFFCURVE",
"100 543 CURVE SMOOTH",
"100 79 LINE SMOOTH",
"100 26 OFFCURVE",
"126 0 OFFCURVE",
"179 0 CURVE SMOOTH",
"523 0 LINE SMOOTH",
"576 0 OFFCURVE",
"602 26 OFFCURVE",
"602 79 CURVE SMOOTH"
);
},
{
closed = 1;
nodes = (
"517 87 LINE",
"517 61 OFFCURVE",
"512 56 OFFCURVE",
"485 56 CURVE SMOOTH",
"215 56 LINE SMOOTH",
"189 56 OFFCURVE",
"184 61 OFFCURVE",
"184 87 CURVE SMOOTH",
"184 535 LINE SMOOTH",
"184 561 OFFCURVE",
"189 566 OFFCURVE",
"215 566 CURVE SMOOTH",
"485 566 LINE SMOOTH",
"512 566 OFFCURVE",
"517 561 OFFCURVE",
"517 535 CURVE SMOOTH"
);
},
{
closed = 1;
nodes = (
"543 644 LINE",
"87 -22 LINE",
"160 -22 LINE",
"615 644 LINE"
);
}
);
width = 702;
}
);
unicode = 00D8;
},
{
glyphname = Udieresis;
layers = (
{
layerId = "D2A65651-33D6-4DD8-B320-C085CF253BF6";
paths = (
{
closed = 1;
nodes = (
"425 622 LINE",
"425 90 LINE SMOOTH",
"425 64 OFFCURVE",
"420 59 OFFCURVE",
"394 59 CURVE SMOOTH",
"341 59 LINE SMOOTH",
"315 59 OFFCURVE",
"310 64 OFFCURVE",
"310 90 CURVE SMOOTH",
"310 622 LINE",
"56 622 LINE",
"56 79 LINE SMOOTH",
"56 26 OFFCURVE",
"82 0 OFFCURVE",
"135 0 CURVE SMOOTH",
"600 0 LINE SMOOTH",
"653 0 OFFCURVE",
"679 26 OFFCURVE",
"679 79 CURVE SMOOTH",
"679 622 LINE"
);
},
{
closed = 1;
nodes = (
"88 810 LINE",
"88 669 LINE",
"327 669 LINE",
"327 810 LINE"
);
},
{
closed = 1;
nodes = (
"407 810 LINE",
"407 669 LINE",
"646 669 LINE",
"646 810 LINE"
);
}
);
width = 736;
},
{
layerId = "B7AC66F4-B7F6-40D5-96E7-A23DEF3F6247";
paths = (
{
closed = 1;
nodes = (
"507 622 LINE",
"507 90 LINE SMOOTH",
"507 64 OFFCURVE",
"502 59 OFFCURVE",
"476 59 CURVE SMOOTH",
"208 59 LINE SMOOTH",
"182 59 OFFCURVE",
"177 64 OFFCURVE",
"177 90 CURVE SMOOTH",
"177 622 LINE",
"90 622 LINE",
"90 79 LINE SMOOTH",
"90 26 OFFCURVE",
"116 0 OFFCURVE",
"169 0 CURVE SMOOTH",
"514 0 LINE SMOOTH",
"567 0 OFFCURVE",
"593 26 OFFCURVE",
"593 79 CURVE SMOOTH",
"593 622 LINE"
);
},
{
closed = 1;
nodes = (
"145 752 LINE",
"145 669 LINE",
"268 669 LINE",
"268 752 LINE"
);
},
{
closed = 1;
nodes = (
"405 752 LINE",
"405 669 LINE",
"528 669 LINE",
"528 752 LINE"
);
}
);
width = 683;
}
);
unicode = 00DC;
},
{
glyphname = Thorn;
layers = (
{
layerId = "D2A65651-33D6-4DD8-B320-C085CF253BF6";
paths = (
{
closed = 1;
nodes = (
"425 192 LINE SMOOTH",
"425 166 OFFCURVE",
"420 161 OFFCURVE",
"394 161 CURVE SMOOTH",
"145 161 LINE",
"145 102 LINE",
"600 102 LINE SMOOTH",
"653 102 OFFCURVE",
"679 128 OFFCURVE",
"679 181 CURVE SMOOTH",
"679 441 LINE SMOOTH",
"679 494 OFFCURVE",
"653 520 OFFCURVE",
"600 520 CURVE SMOOTH",
"145 520 LINE",
"145 461 LINE",
"394 461 LINE SMOOTH",
"420 461 OFFCURVE",
"425 456 OFFCURVE",
"425 430 CURVE SMOOTH"
);
},
{
closed = 1;
nodes = (
"63 622 LINE",
"63 0 LINE",
"317 0 LINE",
"317 622 LINE"
);
}
);
width = 716;
},
{
layerId = "B7AC66F4-B7F6-40D5-96E7-A23DEF3F6247";
paths = (
{
closed = 1;
nodes = (
"510 192 LINE",
"510 166 OFFCURVE",
"505 161 OFFCURVE",
"479 161 CURVE SMOOTH",
"145 161 LINE",
"145 102 LINE",
"517 102 LINE SMOOTH",
"570 102 OFFCURVE",
"596 128 OFFCURVE",
"596 181 CURVE SMOOTH",
"596 441 LINE SMOOTH",
"596 494 OFFCURVE",
"570 520 OFFCURVE",
"517 520 CURVE SMOOTH",
"135 520 LINE",
"135 461 LINE",
"479 461 LINE SMOOTH",
"505 461 OFFCURVE",
"510 456 OFFCURVE",
"510 430 CURVE SMOOTH"
);
},
{
closed = 1;
nodes = (
"100 622 LINE",
"100 0 LINE",
"187 0 LINE",
"187 622 LINE"
);
}
);
width = 666;
}
);
unicode = 00DE;
},
{
glyphname = germandbls;
layers = (
{
layerId = "D2A65651-33D6-4DD8-B320-C085CF253BF6";
paths = (
{
closed = 1;
nodes = (
"369 166 LINE",
"369 79 LINE SMOOTH",
"369 26 OFFCURVE",
"395 0 OFFCURVE",
"448 0 CURVE SMOOTH",
"859 0 LINE SMOOTH",
"912 0 OFFCURVE",
"938 26 OFFCURVE",
"938 79 CURVE SMOOTH",
"938 212 LINE SMOOTH",
"938 265 OFFCURVE",
"912 291 OFFCURVE",
"859 291 CURVE SMOOTH",
"642 291 LINE SMOOTH",
"616 291 OFFCURVE",
"611 296 OFFCURVE",
"611 322 CURVE SMOOTH",
"611 364 LINE SMOOTH",
"611 390 OFFCURVE",
"616 395 OFFCURVE",
"642 395 CURVE SMOOTH",
"783 395 LINE SMOOTH",
"836 395 OFFCURVE",
"862 421 OFFCURVE",
"862 474 CURVE SMOOTH",
"862 543 LINE SMOOTH",
"862 596 OFFCURVE",
"836 622 OFFCURVE",
"783 622 CURVE SMOOTH",
"142 622 LINE SMOOTH",
"89 622 OFFCURVE",
"63 596 OFFCURVE",
"63 543 CURVE SMOOTH",
"63 0 LINE",
"310 0 LINE",
"310 532 LINE SMOOTH",
"310 558 OFFCURVE",
"315 563 OFFCURVE",
"341 563 CURVE SMOOTH",
"570 563 LINE SMOOTH",
"596 563 OFFCURVE",
"601 558 OFFCURVE",
"601 532 CURVE SMOOTH",
"601 485 LINE SMOOTH",
"601 459 OFFCURVE",
"596 454 OFFCURVE",
"570 454 CURVE SMOOTH",
"455 454 LINE SMOOTH",
"402 454 OFFCURVE",
"376 428 OFFCURVE",
"376 375 CURVE SMOOTH",
"376 311 LINE SMOOTH",
"376 258 OFFCURVE",
"402 232 OFFCURVE",
"455 232 CURVE SMOOTH",
"667 232 LINE SMOOTH",
"693 232 OFFCURVE",
"698 227 OFFCURVE",
"698 201 CURVE SMOOTH",
"698 91 LINE SMOOTH",
"698 65 OFFCURVE",
"693 60 OFFCURVE",
"667 60 CURVE SMOOTH",
"640 60 LINE SMOOTH",
"614 60 OFFCURVE",
"609 65 OFFCURVE",
"609 91 CURVE SMOOTH",
"609 166 LINE"
);
}
);
width = 955;
},
{
layerId = "B7AC66F4-B7F6-40D5-96E7-A23DEF3F6247";
paths = (
{
closed = 1;
nodes = (
"316 150 LINE",
"316 79 LINE SMOOTH",
"316 26 OFFCURVE",
"342 0 OFFCURVE",
"395 0 CURVE SMOOTH",
"671 0 LINE SMOOTH",
"724 0 OFFCURVE",
"750 26 OFFCURVE",
"750 79 CURVE SMOOTH",
"750 211 LINE SMOOTH",
"750 264 OFFCURVE",
"724 290 OFFCURVE",
"671 290 CURVE SMOOTH",
"427 290 LINE SMOOTH",
"401 290 OFFCURVE",
"396 295 OFFCURVE",
"396 321 CURVE SMOOTH",
"396 378 LINE SMOOTH",
"396 404 OFFCURVE",
"401 409 OFFCURVE",
"427 409 CURVE SMOOTH",
"650 409 LINE SMOOTH",
"694 409 OFFCURVE",
"719 432 OFFCURVE",
"719 475 CURVE SMOOTH",
"719 543 LINE SMOOTH",
"719 596 OFFCURVE",
"693 622 OFFCURVE",
"640 622 CURVE SMOOTH",
"179 622 LINE SMOOTH",
"126 622 OFFCURVE",
"100 596 OFFCURVE",
"100 543 CURVE SMOOTH",
"100 0 LINE",
"186 0 LINE",
"186 529 LINE SMOOTH",
"186 555 OFFCURVE",
"192 561 OFFCURVE",
"218 561 CURVE SMOOTH",
"603 561 LINE SMOOTH",
"629 561 OFFCURVE",
"634 555 OFFCURVE",
"634 529 CURVE SMOOTH",
"634 493 LINE SMOOTH",
"634 471 OFFCURVE",
"628 467 OFFCURVE",
"598 467 CURVE SMOOTH",
"388 467 LINE SMOOTH",
"341 467 OFFCURVE",
"313 443 OFFCURVE",
"313 388 CURVE SMOOTH",
"313 311 LINE SMOOTH",
"313 258 OFFCURVE",
"339 232 OFFCURVE",
"392 232 CURVE SMOOTH",
"635 232 LINE SMOOTH",
"661 232 OFFCURVE",
"666 227 OFFCURVE",
"666 201 CURVE SMOOTH",
"666 89 LINE SMOOTH",
"666 63 OFFCURVE",
"661 58 OFFCURVE",
"635 58 CURVE SMOOTH",
"431 58 LINE SMOOTH",
"405 58 OFFCURVE",
"400 63 OFFCURVE",
"400 89 CURVE SMOOTH",
"400 150 LINE"
);
}
);
width = 810;
}
);
unicode = 00DF;
},
{
glyphname = ae;
layers = (
{
layerId = "D2A65651-33D6-4DD8-B320-C085CF253BF6";
paths = (
{
closed = 1;
nodes = (
"430 290 LINE",
"49 202 LINE",
"289 189 LINE",
"461 232 LINE"
);
},
{
closed = 1;
nodes = (
"49 202 LINE",
"49 79 LINE SMOOTH",
"49 26 OFFCURVE",
"75 0 OFFCURVE",
"128 0 CURVE SMOOTH",
"373 0 LINE SMOOTH",
"469 0 OFFCURVE",
"494 10 OFFCURVE",
"503 36 CURVE",
"511 10 OFFCURVE",
"521 0 OFFCURVE",
"618 0 CURVE SMOOTH",
"894 0 LINE SMOOTH",
"947 0 OFFCURVE",
"973 26 OFFCURVE",
"973 79 CURVE SMOOTH",
"973 162 LINE",
"740 162 LINE",
"740 90 LINE SMOOTH",
"740 64 OFFCURVE",
"735 59 OFFCURVE",
"709 59 CURVE SMOOTH",
"650 59 LINE SMOOTH",
"624 59 OFFCURVE",
"619 64 OFFCURVE",
"619 90 CURVE SMOOTH",
"619 395 LINE SMOOTH",
"619 421 OFFCURVE",
"624 426 OFFCURVE",
"650 426 CURVE SMOOTH",
"709 426 LINE SMOOTH",
"735 426 OFFCURVE",
"740 421 OFFCURVE",
"740 395 CURVE SMOOTH",
"740 226 LINE",
"973 226 LINE",
"973 406 LINE SMOOTH",
"973 459 OFFCURVE",
"947 485 OFFCURVE",
"894 485 CURVE SMOOTH",
"618 485 LINE SMOOTH",
"521 485 OFFCURVE",
"511 475 OFFCURVE",
"503 449 CURVE",
"494 475 OFFCURVE",
"469 485 OFFCURVE",
"373 485 CURVE SMOOTH",
"128 485 LINE SMOOTH",
"75 485 OFFCURVE",
"49 459 OFFCURVE",
"49 406 CURVE SMOOTH",
"49 299 LINE",
"289 299 LINE",
"289 397 LINE SMOOTH",
"289 423 OFFCURVE",
"294 428 OFFCURVE",
"320 428 CURVE SMOOTH",
"355 428 LINE SMOOTH",
"381 428 OFFCURVE",
"386 423 OFFCURVE",
"386 397 CURVE SMOOTH",
"386 90 LINE SMOOTH",
"386 64 OFFCURVE",
"381 59 OFFCURVE",
"355 59 CURVE SMOOTH",
"320 59 LINE SMOOTH",
"294 59 OFFCURVE",
"289 64 OFFCURVE",
"289 90 CURVE SMOOTH",
"289 189 LINE"
);
},
{
closed = 1;
nodes = (
"973 278 LINE",
"506 278 LINE",
"506 219 LINE",
"973 219 LINE"
);
}
);
width = 1038;
},
{
layerId = "B7AC66F4-B7F6-40D5-96E7-A23DEF3F6247";
paths = (
{
closed = 1;
nodes = (
"464 286 LINE",
"80 200 LINE",
"166 158 LINE",
"486 228 LINE"
);
},
{
closed = 1;
nodes = (
"80 200 LINE",
"80 79 LINE SMOOTH",
"80 26 OFFCURVE",
"106 0 OFFCURVE",
"159 0 CURVE SMOOTH",
"407 0 LINE SMOOTH",
"446 0 OFFCURVE",
"466 19 OFFCURVE",
"472 38 CURVE",
"477 19 OFFCURVE",
"497 0 OFFCURVE",
"533 0 CURVE SMOOTH",
"802 0 LINE SMOOTH",
"855 0 OFFCURVE",
"881 26 OFFCURVE",
"881 79 CURVE SMOOTH",
"881 137 LINE",
"796 137 LINE",
"796 90 LINE SMOOTH",
"796 64 OFFCURVE",
"791 59 OFFCURVE",
"765 59 CURVE SMOOTH",
"547 59 LINE SMOOTH",
"521 59 OFFCURVE",
"516 64 OFFCURVE",
"516 90 CURVE SMOOTH",
"516 395 LINE SMOOTH",
"516 421 OFFCURVE",
"521 426 OFFCURVE",
"547 426 CURVE SMOOTH",
"768 426 LINE SMOOTH",
"794 426 OFFCURVE",
"799 421 OFFCURVE",
"799 395 CURVE SMOOTH",
"799 219 LINE",
"884 219 LINE",
"884 406 LINE SMOOTH",
"884 459 OFFCURVE",
"858 485 OFFCURVE",
"805 485 CURVE SMOOTH",
"533 485 LINE SMOOTH",
"497 485 OFFCURVE",
"477 466 OFFCURVE",
"472 447 CURVE",
"466 466 OFFCURVE",
"446 485 OFFCURVE",
"407 485 CURVE SMOOTH",
"159 485 LINE SMOOTH",
"106 485 OFFCURVE",
"80 459 OFFCURVE",
"80 406 CURVE SMOOTH",
"80 311 LINE",
"166 311 LINE",
"166 395 LINE SMOOTH",
"166 421 OFFCURVE",
"171 426 OFFCURVE",
"197 426 CURVE SMOOTH",
"397 426 LINE SMOOTH",
"419 426 OFFCURVE",
"430 419 OFFCURVE",
"430 396 CURVE SMOOTH",
"430 89 LINE SMOOTH",
"430 66 OFFCURVE",
"419 59 OFFCURVE",
"397 59 CURVE SMOOTH",
"197 59 LINE SMOOTH",
"171 59 OFFCURVE",
"166 64 OFFCURVE",
"166 90 CURVE SMOOTH",
"166 158 LINE"
);
},
{
closed = 1;
nodes = (
"873 278 LINE",
"470 278 LINE",
"470 219 LINE",
"873 219 LINE"
);
}
);
width = 964;
}
);
unicode = 00E6;
},
{
glyphname = edieresis;
layers = (
{
layerId = "D2A65651-33D6-4DD8-B320-C085CF253BF6";
paths = (
{
closed = 1;
nodes = (
"302 673 LINE",
"63 673 LINE",
"63 532 LINE",
"302 532 LINE"
);
},
{
closed = 1;
nodes = (
"621 673 LINE",
"382 673 LINE",
"382 532 LINE",
"621 532 LINE"
);
},
{
closed = 1;
nodes = (
"121 485 LINE SMOOTH",
"68 485 OFFCURVE",
"42 459 OFFCURVE",
"42 406 CURVE SMOOTH",
"42 79 LINE SMOOTH",
"42 26 OFFCURVE",
"68 0 OFFCURVE",
"121 0 CURVE SMOOTH",
"550 0 LINE SMOOTH",
"603 0 OFFCURVE",
"629 26 OFFCURVE",
"629 79 CURVE SMOOTH",
"629 164 LINE",
"397 164 LINE",
"397 90 LINE SMOOTH",
"397 64 OFFCURVE",
"392 59 OFFCURVE",
"366 59 CURVE SMOOTH",
"313 59 LINE SMOOTH",
"287 59 OFFCURVE",
"282 64 OFFCURVE",
"282 90 CURVE SMOOTH",
"282 219 LINE",
"629 219 LINE",
"629 406 LINE SMOOTH",
"629 459 OFFCURVE",
"603 485 OFFCURVE",
"550 485 CURVE SMOOTH"
);
},
{
closed = 1;
nodes = (
"282 278 LINE",
"282 395 LINE SMOOTH",
"282 421 OFFCURVE",
"287 426 OFFCURVE",
"313 426 CURVE SMOOTH",
"366 426 LINE SMOOTH",
"392 426 OFFCURVE",
"397 421 OFFCURVE",
"397 395 CURVE SMOOTH",
"397 278 LINE"
);
}
);
width = 664;
},
{
layerId = "B7AC66F4-B7F6-40D5-96E7-A23DEF3F6247";
paths = (
{
closed = 1;
nodes = (
"243 615 LINE",
"120 615 LINE",
"120 532 LINE",
"243 532 LINE"
);
},
{
closed = 1;
nodes = (
"503 615 LINE",
"380 615 LINE",
"380 532 LINE",
"503 532 LINE"
);
},
{
closed = 1;
nodes = (
"159 485 LINE SMOOTH",
"106 485 OFFCURVE",
"80 459 OFFCURVE",
"80 406 CURVE SMOOTH",
"80 79 LINE SMOOTH",
"80 26 OFFCURVE",
"106 0 OFFCURVE",
"159 0 CURVE SMOOTH",
"465 0 LINE SMOOTH",
"518 0 OFFCURVE",
"544 26 OFFCURVE",
"544 79 CURVE SMOOTH",
"544 137 LINE",
"459 137 LINE",
"459 90 LINE SMOOTH",
"459 64 OFFCURVE",
"454 59 OFFCURVE",
"428 59 CURVE SMOOTH",
"197 59 LINE SMOOTH",
"171 59 OFFCURVE",
"166 64 OFFCURVE",
"166 90 CURVE SMOOTH",
"166 219 LINE",
"547 219 LINE",
"547 406 LINE SMOOTH",
"547 459 OFFCURVE",
"521 485 OFFCURVE",
"468 485 CURVE SMOOTH"
);
},
{
closed = 1;
nodes = (
"166 278 LINE",
"166 395 LINE SMOOTH",
"166 421 OFFCURVE",
"171 426 OFFCURVE",
"197 426 CURVE SMOOTH",
"431 426 LINE SMOOTH",
"457 426 OFFCURVE",
"462 421 OFFCURVE",
"462 395 CURVE SMOOTH",
"462 278 LINE"
);
}
);
width = 617;
}
);
unicode = 00EB;
},
{
glyphname = igrave;
layers = (
{
components = (
{
name = grave;
transform = "{1, 0, 0, 1, -257, 26}";
alignment = -1;
}
);
layerId = "D2A65651-33D6-4DD8-B320-C085CF253BF6";
paths = (
{
closed = 1;
nodes = (
"296 0 LINE",
"296 485 LINE",
"56 485 LINE",
"56 0 LINE"
);
}
);
width = 352;
},
{
components = (
{
name = grave;
transform = "{1, 0, 0, 1, -240, 26}";
alignment = -1;
}
);
layerId = "B7AC66F4-B7F6-40D5-96E7-A23DEF3F6247";
paths = (
{
closed = 1;
nodes = (
"186 0 LINE",
"186 485 LINE",
"100 485 LINE",
"100 0 LINE"
);
}
);
width = 286;
}
);
unicode = 00EC;
},
{
glyphname = iacute;
layers = (
{
components = (
{
name = acute;
transform = "{1, 0, 0, 1, -77, 26}";
alignment = -1;
}
);
layerId = "D2A65651-33D6-4DD8-B320-C085CF253BF6";
paths = (
{
closed = 1;
nodes = (
"296 0 LINE",
"296 485 LINE",
"56 485 LINE",
"56 0 LINE"
);
}
);
width = 352;
},
{
components = (
{
name = acute;
transform = "{1, 0, 0, 1, -65, 26}";
alignment = -1;
}
);
layerId = "B7AC66F4-B7F6-40D5-96E7-A23DEF3F6247";
paths = (
{
closed = 1;
nodes = (
"186 0 LINE",
"186 485 LINE",
"100 485 LINE",
"100 0 LINE"
);
}
);
width = 286;
}
);
unicode = 00ED;
},
{
glyphname = icircumflex;
layers = (
{
components = (
{
name = circumflex;
transform = "{1, 0, 0, 1, -174, 26}";
alignment = -1;
}
);
layerId = "D2A65651-33D6-4DD8-B320-C085CF253BF6";
paths = (
{
closed = 1;
nodes = (
"296 0 LINE",
"296 484 LINE",
"56 484 LINE",
"56 0 LINE"
);
}
);
width = 352;
},
{
components = (
{
name = circumflex;
transform = "{1, 0, 0, 1, -156, 26}";
alignment = -1;
}
);
layerId = "B7AC66F4-B7F6-40D5-96E7-A23DEF3F6247";
paths = (
{
closed = 1;
nodes = (
"186 0 LINE",
"186 485 LINE",
"100 485 LINE",
"100 0 LINE"
);
}
);
width = 286;
}
);
unicode = 00EE;
},
{
glyphname = idieresis;
layers = (
{
components = (
{
name = dieresis;
transform = "{1, 0, 0, 1, -180, 16}";
alignment = -1;
}
);
layerId = "D2A65651-33D6-4DD8-B320-C085CF253BF6";
paths = (
{
closed = 1;
nodes = (
"296 0 LINE",
"296 484 LINE",
"56 484 LINE",
"56 0 LINE"
);
}
);
width = 352;
},
{
components = (
{
name = dieresis;
transform = "{1, 0, 0, 1, -151, -10}";
alignment = -1;
}
);
layerId = "B7AC66F4-B7F6-40D5-96E7-A23DEF3F6247";
paths = (
{
closed = 1;
nodes = (
"186 0 LINE",
"186 485 LINE",
"100 485 LINE",
"100 0 LINE"
);
}
);
width = 286;
}
);
unicode = 00EF;
},
{
color = (166, 255, 153, 255);
glyphname = eth;
layers = (
{
layerId = "D2A65651-33D6-4DD8-B320-C085CF253BF6";
paths = (
{
closed = 1;
nodes = (
"282 90 LINE SMOOTH",
"282 64 OFFCURVE",
"287 59 OFFCURVE",
"313 59 CURVE SMOOTH",
"350 59 LINE",
"350 0 LINE",
"121 0 LINE SMOOTH",
"68 0 OFFCURVE",
"42 26 OFFCURVE",
"42 79 CURVE SMOOTH",
"42 293 LINE SMOOTH",
"42 346 OFFCURVE",
"68 372 OFFCURVE",
"121 372 CURVE SMOOTH",
"465 372 LINE",
"465 313 LINE",
"313 313 LINE SMOOTH",
"287 313 OFFCURVE",
"282 308 OFFCURVE",
"282 282 CURVE SMOOTH"
);
},
{
closed = 1;
nodes = (
"404 300 LINE SMOOTH",
"404 485 OFFCURVE",
"165 591 OFFCURVE",
"94 622 CURVE",
"426 622 LINE",
"488 589 OFFCURVE",
"644 483 OFFCURVE",
"644 297 CURVE SMOOTH",
"644 79 LINE SMOOTH",
"644 26 OFFCURVE",
"618 0 OFFCURVE",
"565 0 CURVE SMOOTH",
"337 0 LINE",
"337 59 LINE",
"373 59 LINE SMOOTH",
"399 59 OFFCURVE",
"404 64 OFFCURVE",
"404 90 CURVE SMOOTH"
);
},
{
closed = 1;
nodes = (
"175 437 LINE",
"175 503 LINE",
"615 594 LINE",
"615 528 LINE"
);
}
);
width = 697;
},
{
layerId = "B7AC66F4-B7F6-40D5-96E7-A23DEF3F6247";
paths = (
{
closed = 1;
nodes = (
"188 90 LINE",
"188 64 OFFCURVE",
"193 59 OFFCURVE",
"219 59 CURVE SMOOTH",
"444 59 LINE",
"444 0 LINE",
"181 0 LINE SMOOTH",
"128 0 OFFCURVE",
"102 26 OFFCURVE",
"102 79 CURVE SMOOTH",
"102 300 LINE SMOOTH",
"102 353 OFFCURVE",
"128 379 OFFCURVE",
"181 379 CURVE SMOOTH",
"514 379 LINE",
"514 320 LINE",
"219 320 LINE SMOOTH",
"193 320 OFFCURVE",
"188 315 OFFCURVE",
"188 289 CURVE SMOOTH"
);
},
{
closed = 1;
nodes = (
"498 321 LINE SMOOTH",
"498 459 OFFCURVE",
"356 563 OFFCURVE",
"260 622 CURVE",
"375 622 LINE",
"450 569 OFFCURVE",
"584 457 OFFCURVE",
"584 318 CURVE SMOOTH",
"584 79 LINE SMOOTH",
"584 26 OFFCURVE",
"558 0 OFFCURVE",
"505 0 CURVE SMOOTH",
"434 0 LINE",
"434 59 LINE",
"467 59 LINE SMOOTH",
"493 59 OFFCURVE",
"498 64 OFFCURVE",
"498 90 CURVE SMOOTH"
);
},
{
closed = 1;
nodes = (
"261 434 LINE",
"261 488 LINE",
"585 579 LINE",
"585 525 LINE"
);
}
);
width = 687;
}
);
unicode = 00F0;
},
{
glyphname = odieresis;
layers = (
{
layerId = "D2A65651-33D6-4DD8-B320-C085CF253BF6";
paths = (
{
closed = 1;
nodes = (
"128 485 LINE SMOOTH",
"75 485 OFFCURVE",
"49 459 OFFCURVE",
"49 406 CURVE SMOOTH",
"49 79 LINE SMOOTH",
"49 26 OFFCURVE",
"75 0 OFFCURVE",
"128 0 CURVE SMOOTH",
"550 0 LINE SMOOTH",
"603 0 OFFCURVE",
"629 26 OFFCURVE",
"629 79 CURVE SMOOTH",
"629 406 LINE SMOOTH",
"629 459 OFFCURVE",
"603 485 OFFCURVE",
"550 485 CURVE SMOOTH"
);
},
{
closed = 1;
nodes = (
"389 90 LINE SMOOTH",
"389 64 OFFCURVE",
"384 59 OFFCURVE",
"358 59 CURVE SMOOTH",
"320 59 LINE SMOOTH",
"294 59 OFFCURVE",
"289 64 OFFCURVE",
"289 90 CURVE SMOOTH",
"289 395 LINE SMOOTH",
"289 421 OFFCURVE",
"294 426 OFFCURVE",
"320 426 CURVE SMOOTH",
"358 426 LINE SMOOTH",
"384 426 OFFCURVE",
"389 421 OFFCURVE",
"389 395 CURVE SMOOTH"
);
},
{
closed = 1;
nodes = (
"63 673 LINE",
"63 532 LINE",
"302 532 LINE",
"302 673 LINE"
);
},
{
closed = 1;
nodes = (
"382 673 LINE",
"382 532 LINE",
"621 532 LINE",
"621 673 LINE"
);
}
);
width = 678;
},
{
layerId = "B7AC66F4-B7F6-40D5-96E7-A23DEF3F6247";
paths = (
{
closed = 1;
nodes = (
"159 485 LINE SMOOTH",
"106 485 OFFCURVE",
"80 459 OFFCURVE",
"80 406 CURVE SMOOTH",
"80 79 LINE SMOOTH",
"80 26 OFFCURVE",
"106 0 OFFCURVE",
"159 0 CURVE SMOOTH",
"461 0 LINE SMOOTH",
"514 0 OFFCURVE",
"540 26 OFFCURVE",
"540 79 CURVE SMOOTH",
"540 406 LINE SMOOTH",
"540 459 OFFCURVE",
"514 485 OFFCURVE",
"461 485 CURVE SMOOTH"
);
},
{
closed = 1;
nodes = (
"455 90 LINE SMOOTH",
"455 64 OFFCURVE",
"450 59 OFFCURVE",
"424 59 CURVE SMOOTH",
"196 59 LINE SMOOTH",
"170 59 OFFCURVE",
"165 64 OFFCURVE",
"165 90 CURVE SMOOTH",
"165 395 LINE SMOOTH",
"165 421 OFFCURVE",
"170 426 OFFCURVE",
"196 426 CURVE SMOOTH",
"424 426 LINE SMOOTH",
"450 426 OFFCURVE",
"455 421 OFFCURVE",
"455 395 CURVE"
);
},
{
closed = 1;
nodes = (
"122 615 LINE",
"122 532 LINE",
"245 532 LINE",
"245 615 LINE"
);
},
{
closed = 1;
nodes = (
"382 615 LINE",
"382 532 LINE",
"505 532 LINE",
"505 615 LINE"
);
}
);
width = 620;
}
);
unicode = 00F6;
},
{
glyphname = divide;
layers = (
{
layerId = "D2A65651-33D6-4DD8-B320-C085CF253BF6";
paths = (
{
closed = 1;
nodes = (
"31 239 LINE",
"692 239 LINE",
"692 380 LINE",
"31 380 LINE"
);
},
{
closed = 1;
nodes = (
"237 520 LINE",
"237 419 LINE",
"487 419 LINE",
"487 520 LINE"
);
},
{
closed = 1;
nodes = (
"237 200 LINE",
"237 99 LINE",
"487 99 LINE",
"487 200 LINE"
);
}
);
width = 752;
},
{
layerId = "B7AC66F4-B7F6-40D5-96E7-A23DEF3F6247";
paths = (
{
closed = 1;
nodes = (
"60 277 LINE",
"580 277 LINE",
"580 345 LINE",
"60 345 LINE"
);
},
{
closed = 1;
nodes = (
"276 504 LINE",
"276 422 LINE",
"364 422 LINE",
"364 504 LINE"
);
},
{
closed = 1;
nodes = (
"276 200 LINE",
"276 118 LINE",
"364 118 LINE",
"364 200 LINE"
);
}
);
width = 640;
}
);
unicode = 00F7;
},
